{
.appVersion = "3260";
.formatVersion = 3;
axes = (
{
name = Weight;
tag = wght;
}
);
date = "2024-11-19 04:16:12 +0000";
familyName = Banga;
fontMaster = (
{
axesValues = (
300
);
guides = (
{
pos = (71,965);
},
{
pos = (182,1126);
}
);
iconName = SemiLight;
id = m01;
metricValues = (
{
over = 16;
pos = 760;
},
{
over = 16;
pos = 760;
},
{
over = 16;
pos = 550;
},
{
over = -16;
},
{
over = -16;
pos = -240;
},
{
}
);
name = Light;
userData = {
GSCornerRadius = 15;
};
visible = 1;
},
{
axesValues = (
900
);
guides = (
{
pos = (139,804);
},
{
pos = (66,997);
},
{
pos = (267,1190);
},
{
locked = 1;
pos = (190,164);
},
{
locked = 1;
pos = (190,416);
}
);
iconName = Bold;
id = "7F4E18E3-41A5-4521-AA8A-AE39B7B68B38";
metricValues = (
{
over = 16;
pos = 760;
},
{
over = 16;
pos = 760;
},
{
over = 16;
pos = 580;
},
{
over = -16;
},
{
over = -16;
pos = -240;
},
{
}
);
name = Black;
userData = {
GSCornerRadius = 15;
};
visible = 1;
}
);
glyphs = (
{
color = 8;
glyphname = A;
lastChange = "2024-12-05 02:23:46 +0000";
layers = (
{
anchors = (
{
name = bottom;
pos = (336,0);
},
{
name = ogonek;
pos = (602,0);
},
{
name = top;
pos = (325,760);
}
);
guides = (
{
angle = 90;
pos = (325,515);
}
);
layerId = m01;
shapes = (
{
closed = 1;
nodes = (
(62,0,l),
(338,690,l),
(308,690,l),
(584,0,l),
(640,0,l),
(330,776,l),
(320,776,l),
(10,0,l)
);
},
{
closed = 1;
nodes = (
(518,225,l),
(518,275,l),
(133,275,l),
(133,225,l)
);
}
);
width = 650;
},
{
anchors = (
{
name = bottom;
pos = (406,0);
},
{
name = ogonek;
pos = (787,0);
},
{
name = top;
pos = (406,760);
}
);
guides = (
{
angle = 90;
pos = (406,377);
}
);
layerId = "7F4E18E3-41A5-4521-AA8A-AE39B7B68B38";
shapes = (
{
closed = 1;
nodes = (
(234,0,l),
(434,690,l),
(368,690,l),
(568,0,l),
(807,0,l),
(559,760,l),
(253,760,l),
(5,0,l)
);
},
{
closed = 1;
nodes = (
(650,123,l),
(650,313,l),
(171,313,l),
(171,123,l)
);
}
);
width = 812;
},
{
associatedMasterId = m01;
backgroundImage = {
imagePath = "/var/folders/5k/6t5s5z6x64zbq6w952rby05w0000gn/T/TemporaryItems/NSIRD_screencaptureui_xW5Qwc/Screenshot 2024-11-20 at 2.40.03 pm.png";
locked = 1;
pos = (-112,-240);
scale = (5.5669,5.5669);
};
layerId = "A441C58E-38EE-4E48-A4BE-29C1667CA81E";
name = "20 Nov 24 at 14:43";
shapes = (
{
closed = 1;
nodes = (
(64,0,l),
(316,630,l),
(305,630,l),
(557,0,l),
(611,0,l),
(331,700,l),
(290,700,l),
(10,0,l)
);
},
{
closed = 1;
nodes = (
(500,199,l),
(500,246,l),
(135,246,l),
(135,199,l)
);
}
);
width = 621;
},
{
associatedMasterId = "7F4E18E3-41A5-4521-AA8A-AE39B7B68B38";
layerId = "BDB16158-8E1A-42A8-8FC3-6BD1887858D2";
name = "20 Nov 24 at 18:36";
shapes = (
{
closed = 1;
nodes = (
(249,0,l),
(441,630,l),
(351,630,l),
(543,0,l),
(776,0,l),
(556,700,l),
(235,700,l),
(15,0,l)
);
},
{
closed = 1;
nodes = (
(578,103,l),
(578,273,l),
(213,273,l),
(213,103,l)
);
}
);
width = 791;
},
{
anchors = (
{
name = bottom;
pos = (321,0);
},
{
name = ogonek;
pos = (587,0);
},
{
name = top;
pos = (310,760);
}
);
associatedMasterId = m01;
layerId = "12B3E601-DFBF-4B44-9521-A52FC999F646";
name = "30 Nov 24 at 11:01";
shapes = (
{
closed = 1;
nodes = (
(50,0,l),
(326,690,l),
(293,690,l),
(569,0,l),
(625,0,l),
(321,760,l),
(300,760,l),
(-4,0,l)
);
},
{
closed = 1;
nodes = (
(503,225,l),
(503,273,l),
(118,273,l),
(118,225,l)
);
}
);
width = 641;
},
{
anchors = (
{
name = bottom;
pos = (391,0);
},
{
name = ogonek;
pos = (772,0);
},
{
name = top;
pos = (391,760);
}
);
associatedMasterId = "7F4E18E3-41A5-4521-AA8A-AE39B7B68B38";
guides = (
{
angle = 90;
pos = (391,377);
}
);
layerId = "6558371B-1069-4FED-BFD4-F9C5322AC0A6";
name = "30 Nov 24 at 11:15";
shapes = (
{
closed = 1;
nodes = (
(244,0,l),
(424,690,l),
(358,690,l),
(538,0,l),
(772,0,l),
(544,760,l),
(238,760,l),
(10,0,l)
);
},
{
closed = 1;
nodes = (
(635,123,l),
(635,313,l),
(156,313,l),
(156,123,l)
);
}
);
width = 801;
},
{
anchors = (
{
name = bottom;
pos = (336,0);
},
{
name = ogonek;
pos = (602,0);
},
{
name = top;
pos = (325,760);
}
);
associatedMasterId = m01;
guides = (
{
angle = 90;
pos = (325,515);
}
);
layerId = "7E810B9B-E30D-4AB9-843F-DED2F65538C7";
name = "5 Dec 24 at 12:23";
shapes = (
{
closed = 1;
nodes = (
(64,0,l),
(340,690,l),
(308,690,l),
(584,0,l),
(640,0,l),
(330,776,l),
(320,776,l),
(10,0,l)
);
},
{
closed = 1;
nodes = (
(518,225,l),
(518,275,l),
(133,275,l),
(133,225,l)
);
}
);
width = 650;
}
);
unicode = 65;
},
{
color = 8;
glyphname = AE;
lastChange = "2024-12-05 22:12:07 +0000";
layers = (
{
layerId = m01;
shapes = (
{
closed = 1;
nodes = (
(63,0,l),
(471,734,l),
(430,710,l),
(517,710,l),
(517,760,l),
(433,760,l),
(10,0,l)
);
},
{
closed = 1;
nodes = (
(518,225,l),
(518,275,l),
(191,275,l),
(172,225,l)
);
},
{
closed = 1;
nodes = (
(951,0,l),
(951,50,l),
(524,50,l),
(524,0,l)
);
},
{
closed = 1;
nodes = (
(552,0,l),
(552,760,l),
(499,760,l),
(499,0,l)
);
},
{
closed = 1;
nodes = (
(868,377,l),
(868,427,l),
(524,427,l),
(524,377,l)
);
},
{
closed = 1;
nodes = (
(942,710,l),
(942,760,l),
(524,760,l),
(524,710,l)
);
}
);
width = 1043;
},
{
layerId = "7F4E18E3-41A5-4521-AA8A-AE39B7B68B38";
shapes = (
{
closed = 1;
nodes = (
(244,0,l),
(599,690,l),
(475,570,l),
(668,570,l),
(668,760,l),
(426,760,l),
(5,0,l)
);
},
{
closed = 1;
nodes = (
(686,138,l),
(686,323,l),
(207,323,l),
(207,138,l)
);
},
{
closed = 1;
nodes = (
(1139,0,l),
(1139,190,l),
(612,190,l),
(612,0,l)
);
},
{
closed = 1;
nodes = (
(817,0,l),
(817,760,l),
(587,760,l),
(587,0,l)
);
},
{
closed = 1;
nodes = (
(1076,290,l),
(1076,475,l),
(612,475,l),
(612,290,l)
);
},
{
closed = 1;
nodes = (
(1130,570,l),
(1130,760,l),
(612,760,l),
(612,570,l)
);
}
);
width = 1185;
}
);
metricLeft = "=A";
metricRight = "=E";
unicode = 198;
},
{
color = 8;
glyphname = B;
lastChange = "2024-12-05 05:39:02 +0000";
layers = (
{
layerId = m01;
shapes = (
{
closed = 1;
nodes = (
(356,0,l),
(523,0,o),
(617,75,o),
(617,208,cs),
(617,337,o),
(523,409,o),
(356,409,cs),
(113,409,l),
(113,366,l),
(346,366,l),
(496,366,o),
(562,318,o),
(562,208,cs),
(562,98,o),
(496,50,o),
(346,50,cs),
(118,50,l),
(118,0,l)
);
},
{
closed = 1;
nodes = (
(145,0,l),
(145,760,l),
(92,760,l),
(92,0,l)
);
},
{
closed = 1;
nodes = (
(303,379,l),
(470,379,o),
(564,445,o),
(564,563,cs),
(564,689,o),
(470,760,o),
(303,760,cs),
(133,760,l),
(133,710,l),
(293,710,l),
(443,710,o),
(509,665,o),
(509,563,cs),
(509,461,o),
(443,416,o),
(293,416,cs),
(134,416,l),
(134,379,l)
);
}
);
width = 687;
},
{
layerId = "7F4E18E3-41A5-4521-AA8A-AE39B7B68B38";
shapes = (
{
closed = 1;
nodes = (
(390,0,l),
(609,0,o),
(718,76,o),
(718,230,cs),
(718,355,o),
(618,409,o),
(390,409,cs),
(91,409,l),
(91,305,l),
(380,305,ls),
(452,305,o),
(483,285,o),
(483,240,cs),
(483,195,o),
(452,175,o),
(380,175,cs),
(218,175,l),
(218,0,l)
);
},
{
closed = 1;
nodes = (
(276,0,l),
(276,760,l),
(46,760,l),
(46,0,l)
);
},
{
closed = 1;
nodes = (
(340,373,l),
(559,373,o),
(668,432,o),
(668,550,cs),
(668,696,o),
(568,760,o),
(340,760,cs),
(168,760,l),
(168,585,l),
(330,585,ls),
(402,585,o),
(433,566,o),
(433,523,cs),
(433,479,o),
(402,460,o),
(330,460,cs),
(71,460,l),
(71,373,l)
);
}
);
width = 753;
},
{
associatedMasterId = "7F4E18E3-41A5-4521-AA8A-AE39B7B68B38";
layerId = "6FA6AA45-548B-4E53-B4C0-F4143F21B732";
name = "30 Nov 24 at 11:06";
shapes = (
{
closed = 1;
nodes = (
(384,0,l),
(603,0,o),
(712,76,o),
(712,230,cs),
(712,384,o),
(603,460,o),
(384,460,cs),
(202,460,l),
(202,333,l),
(354,333,ls),
(433,333,o),
(477,298,o),
(477,236,cs),
(477,174,o),
(433,139,o),
(354,139,cs),
(202,139,l),
(202,0,l)
);
},
{
closed = 1;
nodes = (
(270,0,l),
(270,760,l),
(40,760,l),
(40,0,l)
);
},
{
closed = 1;
nodes = (
(339,403,l),
(558,403,o),
(667,464,o),
(667,586,cs),
(667,698,o),
(562,760,o),
(374,760,cs),
(157,760,l),
(157,621,l),
(309,621,ls),
(391,621,o),
(432,608,o),
(432,543,cs),
(432,478,o),
(391,462,o),
(309,462,cs),
(157,462,l),
(157,403,l)
);
}
);
width = 737;
},
{
associatedMasterId = m01;
layerId = "1E3C8C59-498E-4182-A056-934BF5AC32F8";
name = "30 Nov 24 at 11:13";
shapes = (
{
closed = 1;
nodes = (
(344,0,l),
(511,0,o),
(605,75,o),
(605,208,cs),
(605,341,o),
(511,415,o),
(344,415,cs),
(101,415,l),
(101,367,l),
(334,367,l),
(484,367,o),
(550,319,o),
(550,208,cs),
(550,97,o),
(484,48,o),
(334,48,cs),
(106,48,l),
(106,0,l)
);
},
{
closed = 1;
nodes = (
(133,0,l),
(133,760,l),
(80,760,l),
(80,0,l)
);
},
{
closed = 1;
nodes = (
(291,387,l),
(465,387,o),
(552,446,o),
(552,564,cs),
(552,690,o),
(458,760,o),
(291,760,cs),
(121,760,l),
(121,712,l),
(281,712,l),
(431,712,o),
(497,667,o),
(497,564,cs),
(497,460,o),
(431,415,o),
(281,415,cs),
(122,415,l),
(122,387,l)
);
}
);
width = 655;
},
{
associatedMasterId = "7F4E18E3-41A5-4521-AA8A-AE39B7B68B38";
layerId = "3A242D44-247B-4FB7-8106-4F37C831C274";
name = "30 Nov 24 at 11:17";
shapes = (
{
closed = 1;
nodes = (
(394,0,l),
(613,0,o),
(722,76,o),
(722,230,cs),
(722,367,o),
(613,435,o),
(394,435,cs),
(85,435,l),
(85,300,l),
(384,300,ls),
(456,300,o),
(487,280,o),
(487,235,cs),
(487,190,o),
(456,170,o),
(384,170,cs),
(212,170,l),
(212,0,l)
);
},
{
closed = 1;
nodes = (
(270,0,l),
(270,760,l),
(40,760,l),
(40,0,l)
);
},
{
closed = 1;
nodes = (
(364,350,l),
(574,350,o),
(692,422,o),
(692,550,cs),
(692,696,o),
(592,760,o),
(364,760,cs),
(182,760,l),
(182,590,l),
(354,590,ls),
(428,590,o),
(457,573,o),
(457,528,cs),
(457,482,o),
(428,465,o),
(354,465,cs),
(85,465,l),
(85,350,l)
);
}
);
width = 747;
},
{
associatedMasterId = "7F4E18E3-41A5-4521-AA8A-AE39B7B68B38";
layerId = "7BA13E0C-1446-4E35-8523-E99BFAB4F7D9";
name = "2 Dec 24 at 11:48";
shapes = (
{
closed = 1;
nodes = (
(384,0,l),
(603,0,o),
(712,76,o),
(712,230,cs),
(712,360,o),
(603,425,o),
(384,425,cs),
(85,425,l),
(85,295,l),
(374,295,ls),
(448,295,o),
(477,278,o),
(477,235,cs),
(477,192,o),
(448,175,o),
(374,175,cs),
(212,175,l),
(212,0,l)
);
},
{
closed = 1;
nodes = (
(270,0,l),
(270,760,l),
(40,760,l),
(40,0,l)
);
},
{
closed = 1;
nodes = (
(354,360,l),
(564,360,o),
(682,428,o),
(682,550,cs),
(682,696,o),
(582,760,o),
(354,760,cs),
(182,760,l),
(182,585,l),
(344,585,ls),
(418,585,o),
(447,569,o),
(447,528,cs),
(447,486,o),
(418,470,o),
(344,470,cs),
(85,470,l),
(85,360,l)
);
}
);
width = 737;
},
{
associatedMasterId = "7F4E18E3-41A5-4521-AA8A-AE39B7B68B38";
layerId = "D1DA04C3-B4D2-45E8-8326-ADE2224932AF";
name = "4 Dec 24 at 16:32";
shapes = (
{
closed = 1;
nodes = (
(384,0,l),
(603,0,o),
(712,76,o),
(712,230,cs),
(712,347,o),
(603,405,o),
(384,405,cs),
(85,405,l),
(85,305,l),
(374,305,ls),
(446,305,o),
(477,285,o),
(477,240,cs),
(477,195,o),
(446,175,o),
(374,175,cs),
(212,175,l),
(212,0,l)
);
},
{
closed = 1;
nodes = (
(270,0,l),
(270,760,l),
(40,760,l),
(40,0,l)
);
},
{
closed = 1;
nodes = (
(354,380,l),
(564,380,o),
(682,441,o),
(682,550,cs),
(682,696,o),
(582,760,o),
(354,760,cs),
(182,760,l),
(182,585,l),
(344,585,ls),
(416,585,o),
(447,566,o),
(447,523,cs),
(447,479,o),
(416,460,o),
(344,460,cs),
(85,460,l),
(85,380,l)
);
}
);
width = 737;
},
{
associatedMasterId = "7F4E18E3-41A5-4521-AA8A-AE39B7B68B38";
layerId = "84CF9D60-4CBF-41E4-85DB-A191409B0B2D";
name = "5 Dec 24 at 15:34";
shapes = (
{
closed = 1;
nodes = (
(390,0,l),
(609,0,o),
(718,76,o),
(718,230,cs),
(718,350,o),
(609,409,o),
(390,409,cs),
(91,409,l),
(91,305,l),
(380,305,ls),
(452,305,o),
(483,285,o),
(483,240,cs),
(483,195,o),
(452,175,o),
(380,175,cs),
(218,175,l),
(218,0,l)
);
},
{
closed = 1;
nodes = (
(276,0,l),
(276,760,l),
(46,760,l),
(46,0,l)
);
},
{
closed = 1;
nodes = (
(360,383,l),
(570,383,o),
(688,443,o),
(688,550,cs),
(688,696,o),
(588,760,o),
(360,760,cs),
(188,760,l),
(188,585,l),
(350,585,ls),
(422,585,o),
(453,566,o),
(453,523,cs),
(453,479,o),
(422,460,o),
(350,460,cs),
(91,460,l),
(91,383,l)
);
}
);
width = 753;
}
);
metricLeft = "=H";
metricRight = "=O";
unicode = 66;
},
{
color = 8;
glyphname = C;
lastChange = "2024-12-05 02:01:00 +0000";
layers = (
{
anchors = (
{
name = bottom;
pos = (447,0);
},
{
name = top;
pos = (447,760);
}
);
background = {
shapes = (
{
closed = 1;
nodes = (
(594,-16,o),
(717,52,o),
(749,148,c),
(778,148,l),
(778,371,l),
(749,371,l),
(749,306,l),
(749,139,o),
(634,34,o),
(452,34,cs),
(260,34,o),
(125,177,o),
(125,380,cs),
(125,583,o),
(260,726,o),
(452,726,cs),
(583,726,o),
(687,650,o),
(703,542,c),
(756,542,l),
(739,679,o),
(613,776,o),
(452,776,cs),
(228,776,o),
(70,613,o),
(70,380,cs),
(70,147,o),
(228,-16,o),
(452,-16,cs)
);
},
{
closed = 1;
nodes = (
(802,0,l),
(802,388,l),
(506,388,l),
(506,338,l),
(749,338,l),
(749,148,l),
(749,0,l)
);
}
);
};
layerId = m01;
shapes = (
{
closed = 1;
nodes = (
(650,-16,o),
(781,102,o),
(787,291,c),
(734,291,l),
(727,133,o),
(616,34,o),
(447,34,cs),
(258,34,o),
(125,177,o),
(125,380,cs),
(125,583,o),
(258,726,o),
(447,726,cs),
(616,726,o),
(727,627,o),
(734,469,c),
(787,469,l),
(781,658,o),
(650,776,o),
(447,776,cs),
(226,776,o),
(70,613,o),
(70,380,cs),
(70,147,o),
(226,-16,o),
(447,-16,cs)
);
}
);
width = 857;
},
{
anchors = (
{
name = bottom;
pos = (438,0);
},
{
name = top;
pos = (429,760);
}
);
background = {
shapes = (
{
closed = 1;
nodes = (
(675,-16,o),
(841,147,o),
(841,380,cs),
(841,613,o),
(675,776,o),
(438,776,cs),
(201,776,o),
(35,613,o),
(35,380,cs),
(35,147,o),
(201,-16,o),
(438,-16,cs)
);
},
{
closed = 1;
nodes = (
(335,164,o),
(270,247,o),
(270,380,cs),
(270,513,o),
(335,596,o),
(438,596,cs),
(541,596,o),
(606,513,o),
(606,380,cs),
(606,247,o),
(541,164,o),
(438,164,cs)
);
}
);
};
layerId = "7F4E18E3-41A5-4521-AA8A-AE39B7B68B38";
shapes = (
{
closed = 1;
nodes = (
(664,-16,o),
(813,114,o),
(823,321,c),
(593,321,l),
(583,233,o),
(528,184,o),
(438,184,cs),
(330,184,o),
(270,254,o),
(270,380,cs),
(270,506,o),
(330,576,o),
(438,576,cs),
(528,576,o),
(583,527,o),
(593,439,c),
(823,439,l),
(813,646,o),
(664,776,o),
(438,776,cs),
(201,776,o),
(35,613,o),
(35,380,cs),
(35,147,o),
(201,-16,o),
(438,-16,cs)
);
}
);
width = 858;
},
{
associatedMasterId = "7F4E18E3-41A5-4521-AA8A-AE39B7B68B38";
background = {
shapes = (
{
closed = 1;
nodes = (
(665,-16,o),
(831,147,o),
(831,380,cs),
(831,613,o),
(665,776,o),
(428,776,cs),
(191,776,o),
(25,613,o),
(25,380,cs),
(25,147,o),
(191,-16,o),
(428,-16,cs)
);
},
{
closed = 1;
nodes = (
(325,164,o),
(260,247,o),
(260,380,cs),
(260,513,o),
(325,596,o),
(428,596,cs),
(531,596,o),
(596,513,o),
(596,380,cs),
(596,247,o),
(531,164,o),
(428,164,cs)
);
}
);
};
layerId = "3BBC3A3E-36E5-4A13-B588-34CD1134BBB5";
name = "25 Nov 24 at 21:01";
shapes = (
{
closed = 1;
nodes = (
(642,-16,o),
(793,111,o),
(793,291,c),
(563,291,l),
(563,216,o),
(507,164,o),
(428,164,cs),
(325,164,o),
(260,247,o),
(260,380,cs),
(260,513,o),
(325,596,o),
(428,596,cs),
(507,596,o),
(563,544,o),
(563,469,c),
(793,469,l),
(793,649,o),
(642,776,o),
(428,776,cs),
(191,776,o),
(25,613,o),
(25,380,cs),
(25,147,o),
(191,-16,o),
(428,-16,cs)
);
}
);
width = 798;
},
{
anchors = (
{
name = bottom;
pos = (428,0);
},
{
name = top;
pos = (419,760);
}
);
associatedMasterId = "7F4E18E3-41A5-4521-AA8A-AE39B7B68B38";
background = {
shapes = (
{
closed = 1;
nodes = (
(665,-16,o),
(831,147,o),
(831,380,cs),
(831,613,o),
(665,776,o),
(428,776,cs),
(191,776,o),
(25,613,o),
(25,380,cs),
(25,147,o),
(191,-16,o),
(428,-16,cs)
);
},
{
closed = 1;
nodes = (
(325,164,o),
(260,247,o),
(260,380,cs),
(260,513,o),
(325,596,o),
(428,596,cs),
(531,596,o),
(596,513,o),
(596,380,cs),
(596,247,o),
(531,164,o),
(428,164,cs)
);
}
);
};
layerId = "492DA2EE-2F07-45D7-A782-582986AD718D";
name = "30 Nov 24 at 10:54";
shapes = (
{
closed = 1;
nodes = (
(654,-16,o),
(803,114,o),
(813,321,c),
(583,321,l),
(572,220,o),
(516,164,o),
(428,164,cs),
(325,164,o),
(260,247,o),
(260,380,cs),
(260,513,o),
(325,596,o),
(428,596,cs),
(516,596,o),
(572,540,o),
(583,439,c),
(813,439,l),
(803,646,o),
(654,776,o),
(428,776,cs),
(191,776,o),
(25,613,o),
(25,380,cs),
(25,147,o),
(191,-16,o),
(428,-16,cs)
);
}
);
width = 838;
}
);
metricLeft = "=O";
metricRight = "=O";
unicode = 67;
},
{
color = 8;
glyphname = D;
lastChange = "2024-12-04 12:16:54 +0000";
layers = (
{
anchors = (
{
name = bottom;
pos = (348,0);
},
{
name = center;
pos = (195,380);
},
{
name = top;
pos = (348,760);
}
);
layerId = m01;
shapes = (
{
closed = 1;
nodes = (
(312,0,ls),
(547,0,o),
(694,147,o),
(694,380,cs),
(694,613,o),
(547,760,o),
(312,760,cs),
(135,760,l),
(135,710,l),
(312,710,ls),
(513,710,o),
(639,583,o),
(639,380,cs),
(639,177,o),
(513,50,o),
(312,50,cs),
(135,50,l),
(135,0,l)
);
},
{
closed = 1;
nodes = (
(145,0,l),
(145,760,l),
(92,760,l),
(92,0,l)
);
}
);
width = 764;
},
{
anchors = (
{
name = bottom;
pos = (382,0);
},
{
name = center;
pos = (214,380);
},
{
name = top;
pos = (382,760);
}
);
background = {
shapes = (
{
closed = 1;
nodes = (
(617,-16,o),
(783,147,o),
(783,380,cs),
(783,613,o),
(617,776,o),
(380,776,cs),
(143,776,o),
(-23,613,o),
(-23,380,cs),
(-23,147,o),
(143,-16,o),
(380,-16,cs)
);
},
{
closed = 1;
nodes = (
(277,184,o),
(212,260,o),
(212,380,cs),
(212,500,o),
(277,576,o),
(380,576,cs),
(483,576,o),
(548,500,o),
(548,380,cs),
(548,260,o),
(483,184,o),
(380,184,cs)
);
}
);
};
layerId = "7F4E18E3-41A5-4521-AA8A-AE39B7B68B38";
shapes = (
{
closed = 1;
nodes = (
(390,0,ls),
(638,0,o),
(793,147,o),
(793,380,cs),
(793,613,o),
(638,760,o),
(390,760,cs),
(198,760,l),
(198,570,l),
(348,570,ls),
(488,570,o),
(558,507,o),
(558,380,cs),
(558,253,o),
(488,190,o),
(348,190,cs),
(198,190,l),
(198,0,l)
);
},
{
closed = 1;
nodes = (
(276,0,l),
(276,760,l),
(46,760,l),
(46,0,l)
);
}
);
width = 828;
},
{
anchors = (
{
name = bottom;
pos = (366,0);
},
{
name = center;
pos = (198,380);
},
{
name = top;
pos = (366,760);
}
);
associatedMasterId = "7F4E18E3-41A5-4521-AA8A-AE39B7B68B38";
layerId = "19AB1942-AE38-423A-8A08-06C2C8AFEFAC";
name = "30 Nov 24 at 10:55";
shapes = (
{
closed = 1;
nodes = (
(364,0,ls),
(612,0,o),
(767,147,o),
(767,380,cs),
(767,613,o),
(612,760,o),
(364,760,cs),
(182,760,l),
(182,611,l),
(322,611,ls),
(457,611,o),
(532,528,o),
(532,380,cs),
(532,232,o),
(457,149,o),
(322,149,cs),
(182,149,l),
(182,0,l)
);
},
{
closed = 1;
nodes = (
(270,0,l),
(270,760,l),
(40,760,l),
(40,0,l)
);
}
);
width = 792;
},
{
anchors = (
{
name = bottom;
pos = (336,0);
},
{
name = center;
pos = (183,380);
},
{
name = top;
pos = (336,760);
}
);
associatedMasterId = m01;
layerId = "A61FE1E0-A3BF-4973-8C5C-C30015C9A777";
name = "30 Nov 24 at 10:55";
shapes = (
{
closed = 1;
nodes = (
(300,0,ls),
(535,0,o),
(682,147,o),
(682,380,cs),
(682,613,o),
(535,760,o),
(300,760,cs),
(123,760,l),
(123,712,l),
(300,712,ls),
(501,712,o),
(627,584,o),
(627,380,cs),
(627,176,o),
(501,48,o),
(300,48,cs),
(123,48,l),
(123,0,l)
);
},
{
closed = 1;
nodes = (
(133,0,l),
(133,760,l),
(80,760,l),
(80,0,l)
);
}
);
width = 732;
}
);
metricLeft = "=H";
metricRight = "=O";
unicode = 68;
},
{
glyphname = Eth;
lastChange = "2024-12-05 04:58:33 +0000";
layers = (
{
layerId = m01;
shapes = (
{
ref = D;
},
{
closed = 1;
nodes = (
(355,423,l),
(6,423,l),
(6,379,l),
(355,379,l)
);
}
);
width = 764;
},
{
layerId = "7F4E18E3-41A5-4521-AA8A-AE39B7B68B38";
shapes = (
{
ref = D;
},
{
closed = 1;
nodes = (
(431,432,l),
(-38,432,l),
(-38,327,l),
(431,327,l)
);
}
);
width = 828;
}
);
metricLeft = "=D@100";
metricRight = "=D";
unicode = 208;
},
{
color = 8;
glyphname = E;
lastChange = "2024-12-04 12:16:54 +0000";
layers = (
{
anchors = (
{
name = bottom;
pos = (313,0);
},
{
name = ogonek;
pos = (534,0);
},
{
name = top;
pos = (313,760);
},
{
name = topleft;
pos = (32,760);
}
);
guides = (
{
angle = 90;
pos = (574,132);
}
);
layerId = m01;
shapes = (
{
closed = 1;
nodes = (
(145,0,l),
(145,760,l),
(92,760,l),
(92,0,l)
);
},
{
closed = 1;
nodes = (
(491,377,l),
(491,427,l),
(117,427,l),
(117,377,l)
);
},
{
closed = 1;
nodes = (
(565,710,l),
(565,760,l),
(117,760,l),
(117,710,l)
);
},
{
closed = 1;
nodes = (
(574,0,l),
(574,50,l),
(117,50,l),
(117,0,l)
);
}
);
width = 666;
},
{
anchors = (
{
name = bottom;
pos = (307,0);
},
{
name = ogonek;
pos = (568,0);
},
{
name = top;
pos = (307,760);
},
{
name = topleft;
pos = (26,760);
}
);
background = {
shapes = (
{
closed = 1;
nodes = (
(726,0,l),
(726,760,l),
(496,760,l),
(496,0,l)
);
},
{
closed = 1;
nodes = (
(276,0,l),
(276,760,l),
(46,760,l),
(46,0,l)
);
},
{
closed = 1;
nodes = (
(539,287,l),
(539,487,l),
(234,487,l),
(234,287,l)
);
}
);
};
layerId = "7F4E18E3-41A5-4521-AA8A-AE39B7B68B38";
shapes = (
{
closed = 1;
nodes = (
(276,0,l),
(276,760,l),
(46,760,l),
(46,0,l)
);
},
{
closed = 1;
nodes = (
(565,290,l),
(565,475,l),
(71,475,l),
(71,290,l)
);
},
{
closed = 1;
nodes = (
(619,570,l),
(619,760,l),
(71,760,l),
(71,570,l)
);
},
{
closed = 1;
nodes = (
(628,0,l),
(628,190,l),
(71,190,l),
(71,0,l)
);
}
);
width = 674;
},
{
anchors = (
{
name = bottom;
pos = (301,0);
},
{
name = ogonek;
pos = (522,0);
},
{
name = top;
pos = (301,760);
},
{
name = topleft;
pos = (20,760);
}
);
associatedMasterId = m01;
guides = (
{
angle = 90;
pos = (542,24);
}
);
layerId = "C497D534-9F88-4427-861E-16C7A2FB308B";
name = "30 Nov 24 at 10:15";
shapes = (
{
closed = 1;
nodes = (
(133,0,l),
(133,760,l),
(80,760,l),
(80,0,l)
);
},
{
closed = 1;
nodes = (
(459,377,l),
(459,425,l),
(105,425,l),
(105,377,l)
);
},
{
closed = 1;
nodes = (
(533,712,l),
(533,760,l),
(105,760,l),
(105,712,l)
);
},
{
closed = 1;
nodes = (
(542,0,l),
(542,48,l),
(105,48,l),
(105,0,l)
);
}
);
width = 622;
},
{
anchors = (
{
name = bottom;
pos = (301,0);
},
{
name = ogonek;
pos = (562,0);
},
{
name = top;
pos = (301,760);
},
{
name = topleft;
pos = (20,760);
}
);
associatedMasterId = "7F4E18E3-41A5-4521-AA8A-AE39B7B68B38";
layerId = "AB6A5B21-9681-49FB-8177-AB07342FE70D";
name = "30 Nov 24 at 10:35";
shapes = (
{
closed = 1;
nodes = (
(270,0,l),
(270,760,l),
(40,760,l),
(40,0,l)
);
},
{
closed = 1;
nodes = (
(519,298,l),
(519,468,l),
(65,468,l),
(65,298,l)
);
},
{
closed = 1;
nodes = (
(573,590,l),
(573,760,l),
(65,760,l),
(65,590,l)
);
},
{
closed = 1;
nodes = (
(582,0,l),
(582,170,l),
(65,170,l),
(65,0,l)
);
}
);
width = 622;
}
);
metricLeft = H;
metricRight = H;
unicode = 69;
},
{
color = 8;
glyphname = F;
lastChange = "2024-12-04 12:16:54 +0000";
layers = (
{
layerId = m01;
shapes = (
{
closed = 1;
nodes = (
(145,0,l),
(145,760,l),
(92,760,l),
(92,0,l)
);
},
{
closed = 1;
nodes = (
(481,363,l),
(481,413,l),
(117,413,l),
(117,363,l)
);
},
{
closed = 1;
nodes = (
(545,710,l),
(545,760,l),
(117,760,l),
(117,710,l)
);
}
);
width = 637;
},
{
layerId = "7F4E18E3-41A5-4521-AA8A-AE39B7B68B38";
shapes = (
{
closed = 1;
nodes = (
(276,0,l),
(276,760,l),
(46,760,l),
(46,0,l)
);
},
{
closed = 1;
nodes = (
(565,263,l),
(565,448,l),
(71,448,l),
(71,263,l)
);
},
{
closed = 1;
nodes = (
(619,570,l),
(619,760,l),
(71,760,l),
(71,570,l)
);
}
);
width = 665;
},
{
associatedMasterId = m01;
layerId = "1D28FEFF-12ED-4901-9673-E80879C5EC5A";
name = "30 Nov 24 at 10:35";
shapes = (
{
closed = 1;
nodes = (
(133,0,l),
(133,760,l),
(80,760,l),
(80,0,l)
);
},
{
closed = 1;
nodes = (
(469,367,l),
(469,415,l),
(105,415,l),
(105,367,l)
);
},
{
closed = 1;
nodes = (
(533,712,l),
(533,760,l),
(105,760,l),
(105,712,l)
);
}
);
width = 613;
},
{
associatedMasterId = "7F4E18E3-41A5-4521-AA8A-AE39B7B68B38";
layerId = "F6E7E1A1-8079-4041-B35A-F262C1BB2A8B";
name = "30 Nov 24 at 10:35";
shapes = (
{
closed = 1;
nodes = (
(270,0,l),
(270,760,l),
(40,760,l),
(40,0,l)
);
},
{
closed = 1;
nodes = (
(519,278,l),
(519,448,l),
(65,448,l),
(65,278,l)
);
},
{
closed = 1;
nodes = (
(573,590,l),
(573,760,l),
(65,760,l),
(65,590,l)
);
}
);
width = 613;
}
);
metricLeft = "=H";
metricRight = "=E";
unicode = 70;
},
{
color = 8;
glyphname = G;
lastChange = "2024-12-04 12:16:54 +0000";
layers = (
{
anchors = (
{
name = bottom;
pos = (452,0);
},
{
name = top;
pos = (452,760);
}
);
background = {
shapes = (
{
closed = 1;
nodes = (
(630,-16,o),
(776,135,o),
(776,350,cs),
(776,565,o),
(630,716,o),
(423,716,cs),
(216,716,o),
(70,565,o),
(70,350,cs),
(70,135,o),
(216,-16,o),
(423,-16,cs)
);
},
{
closed = 1;
nodes = (
(248,34,o),
(125,164,o),
(125,350,cs),
(125,536,o),
(248,666,o),
(423,666,cs),
(598,666,o),
(721,536,o),
(721,350,cs),
(721,164,o),
(598,34,o),
(423,34,cs)
);
}
);
};
layerId = m01;
shapes = (
{
closed = 1;
nodes = (
(594,-16,o),
(717,52,o),
(749,148,c),
(778,148,l),
(778,371,l),
(749,371,l),
(749,306,l),
(749,139,o),
(634,34,o),
(452,34,cs),
(260,34,o),
(125,177,o),
(125,380,cs),
(125,583,o),
(260,726,o),
(452,726,cs),
(583,726,o),
(687,650,o),
(703,542,c),
(756,542,l),
(739,679,o),
(613,776,o),
(452,776,cs),
(228,776,o),
(70,613,o),
(70,380,cs),
(70,147,o),
(228,-16,o),
(452,-16,cs)
);
},
{
closed = 1;
nodes = (
(802,0,l),
(802,388,l),
(506,388,l),
(506,338,l),
(749,338,l),
(749,148,l),
(749,0,l)
);
}
);
width = 894;
},
{
anchors = (
{
name = bottom;
pos = (438,0);
},
{
name = top;
pos = (438,760);
}
);
layerId = "7F4E18E3-41A5-4521-AA8A-AE39B7B68B38";
shapes = (
{
closed = 1;
nodes = (
(536,-16,o),
(615,16,o),
(659,73,c),
(720,73,l),
(720,360,l),
(639,360,l),
(639,283,l),
(631,225,o),
(561,184,o),
(469,184,cs),
(341,184,o),
(270,254,o),
(270,380,cs),
(270,500,o),
(335,576,o),
(438,576,cs),
(502,576,o),
(545,548,o),
(559,499,c),
(789,499,l),
(776,669,o),
(641,776,o),
(438,776,cs),
(201,776,o),
(35,613,o),
(35,380,cs),
(35,147,o),
(201,-16,o),
(438,-16,cs)
);
},
{
closed = 1;
nodes = (
(838,0,l),
(838,443,l),
(444,443,l),
(444,283,l),
(659,283,l),
(659,73,l),
(726,0,l)
);
}
);
width = 884;
},
{
associatedMasterId = m01;
backgroundImage = {
imagePath = "/var/folders/5k/6t5s5z6x64zbq6w952rby05w0000gn/T/TemporaryItems/NSIRD_screencaptureui_qhIZL0/Screenshot 2024-11-20 at 1.40.06 pm.png";
locked = 1;
pos = (16,-160);
scale = (4.6155,4.6155);
};
layerId = "522354C9-46FB-4E3F-AE08-DF8C6738DB28";
name = "20 Nov 24 at 13:45";
shapes = (
{
closed = 1;
nodes = (
(453,349,l),
(453,302,l),
(650,302,l),
(650,0,l),
(704,0,l),
(704,349,l)
);
},
{
closed = 1;
nodes = (
(236,34,o),
(105,173,o),
(105,350,cs),
(105,527,o),
(236,666,o),
(403,666,cs),
(527,666,o),
(614,597,o),
(614,500,c),
(669,500,l),
(669,627,o),
(559,716,o),
(403,716,cs),
(196,716,o),
(50,565,o),
(50,350,cs),
(50,135,o),
(196,-16,o),
(403,-16,cs),
(535,-16,o),
(603,26,o),
(646,121,c),
(676,121,l),
(676,300,l),
(650,300,l),
(650,137,o),
(562,34,o),
(403,34,cs)
);
}
);
width = 734;
},
{
associatedMasterId = m01;
layerId = "2196F18B-6AA2-4B4C-AA95-822895F1A82E";
name = "20 Nov 24 at 14:11";
shapes = (
{
closed = 1;
nodes = (
(453,349,l),
(453,302,l),
(650,302,l),
(650,0,l),
(704,0,l),
(704,349,l)
);
},
{
closed = 1;
nodes = (
(236,34,o),
(105,173,o),
(105,350,cs),
(105,527,o),
(236,666,o),
(403,666,cs),
(527,666,o),
(624,593,o),
(624,500,c),
(679,500,l),
(679,621,o),
(558,716,o),
(403,716,cs),
(196,716,o),
(50,565,o),
(50,350,cs),
(50,135,o),
(196,-16,o),
(403,-16,cs),
(519,-16,o),
(606,33,o),
(646,121,c),
(676,121,l),
(676,300,l),
(650,300,l),
(650,129,o),
(561,34,o),
(403,34,cs)
);
}
);
width = 754;
},
{
associatedMasterId = "7F4E18E3-41A5-4521-AA8A-AE39B7B68B38";
layerId = "8CE768A2-3A0D-48A1-A727-C2DA497E0DB1";
name = "25 Nov 24 at 20:43";
shapes = (
{
closed = 1;
nodes = (
(431,399,l),
(431,262,l),
(594,262,l),
(594,48,l),
(641,0,l),
(768,0,l),
(768,399,l)
);
},
{
closed = 1;
nodes = (
(325,164,o),
(260,241,o),
(260,350,cs),
(260,459,o),
(317,536,o),
(398,536,cs),
(457,536,o),
(499,505,o),
(499,460,c),
(734,460,l),
(734,610,o),
(595,716,o),
(398,716,cs),
(169,716,o),
(25,575,o),
(25,350,cs),
(25,125,o),
(169,-16,o),
(398,-16,cs),
(475,-16,o),
(545,7,o),
(594,48,c),
(650,48,l),
(650,262,l),
(574,262,l),
(556,196,o),
(504,164,o),
(417,164,cs)
);
}
);
width = 793;
},
{
associatedMasterId = m01;
background = {
shapes = (
{
closed = 1;
nodes = (
(610,-16,o),
(756,135,o),
(756,350,cs),
(756,565,o),
(610,716,o),
(403,716,cs),
(196,716,o),
(50,565,o),
(50,350,cs),
(50,135,o),
(196,-16,o),
(403,-16,cs)
);
},
{
closed = 1;
nodes = (
(228,34,o),
(105,164,o),
(105,350,cs),
(105,536,o),
(228,666,o),
(403,666,cs),
(578,666,o),
(701,536,o),
(701,350,cs),
(701,164,o),
(578,34,o),
(403,34,cs)
);
}
);
};
layerId = "1465B157-22F3-468A-B09E-D9E6D291C719";
name = "26 Nov 24 at 09:25";
shapes = (
{
closed = 1;
nodes = (
(563,-16,o),
(677,52,o),
(709,148,c),
(738,148,l),
(738,306,l),
(709,306,l),
(709,145,o),
(602,34,o),
(432,34,cs),
(240,34,o),
(105,177,o),
(105,380,cs),
(105,583,o),
(240,726,o),
(432,726,cs),
(570,726,o),
(678,645,o),
(678,542,c),
(731,542,l),
(731,673,o),
(599,776,o),
(432,776,cs),
(208,776,o),
(50,613,o),
(50,380,cs),
(50,147,o),
(208,-16,o),
(432,-16,cs)
);
},
{
closed = 1;
nodes = (
(763,0,l),
(763,386,l),
(496,386,l),
(496,338,l),
(709,338,l),
(709,148,l),
(709,0,l)
);
}
);
width = 843;
},
{
associatedMasterId = "7F4E18E3-41A5-4521-AA8A-AE39B7B68B38";
layerId = "FC4FC2EF-80E2-48FD-862F-92F5C0E51A34";
name = "27 Nov 24 at 16:11";
shapes = (
{
closed = 1;
nodes = (
(514,-16,o),
(586,12,o),
(629,63,c),
(690,63,l),
(690,305,l),
(629,305,l),
(629,222,o),
(559,164,o),
(459,164,cs),
(337,164,o),
(260,247,o),
(260,380,cs),
(260,513,o),
(325,596,o),
(428,596,cs),
(493,596,o),
(539,559,o),
(549,499,c),
(779,499,l),
(769,669,o),
(633,776,o),
(428,776,cs),
(191,776,o),
(25,613,o),
(25,380,cs),
(25,147,o),
(191,-16,o),
(428,-16,cs)
);
},
{
closed = 1;
nodes = (
(828,0,l),
(828,443,l),
(434,443,l),
(434,283,l),
(629,283,l),
(629,63,l),
(696,0,l)
);
}
);
width = 868;
},
{
anchors = (
{
name = bottom;
pos = (428,0);
},
{
name = top;
pos = (428,760);
}
);
associatedMasterId = "7F4E18E3-41A5-4521-AA8A-AE39B7B68B38";
layerId = "8628596E-1843-4DA2-BB0B-0CFC0159F731";
name = "30 Nov 24 at 10:36";
shapes = (
{
closed = 1;
nodes = (
(526,-16,o),
(605,16,o),
(649,73,c),
(710,73,l),
(710,283,l),
(649,283,l),
(638,207,o),
(570,164,o),
(459,164,cs),
(337,164,o),
(260,247,o),
(260,380,cs),
(260,513,o),
(325,596,o),
(428,596,cs),
(493,596,o),
(539,559,o),
(549,499,c),
(779,499,l),
(769,669,o),
(633,776,o),
(428,776,cs),
(191,776,o),
(25,613,o),
(25,380,cs),
(25,147,o),
(191,-16,o),
(428,-16,cs)
);
},
{
closed = 1;
nodes = (
(828,0,l),
(828,443,l),
(434,443,l),
(434,283,l),
(649,283,l),
(649,73,l),
(716,0,l)
);
}
);
width = 868;
},
{
anchors = (
{
name = bottom;
pos = (432,0);
},
{
name = top;
pos = (432,760);
}
);
associatedMasterId = m01;
background = {
shapes = (
{
closed = 1;
nodes = (
(610,-16,o),
(756,135,o),
(756,350,cs),
(756,565,o),
(610,716,o),
(403,716,cs),
(196,716,o),
(50,565,o),
(50,350,cs),
(50,135,o),
(196,-16,o),
(403,-16,cs)
);
},
{
closed = 1;
nodes = (
(228,34,o),
(105,164,o),
(105,350,cs),
(105,536,o),
(228,666,o),
(403,666,cs),
(578,666,o),
(701,536,o),
(701,350,cs),
(701,164,o),
(578,34,o),
(403,34,cs)
);
}
);
};
layerId = "5F2CB1CA-12D8-4289-8B64-2C78CB751DF2";
name = "30 Nov 24 at 10:38";
shapes = (
{
closed = 1;
nodes = (
(574,-16,o),
(697,52,o),
(729,148,c),
(758,148,l),
(758,306,l),
(729,306,l),
(729,139,o),
(614,34,o),
(432,34,cs),
(240,34,o),
(105,177,o),
(105,380,cs),
(105,583,o),
(240,726,o),
(432,726,cs),
(576,726,o),
(673,655,o),
(683,542,c),
(736,542,l),
(726,679,o),
(600,776,o),
(432,776,cs),
(208,776,o),
(50,613,o),
(50,380,cs),
(50,147,o),
(208,-16,o),
(432,-16,cs)
);
},
{
closed = 1;
nodes = (
(783,0,l),
(783,386,l),
(486,386,l),
(486,338,l),
(729,338,l),
(729,148,l),
(729,0,l)
);
}
);
width = 863;
},
{
anchors = (
{
name = bottom;
pos = (432,0);
},
{
name = top;
pos = (432,760);
}
);
associatedMasterId = m01;
background = {
shapes = (
{
closed = 1;
nodes = (
(610,-16,o),
(756,135,o),
(756,350,cs),
(756,565,o),
(610,716,o),
(403,716,cs),
(196,716,o),
(50,565,o),
(50,350,cs),
(50,135,o),
(196,-16,o),
(403,-16,cs)
);
},
{
closed = 1;
nodes = (
(228,34,o),
(105,164,o),
(105,350,cs),
(105,536,o),
(228,666,o),
(403,666,cs),
(578,666,o),
(701,536,o),
(701,350,cs),
(701,164,o),
(578,34,o),
(403,34,cs)
);
}
);
};
layerId = "2394F626-0842-4F68-84B5-E02A8BD9F058";
name = "2 Dec 24 at 11:46";
shapes = (
{
closed = 1;
nodes = (
(574,-16,o),
(697,52,o),
(729,148,c),
(758,148,l),
(758,371,l),
(729,371,l),
(729,306,l),
(729,139,o),
(614,34,o),
(432,34,cs),
(240,34,o),
(105,177,o),
(105,380,cs),
(105,583,o),
(240,726,o),
(432,726,cs),
(576,726,o),
(673,655,o),
(683,542,c),
(736,542,l),
(726,679,o),
(600,776,o),
(432,776,cs),
(208,776,o),
(50,613,o),
(50,380,cs),
(50,147,o),
(208,-16,o),
(432,-16,cs)
);
},
{
closed = 1;
nodes = (
(782,0,l),
(782,388,l),
(486,388,l),
(486,338,l),
(729,338,l),
(729,148,l),
(729,0,l)
);
}
);
width = 862;
}
);
metricLeft = "=O";
metricRight = "=H";
unicode = 71;
},
{
color = 8;
glyphname = H;
lastChange = "2024-12-05 04:39:54 +0000";
layers = (
{
layerId = m01;
shapes = (
{
closed = 1;
nodes = (
(651,0,l),
(651,760,l),
(598,760,l),
(598,0,l)
);
},
{
closed = 1;
nodes = (
(145,0,l),
(145,760,l),
(92,760,l),
(92,0,l)
);
},
{
closed = 1;
nodes = (
(625,377,l),
(625,427,l),
(117,427,l),
(117,377,l)
);
}
);
width = 743;
},
{
layerId = "7F4E18E3-41A5-4521-AA8A-AE39B7B68B38";
shapes = (
{
closed = 1;
nodes = (
(746,0,l),
(746,760,l),
(516,760,l),
(516,0,l)
);
},
{
closed = 1;
nodes = (
(276,0,l),
(276,760,l),
(46,760,l),
(46,0,l)
);
},
{
closed = 1;
nodes = (
(559,280,l),
(559,490,l),
(234,490,l),
(234,280,l)
);
}
);
width = 792;
},
{
associatedMasterId = m01;
layerId = "7250BF6A-9EE0-4CEA-8A6C-13A8281C3F71";
name = "25 Nov 24 at 09:38";
shapes = (
{
closed = 1;
nodes = (
(569,0,l),
(569,700,l),
(516,700,l),
(516,0,l)
);
},
{
closed = 1;
nodes = (
(133,0,l),
(133,700,l),
(80,700,l),
(80,0,l)
);
},
{
closed = 1;
nodes = (
(543,347,l),
(543,395,l),
(105,395,l),
(105,347,l)
);
}
);
width = 649;
},
{
associatedMasterId = "7F4E18E3-41A5-4521-AA8A-AE39B7B68B38";
layerId = "D9B8A6BF-2130-4DFC-B05E-244660DA09E8";
name = "25 Nov 24 at 11:39";
shapes = (
{
closed = 1;
nodes = (
(710,0,l),
(710,700,l),
(477,700,l),
(477,0,l)
);
},
{
closed = 1;
nodes = (
(273,0,l),
(273,700,l),
(40,700,l),
(40,0,l)
);
},
{
closed = 1;
nodes = (
(543,275,l),
(543,445,l),
(228,445,l),
(228,275,l)
);
}
);
width = 750;
}
);
unicode = 72;
},
{
glyphname = Hbar;
lastChange = "2024-12-05 04:58:26 +0000";
layers = (
{
layerId = m01;
shapes = (
{
pos = (743,0);
ref = H;
scale = (-1,1);
},
{
closed = 1;
nodes = (
(738,594,l),
(6,594,l),
(6,550,l),
(738,550,l)
);
}
);
width = 743;
},
{
layerId = "7F4E18E3-41A5-4521-AA8A-AE39B7B68B38";
shapes = (
{
pos = (792,0);
ref = H;
scale = (-1,1);
},
{
closed = 1;
nodes = (
(830,663,l),
(-38,663,l),
(-38,558,l),
(830,558,l)
);
}
);
width = 792;
}
);
metricLeft = "=H@100";
metricRight = "=H@100";
unicode = 294;
},
{
color = 8;
glyphname = I;
lastChange = "2024-12-04 12:16:54 +0000";
layers = (
{
anchors = (
{
name = bottom;
pos = (119,0);
},
{
name = ogonek;
pos = (145,0);
},
{
name = top;
pos = (119,760);
},
{
name = topleft;
pos = (-56,760);
}
);
layerId = m01;
shapes = (
{
closed = 1;
nodes = (
(145,0,l),
(145,760,l),
(92,760,l),
(92,0,l)
);
}
);
width = 237;
},
{
anchors = (
{
name = bottom;
pos = (161,0);
},
{
name = ogonek;
pos = (276,0);
},
{
name = top;
pos = (161,760);
},
{
name = topleft;
pos = (-50,760);
}
);
layerId = "7F4E18E3-41A5-4521-AA8A-AE39B7B68B38";
shapes = (
{
closed = 1;
nodes = (
(276,0,l),
(276,760,l),
(46,760,l),
(46,0,l)
);
}
);
width = 322;
},
{
anchors = (
{
name = bottom;
pos = (231,0);
},
{
name = ogonek;
pos = (422,0);
},
{
name = top;
pos = (231,760);
},
{
name = topleft;
pos = (20,760);
}
);
associatedMasterId = "7F4E18E3-41A5-4521-AA8A-AE39B7B68B38";
layerId = "13E728F8-D2FD-4C57-8DA0-6B583E8AAC16";
name = "30 Nov 24 at 10:52";
shapes = (
{
closed = 1;
nodes = (
(346,0,l),
(346,760,l),
(116,760,l),
(116,0,l)
);
},
{
closed = 1;
nodes = (
(422,570,l),
(422,760,l),
(40,760,l),
(40,570,l)
);
},
{
closed = 1;
nodes = (
(422,0,l),
(422,190,l),
(40,190,l),
(40,0,l)
);
}
);
width = 462;
},
{
anchors = (
{
name = bottom;
pos = (195,0);
},
{
name = ogonek;
pos = (309,0);
},
{
name = top;
pos = (195,760);
},
{
name = topleft;
pos = (20,760);
}
);
associatedMasterId = m01;
layerId = "8FA846D4-0A26-454A-B585-A966E5113708";
name = "30 Nov 24 at 10:52";
shapes = (
{
closed = 1;
nodes = (
(221,0,l),
(221,760,l),
(168,760,l),
(168,0,l)
);
},
{
closed = 1;
nodes = (
(309,710,l),
(309,760,l),
(80,760,l),
(80,710,l)
);
},
{
closed = 1;
nodes = (
(309,0,l),
(309,50,l),
(80,50,l),
(80,0,l)
);
}
);
width = 389;
}
);
metricLeft = "=H";
metricRight = "=H";
unicode = 73;
},
{
color = 8;
glyphname = J;
lastChange = "2024-12-04 12:16:54 +0000";
layers = (
{
layerId = m01;
shapes = (
{
closed = 1;
nodes = (
(496,-16,o),
(576,81,o),
(576,276,cs),
(576,760,l),
(523,760,l),
(523,276,ls),
(523,108,o),
(465,34,o),
(334,34,cs),
(203,34,o),
(145,108,o),
(145,276,cs),
(145,361,l),
(92,361,l),
(92,276,ls),
(92,81,o),
(172,-16,o),
(334,-16,cs)
);
}
);
width = 668;
},
{
background = {
shapes = (
{
closed = 1;
nodes = (
(621,-16,o),
(787,147,o),
(787,380,cs),
(787,613,o),
(621,776,o),
(384,776,cs),
(147,776,o),
(-19,613,o),
(-19,380,cs),
(-19,147,o),
(147,-16,o),
(384,-16,cs)
);
},
{
closed = 1;
nodes = (
(281,184,o),
(216,260,o),
(216,380,cs),
(216,500,o),
(281,576,o),
(384,576,cs),
(487,576,o),
(552,500,o),
(552,380,cs),
(552,260,o),
(487,184,o),
(384,184,cs)
);
}
);
};
layerId = "7F4E18E3-41A5-4521-AA8A-AE39B7B68B38";
shapes = (
{
closed = 1;
nodes = (
(619,-16,o),
(722,98,o),
(722,360,c),
(722,760,l),
(487,760,l),
(487,340,ls),
(487,227,o),
(458,184,o),
(384,184,cs),
(310,184,o),
(281,227,o),
(281,340,cs),
(281,421,l),
(46,421,l),
(46,360,l),
(46,98,o),
(149,-16,o),
(384,-16,cs)
);
}
);
width = 768;
},
{
associatedMasterId = "7F4E18E3-41A5-4521-AA8A-AE39B7B68B38";
layerId = "26C26F77-4DE0-43AD-964F-ECDFAB12E932";
name = "30 Nov 24 at 11:20";
shapes = (
{
closed = 1;
nodes = (
(589,-16,o),
(677,94,o),
(677,380,c),
(677,760,l),
(442,760,l),
(442,360,ls),
(442,228,o),
(421,184,o),
(359,184,cs),
(298,184,o),
(276,233,o),
(270,380,c),
(40,380,l),
(50,94,o),
(138,-16,o),
(359,-16,cs)
);
}
);
width = 717;
}
);
metricLeft = "=H";
metricRight = "=H";
unicode = 74;
},
{
color = 8;
glyphname = K;
lastChange = "2024-12-04 12:16:54 +0000";
layers = (
{
anchors = (
{
name = bottom;
pos = (328,0);
},
{
name = top;
pos = (328,760);
}
);
layerId = m01;
shapes = (
{
closed = 1;
nodes = (
(145,0,l),
(145,760,l),
(92,760,l),
(92,0,l)
);
},
{
closed = 1;
nodes = (
(584,760,l),
(522,760,l),
(104,254,l),
(110,188,l)
);
},
{
closed = 1;
nodes = (
(283,429,l),
(572,0,l),
(634,0,l),
(323,461,l)
);
}
);
width = 644;
},
{
anchors = (
{
name = bottom;
pos = (426,0);
},
{
name = top;
pos = (426,760);
}
);
layerId = "7F4E18E3-41A5-4521-AA8A-AE39B7B68B38";
shapes = (
{
closed = 1;
nodes = (
(276,0,l),
(276,760,l),
(46,760,l),
(46,0,l)
);
},
{
closed = 1;
nodes = (
(823,760,l),
(547,760,l),
(68,254,l),
(227,130,l)
);
},
{
closed = 1;
nodes = (
(293,429,l),
(568,0,l),
(835,0,l),
(493,518,l)
);
}
);
width = 845;
},
{
associatedMasterId = m01;
layerId = "D6F75E61-F7C0-4D02-8666-6CFD73826E62";
name = "30 Nov 24 at 16:54";
shapes = (
{
closed = 1;
nodes = (
(133,0,l),
(133,760,l),
(80,760,l),
(80,0,l)
);
},
{
closed = 1;
nodes = (
(572,760,l),
(513,760,l),
(95,254,l),
(98,188,l)
);
},
{
closed = 1;
nodes = (
(271,429,l),
(560,0,l),
(622,0,l),
(311,461,l)
);
}
);
width = 632;
}
);
metricLeft = H;
metricRight = "=R";
unicode = 75;
},
{
color = 8;
glyphname = L;
lastChange = "2024-12-04 12:16:54 +0000";
layers = (
{
anchors = (
{
name = bottom;
pos = (313,0);
},
{
name = center;
pos = (313,380);
},
{
name = top;
pos = (123,760);
},
{
name = topright;
pos = (185,760);
}
);
layerId = m01;
shapes = (
{
closed = 1;
nodes = (
(145,0,l),
(145,760,l),
(92,760,l),
(92,0,l)
);
},
{
closed = 1;
nodes = (
(545,0,l),
(545,50,l),
(117,50,l),
(117,0,l)
);
}
);
width = 637;
},
{
anchors = (
{
name = bottom;
pos = (297,0);
},
{
name = center;
pos = (297,380);
},
{
name = top;
pos = (161,760);
},
{
name = topright;
pos = (306,760);
}
);
layerId = "7F4E18E3-41A5-4521-AA8A-AE39B7B68B38";
shapes = (
{
closed = 1;
nodes = (
(276,0,l),
(276,760,l),
(46,760,l),
(46,0,l)
);
},
{
closed = 1;
nodes = (
(596,0,l),
(596,190,l),
(71,190,l),
(71,0,l)
);
}
);
width = 642;
},
{
anchors = (
{
name = bottom;
pos = (291,0);
},
{
name = center;
pos = (291,380);
},
{
name = top;
pos = (155,760);
},
{
name = topright;
pos = (300,760);
}
);
associatedMasterId = "7F4E18E3-41A5-4521-AA8A-AE39B7B68B38";
layerId = "1DFF62EA-AE1F-49D4-810A-2CE395C32E32";
name = "30 Nov 24 at 10:53";
shapes = (
{
closed = 1;
nodes = (
(270,0,l),
(270,760,l),
(40,760,l),
(40,0,l)
);
},
{
closed = 1;
nodes = (
(541,0,l),
(541,170,l),
(65,170,l),
(65,0,l)
);
}
);
width = 581;
},
{
anchors = (
{
name = bottom;
pos = (301,0);
},
{
name = center;
pos = (301,380);
},
{
name = top;
pos = (111,760);
},
{
name = topright;
pos = (173,760);
}
);
associatedMasterId = m01;
layerId = "299B67CD-B6DA-47E0-A7F5-47F07F66B96A";
name = "30 Nov 24 at 10:53";
shapes = (
{
closed = 1;
nodes = (
(133,0,l),
(133,760,l),
(80,760,l),
(80,0,l)
);
},
{
closed = 1;
nodes = (
(522,0,l),
(522,48,l),
(105,48,l),
(105,0,l)
);
}
);
width = 602;
}
);
metricLeft = "=H";
metricRight = "=H";
unicode = 76;
},
{
glyphname = Lslash;
lastChange = "2024-12-05 04:59:43 +0000";
layers = (
{
layerId = m01;
shapes = (
{
ref = L;
},
{
closed = 1;
nodes = (
(355,550,l),
(9,420,l),
(9,374,l),
(355,504,l)
);
}
);
width = 637;
},
{
layerId = "7F4E18E3-41A5-4521-AA8A-AE39B7B68B38";
shapes = (
{
ref = L;
},
{
closed = 1;
nodes = (
(407,580,l),
(-12,424,l),
(-12,310,l),
(407,466,l)
);
}
);
width = 642;
}
);
metricLeft = "=L@100";
metricRight = "=L";
unicode = 321;
},
{
color = 8;
glyphname = M;
lastChange = "2024-12-04 12:18:16 +0000";
layers = (
{
anchors = (
{
name = bottom;
pos = (460,0);
},
{
name = top;
pos = (460,760);
}
);
layerId = m01;
shapes = (
{
closed = 1;
nodes = (
(145,0,l),
(145,713,l),
(114,713,l),
(453,-16,l),
(467,-16,l),
(806,713,l),
(775,713,l),
(775,0,l),
(828,0,l),
(828,760,l),
(773,760,l),
(441,47,l),
(479,47,l),
(147,760,l),
(92,760,l),
(92,0,l)
);
}
);
width = 920;
},
{
anchors = (
{
name = bottom;
pos = (481,0);
},
{
name = top;
pos = (486,760);
}
);
background = {
shapes = (
{
closed = 1;
nodes = (
(722,-16,o),
(888,147,o),
(888,380,cs),
(888,613,o),
(722,776,o),
(485,776,cs),
(248,776,o),
(82,613,o),
(82,380,cs),
(82,147,o),
(248,-16,o),
(485,-16,cs)
);
},
{
closed = 1;
nodes = (
(382,184,o),
(317,260,o),
(317,380,cs),
(317,500,o),
(382,576,o),
(485,576,cs),
(588,576,o),
(653,500,o),
(653,380,cs),
(653,260,o),
(588,184,o),
(485,184,cs)
);
}
);
};
guides = (
{
angle = 90;
pos = (486,528);
}
);
layerId = "7F4E18E3-41A5-4521-AA8A-AE39B7B68B38";
shapes = (
{
closed = 1;
nodes = (
(271,0,l),
(271,713,l),
(150,713,l),
(434,0,l),
(527,0,l),
(811,713,l),
(690,713,l),
(690,0,l),
(925,0,l),
(925,760,l),
(637,760,l),
(471,346,l),
(500,346,l),
(334,760,l),
(46,760,l),
(46,0,l)
);
}
);
width = 971;
},
{
associatedMasterId = "7F4E18E3-41A5-4521-AA8A-AE39B7B68B38";
layerId = "F1D51CA9-9E0D-4C62-8E06-C24721212893";
name = "30 Nov 24 at 11:34";
shapes = (
{
closed = 1;
nodes = (
(270,0,l),
(270,713,l),
(134,713,l),
(436,0,l),
(575,0,l),
(877,713,l),
(741,713,l),
(741,0,l),
(971,0,l),
(971,760,l),
(657,760,l),
(477,336,l),
(534,336,l),
(354,760,l),
(40,760,l),
(40,0,l)
);
}
);
width = 1011;
},
{
associatedMasterId = "7F4E18E3-41A5-4521-AA8A-AE39B7B68B38";
layerId = "E68A2920-DC43-4E5C-9E94-A7893EDCCCC4";
name = "30 Nov 24 at 11:37";
shapes = (
{
closed = 1;
nodes = (
(270,0,l),
(270,713,l),
(144,713,l),
(436,0,l),
(575,0,l),
(867,713,l),
(741,713,l),
(741,0,l),
(971,0,l),
(971,760,l),
(657,760,l),
(487,336,l),
(524,336,l),
(354,760,l),
(40,760,l),
(40,0,l)
);
}
);
width = 1011;
},
{
anchors = (
{
name = bottom;
pos = (470,0);
},
{
name = top;
pos = (470,760);
}
);
associatedMasterId = "7F4E18E3-41A5-4521-AA8A-AE39B7B68B38";
background = {
shapes = (
{
closed = 1;
nodes = (
(706,-16,o),
(872,147,o),
(872,380,cs),
(872,613,o),
(706,776,o),
(469,776,cs),
(232,776,o),
(66,613,o),
(66,380,cs),
(66,147,o),
(232,-16,o),
(469,-16,cs)
);
},
{
closed = 1;
nodes = (
(366,184,o),
(301,260,o),
(301,380,cs),
(301,500,o),
(366,576,o),
(469,576,cs),
(572,576,o),
(637,500,o),
(637,380,cs),
(637,260,o),
(572,184,o),
(469,184,cs)
);
}
);
};
layerId = "ADED8529-5F11-4CAF-8AA1-11D8AAFFB02B";
name = "30 Nov 24 at 12:35";
shapes = (
{
closed = 1;
nodes = (
(260,0,l),
(260,713,l),
(109,713,l),
(421,0,l),
(518,0,l),
(830,713,l),
(679,713,l),
(679,0,l),
(909,0,l),
(909,760,l),
(625,760,l),
(440,336,l),
(499,336,l),
(314,760,l),
(40,760,l),
(40,0,l)
);
}
);
width = 949;
},
{
anchors = (
{
name = bottom;
pos = (490,0);
},
{
name = top;
pos = (490,760);
}
);
associatedMasterId = "7F4E18E3-41A5-4521-AA8A-AE39B7B68B38";
background = {
shapes = (
{
closed = 1;
nodes = (
(726,-16,o),
(892,147,o),
(892,380,cs),
(892,613,o),
(726,776,o),
(489,776,cs),
(252,776,o),
(86,613,o),
(86,380,cs),
(86,147,o),
(252,-16,o),
(489,-16,cs)
);
},
{
closed = 1;
nodes = (
(386,184,o),
(321,260,o),
(321,380,cs),
(321,500,o),
(386,576,o),
(489,576,cs),
(592,576,o),
(657,500,o),
(657,380,cs),
(657,260,o),
(592,184,o),
(489,184,cs)
);
}
);
};
layerId = "1C1A97AF-850C-4330-9ACD-621A105770CD";
name = "30 Nov 24 at 12:36";
shapes = (
{
closed = 1;
nodes = (
(260,0,l),
(260,713,l),
(109,713,l),
(441,0,l),
(538,0,l),
(870,713,l),
(719,713,l),
(719,0,l),
(949,0,l),
(949,760,l),
(665,760,l),
(460,336,l),
(519,336,l),
(314,760,l),
(40,760,l),
(40,0,l)
);
}
);
width = 989;
},
{
anchors = (
{
name = bottom;
pos = (418,0);
},
{
name = top;
pos = (418,760);
}
);
associatedMasterId = m01;
layerId = "716169EF-116E-48F9-8976-96778B88A8B7";
name = "30 Nov 24 at 12:44";
shapes = (
{
closed = 1;
nodes = (
(133,0,l),
(133,713,l),
(102,713,l),
(411,-16,l),
(425,-16,l),
(734,713,l),
(703,713,l),
(703,0,l),
(756,0,l),
(756,760,l),
(700,760,l),
(397,47,l),
(439,47,l),
(136,760,l),
(80,760,l),
(80,0,l)
);
}
);
width = 836;
},
{
anchors = (
{
name = bottom;
pos = (500,0);
},
{
name = top;
pos = (500,760);
}
);
associatedMasterId = "7F4E18E3-41A5-4521-AA8A-AE39B7B68B38";
background = {
shapes = (
{
closed = 1;
nodes = (
(736,-16,o),
(902,147,o),
(902,380,cs),
(902,613,o),
(736,776,o),
(499,776,cs),
(262,776,o),
(96,613,o),
(96,380,cs),
(96,147,o),
(262,-16,o),
(499,-16,cs)
);
},
{
closed = 1;
nodes = (
(396,184,o),
(331,260,o),
(331,380,cs),
(331,500,o),
(396,576,o),
(499,576,cs),
(602,576,o),
(667,500,o),
(667,380,cs),
(667,260,o),
(602,184,o),
(499,184,cs)
);
}
);
};
layerId = "FA7F735F-358B-47FF-85FE-39A4516F7449";
name = "2 Dec 24 at 11:52";
shapes = (
{
closed = 1;
nodes = (
(270,0,l),
(270,713,l),
(124,713,l),
(436,0,l),
(563,0,l),
(875,713,l),
(729,713,l),
(729,0,l),
(969,0,l),
(969,760,l),
(671,760,l),
(485,336,l),
(514,336,l),
(328,760,l),
(40,760,l),
(40,0,l)
);
}
);
width = 1009;
},
{
anchors = (
{
name = bottom;
pos = (500,0);
},
{
name = top;
pos = (500,760);
}
);
associatedMasterId = "7F4E18E3-41A5-4521-AA8A-AE39B7B68B38";
background = {
shapes = (
{
closed = 1;
nodes = (
(736,-16,o),
(902,147,o),
(902,380,cs),
(902,613,o),
(736,776,o),
(499,776,cs),
(262,776,o),
(96,613,o),
(96,380,cs),
(96,147,o),
(262,-16,o),
(499,-16,cs)
);
},
{
closed = 1;
nodes = (
(396,184,o),
(331,260,o),
(331,380,cs),
(331,500,o),
(396,576,o),
(499,576,cs),
(602,576,o),
(667,500,o),
(667,380,cs),
(667,260,o),
(602,184,o),
(499,184,cs)
);
}
);
};
layerId = "AAA9E4F4-B6BD-413C-BE4C-BCC40DA4FD78";
name = "4 Dec 24 at 21:50";
shapes = (
{
closed = 1;
nodes = (
(270,0,l),
(270,713,l),
(144,713,l),
(456,0,l),
(543,0,l),
(855,713,l),
(729,713,l),
(729,0,l),
(969,0,l),
(969,760,l),
(671,760,l),
(485,336,l),
(514,336,l),
(328,760,l),
(40,760,l),
(40,0,l)
);
}
);
width = 1009;
}
);
metricLeft = "=H";
metricRight = "=H";
unicode = 77;
},
{
color = 8;
glyphname = N;
lastChange = "2024-12-04 12:16:54 +0000";
layers = (
{
anchors = (
{
name = bottom;
pos = (375,0);
},
{
name = top;
pos = (375,760);
}
);
layerId = m01;
shapes = (
{
closed = 1;
nodes = (
(145,0,l),
(145,713,l),
(114,713,l),
(606,0,l),
(657,0,l),
(657,760,l),
(604,760,l),
(604,47,l),
(635,47,l),
(143,760,l),
(92,760,l),
(92,0,l)
);
}
);
width = 749;
},
{
anchors = (
{
name = bottom;
pos = (402,0);
},
{
name = top;
pos = (402,760);
}
);
layerId = "7F4E18E3-41A5-4521-AA8A-AE39B7B68B38";
shapes = (
{
closed = 1;
nodes = (
(276,0,l),
(276,638,l),
(88,638,l),
(546,0,l),
(758,0,l),
(758,760,l),
(528,760,l),
(528,122,l),
(716,122,l),
(258,760,l),
(46,760,l),
(46,0,l)
);
}
);
width = 804;
},
{
associatedMasterId = m01;
backgroundImage = {
imagePath = "/var/folders/5k/6t5s5z6x64zbq6w952rby05w0000gn/T/TemporaryItems/NSIRD_screencaptureui_3by0HM/Screenshot 2024-11-20 at 3.06.23 pm.png";
locked = 1;
pos = (-36,-98);
scale = (4.6184,4.6184);
};
layerId = "5C24A42F-6AD3-4FC0-B06B-FA1505665D41";
name = "20 Nov 24 at 15:09";
shapes = (
{
closed = 1;
nodes = (
(97,0,l),
(97,653,l),
(66,653,l),
(489,0,l),
(571,0,l),
(571,700,l),
(517,700,l),
(517,47,l),
(548,47,l),
(125,700,l),
(43,700,l),
(43,0,l)
);
}
);
width = 600;
},
{
associatedMasterId = m01;
layerId = "CEBFCE95-75A8-4790-AB0C-D244FC4D052B";
name = "26 Nov 24 at 11:14";
shapes = (
{
closed = 1;
nodes = (
(133,0,l),
(133,713,l),
(102,713,l),
(564,0,l),
(615,0,l),
(615,760,l),
(562,760,l),
(562,47,l),
(593,47,l),
(131,760,l),
(80,760,l),
(80,0,l)
);
}
);
width = 695;
},
{
anchors = (
{
name = bottom;
pos = (386,0);
},
{
name = top;
pos = (386,760);
}
);
associatedMasterId = "7F4E18E3-41A5-4521-AA8A-AE39B7B68B38";
layerId = "C9C92F20-6BC9-4AEA-8EDF-32C8A975BC99";
name = "30 Nov 24 at 11:44";
shapes = (
{
closed = 1;
nodes = (
(270,0,l),
(270,638,l),
(77,638,l),
(520,0,l),
(732,0,l),
(732,760,l),
(502,760,l),
(502,122,l),
(695,122,l),
(252,760,l),
(40,760,l),
(40,0,l)
);
}
);
width = 772;
},
{
anchors = (
{
name = bottom;
pos = (396,0);
},
{
name = top;
pos = (396,760);
}
);
associatedMasterId = "7F4E18E3-41A5-4521-AA8A-AE39B7B68B38";
layerId = "8D4B2481-C102-4F54-ACA4-393518354C6B";
name = "2 Dec 24 at 11:52";
shapes = (
{
closed = 1;
nodes = (
(270,0,l),
(270,638,l),
(72,638,l),
(530,0,l),
(752,0,l),
(752,760,l),
(522,760,l),
(522,122,l),
(720,122,l),
(262,760,l),
(40,760,l),
(40,0,l)
);
}
);
width = 792;
}
);
metricLeft = "=H";
metricRight = "=H";
unicode = 78;
},
{
color = 8;
glyphname = Eng;
lastChange = "2024-12-04 23:34:14 +0000";
layers = (
{
layerId = m01;
shapes = (
{
closed = 1;
nodes = (
(415,-240,l),
(583,-240,o),
(657,-167,o),
(657,0,c),
(657,8,l),
(606,8,l),
(606,0,l),
(606,-142,o),
(558,-190,o),
(415,-190,cs),
(366,-190,l),
(366,-240,l)
);
},
{
ref = N;
}
);
width = 725;
},
{
guides = (
{
angle = 90;
pos = (522,160);
}
);
layerId = "7F4E18E3-41A5-4521-AA8A-AE39B7B68B38";
shapes = (
{
closed = 1;
nodes = (
(420,-240,l),
(655,-240,o),
(758,-167,o),
(758,0,c),
(758,47,l),
(528,47,l),
(528,-10,l),
(528,-37,o),
(508,-50,o),
(469,-50,cs),
(359,-50,l),
(359,-240,l)
);
},
{
ref = N;
}
);
width = 792;
}
);
unicode = 330;
},
{
color = 8;
glyphname = O;
lastChange = "2024-12-04 12:16:40 +0000";
layers = (
{
anchors = (
{
name = bottom;
pos = (452,0);
},
{
name = center;
pos = (452,380);
},
{
name = ogonek;
pos = (798,10);
},
{
name = top;
pos = (452,760);
},
{
name = topleft;
pos = (40,760);
},
{
name = topright;
pos = (620,741);
}
);
guides = (
{
pos = (560,741);
}
);
layerId = m01;
shapes = (
{
closed = 1;
nodes = (
(676,-16,o),
(834,147,o),
(834,380,cs),
(834,613,o),
(676,776,o),
(452,776,cs),
(228,776,o),
(70,613,o),
(70,380,cs),
(70,147,o),
(228,-16,o),
(452,-16,cs)
);
},
{
closed = 1;
nodes = (
(260,34,o),
(125,177,o),
(125,380,cs),
(125,583,o),
(260,726,o),
(452,726,cs),
(644,726,o),
(779,583,o),
(779,380,cs),
(779,177,o),
(644,34,o),
(452,34,cs)
);
}
);
width = 904;
},
{
anchors = (
{
name = bottom;
pos = (438,0);
},
{
name = center;
pos = (438,380);
},
{
name = ogonek;
pos = (780,10);
},
{
name = top;
pos = (438,760);
},
{
name = topleft;
pos = (30,760);
},
{
name = topright;
pos = (646,726);
}
);
guides = (
{
pos = (586,726);
}
);
layerId = "7F4E18E3-41A5-4521-AA8A-AE39B7B68B38";
shapes = (
{
closed = 1;
nodes = (
(675,-16,o),
(841,147,o),
(841,380,cs),
(841,613,o),
(675,776,o),
(438,776,cs),
(201,776,o),
(35,613,o),
(35,380,cs),
(35,147,o),
(201,-16,o),
(438,-16,cs)
);
},
{
closed = 1;
nodes = (
(335,184,o),
(270,260,o),
(270,380,cs),
(270,500,o),
(335,576,o),
(438,576,cs),
(541,576,o),
(606,500,o),
(606,380,cs),
(606,260,o),
(541,184,o),
(438,184,cs)
);
}
);
width = 876;
},
{
associatedMasterId = m01;
layerId = "030D75A1-F628-4A93-944C-CCD77382870A";
name = "25 Nov 24 at 09:37";
shapes = (
{
closed = 1;
nodes = (
(610,-16,o),
(756,135,o),
(756,350,cs),
(756,565,o),
(610,716,o),
(403,716,cs),
(196,716,o),
(50,565,o),
(50,350,cs),
(50,135,o),
(196,-16,o),
(403,-16,cs)
);
},
{
closed = 1;
nodes = (
(228,34,o),
(105,164,o),
(105,350,cs),
(105,536,o),
(228,666,o),
(403,666,cs),
(578,666,o),
(701,536,o),
(701,350,cs),
(701,164,o),
(578,34,o),
(403,34,cs)
);
}
);
width = 806;
},
{
associatedMasterId = "7F4E18E3-41A5-4521-AA8A-AE39B7B68B38";
layerId = "C27CC0FD-FCCF-435B-BA31-6404B2F1255B";
name = "25 Nov 24 at 11:26";
shapes = (
{
closed = 1;
nodes = (
(627,-16,o),
(771,125,o),
(771,350,cs),
(771,575,o),
(627,716,o),
(398,716,cs),
(169,716,o),
(25,575,o),
(25,350,cs),
(25,125,o),
(169,-16,o),
(398,-16,cs)
);
},
{
closed = 1;
nodes = (
(317,164,o),
(260,241,o),
(260,350,cs),
(260,459,o),
(317,536,o),
(398,536,cs),
(479,536,o),
(536,459,o),
(536,350,cs),
(536,241,o),
(479,164,o),
(398,164,cs)
);
}
);
width = 796;
},
{
anchors = (
{
name = bottom;
pos = (428,0);
},
{
name = center;
pos = (428,380);
},
{
name = ogonek;
pos = (770,10);
},
{
name = top;
pos = (428,760);
},
{
name = topleft;
pos = (20,760);
},
{
name = topright;
pos = (636,726);
}
);
associatedMasterId = "7F4E18E3-41A5-4521-AA8A-AE39B7B68B38";
guides = (
{
pos = (576,726);
}
);
layerId = "5805BCA3-1BCA-4B12-81F6-194A0ADB61BD";
name = "30 Nov 24 at 10:25";
shapes = (
{
closed = 1;
nodes = (
(665,-16,o),
(831,147,o),
(831,380,cs),
(831,613,o),
(665,776,o),
(428,776,cs),
(191,776,o),
(25,613,o),
(25,380,cs),
(25,147,o),
(191,-16,o),
(428,-16,cs)
);
},
{
closed = 1;
nodes = (
(325,164,o),
(260,247,o),
(260,380,cs),
(260,513,o),
(325,596,o),
(428,596,cs),
(531,596,o),
(596,513,o),
(596,380,cs),
(596,247,o),
(531,164,o),
(428,164,cs)
);
}
);
width = 856;
}
);
unicode = 79;
},
{
glyphname = Oslash;
lastChange = "2024-11-27 01:14:50 +0000";
layers = (
{
layerId = m01;
shapes = (
{
ref = O;
},
{
closed = 1;
nodes = (
(140,-61,l),
(751,821,l),
(697,821,l),
(86,-61,l)
);
}
);
width = 864;
},
{
layerId = "7F4E18E3-41A5-4521-AA8A-AE39B7B68B38";
shapes = (
{
ref = O;
},
{
closed = 1;
nodes = (
(167,-61,l),
(779,821,l),
(678,821,l),
(66,-61,l)
);
}
);
width = 856;
}
);
unicode = 216;
},
{
color = 8;
glyphname = OE;
lastChange = "2024-12-05 22:10:34 +0000";
layers = (
{
layerId = m01;
shapes = (
{
closed = 1;
nodes = (
(629,0,l),
(629,50,l),
(452,50,ls),
(251,50,o),
(125,177,o),
(125,380,cs),
(125,583,o),
(251,710,o),
(452,710,cs),
(629,710,l),
(629,760,l),
(452,760,ls),
(217,760,o),
(70,613,o),
(70,380,cs),
(70,147,o),
(217,0,o),
(452,0,cs)
);
},
{
closed = 1;
nodes = (
(1005,0,l),
(1005,50,l),
(578,50,l),
(578,0,l)
);
},
{
closed = 1;
nodes = (
(606,0,l),
(606,760,l),
(553,760,l),
(553,0,l)
);
},
{
closed = 1;
nodes = (
(922,377,l),
(922,427,l),
(578,427,l),
(578,377,l)
);
},
{
closed = 1;
nodes = (
(996,710,l),
(996,760,l),
(578,760,l),
(578,710,l)
);
}
);
width = 1097;
},
{
layerId = "7F4E18E3-41A5-4521-AA8A-AE39B7B68B38";
shapes = (
{
closed = 1;
nodes = (
(630,0,l),
(630,190,l),
(480,190,ls),
(340,190,o),
(270,253,o),
(270,380,cs),
(270,507,o),
(340,570,o),
(480,570,cs),
(630,570,l),
(630,760,l),
(438,760,ls),
(190,760,o),
(35,613,o),
(35,380,cs),
(35,147,o),
(190,0,o),
(438,0,cs)
);
},
{
closed = 1;
nodes = (
(1071,0,l),
(1071,190,l),
(544,190,l),
(544,0,l)
);
},
{
closed = 1;
nodes = (
(749,0,l),
(749,760,l),
(519,760,l),
(519,0,l)
);
},
{
closed = 1;
nodes = (
(1008,290,l),
(1008,475,l),
(544,475,l),
(544,290,l)
);
},
{
closed = 1;
nodes = (
(1062,570,l),
(1062,760,l),
(544,760,l),
(544,570,l)
);
}
);
width = 1117;
}
);
metricLeft = "=O";
metricRight = "=E";
unicode = 338;
},
{
color = 8;
glyphname = P;
lastChange = "2024-12-04 12:16:54 +0000";
layers = (
{
layerId = m01;
shapes = (
{
closed = 1;
nodes = (
(302,325,l),
(462,325,o),
(563,409,o),
(563,543,cs),
(563,676,o),
(462,760,o),
(302,760,cs),
(125,760,l),
(125,710,l),
(292,710,l),
(431,710,o),
(508,650,o),
(508,543,cs),
(508,435,o),
(431,375,o),
(292,375,cs),
(130,375,l),
(130,325,l)
);
},
{
closed = 1;
nodes = (
(145,0,l),
(145,760,l),
(92,760,l),
(92,0,l)
);
}
);
width = 633;
},
{
layerId = "7F4E18E3-41A5-4521-AA8A-AE39B7B68B38";
shapes = (
{
closed = 1;
nodes = (
(380,196,l),
(590,196,o),
(708,297,o),
(708,478,cs),
(708,659,o),
(590,760,o),
(380,760,cs),
(188,760,l),
(188,570,l),
(350,570,ls),
(429,570,o),
(473,537,o),
(473,478,cs),
(473,419,o),
(429,386,o),
(350,386,cs),
(188,386,l),
(188,196,l)
);
},
{
closed = 1;
nodes = (
(276,0,l),
(276,760,l),
(46,760,l),
(46,0,l)
);
}
);
width = 743;
},
{
associatedMasterId = "7F4E18E3-41A5-4521-AA8A-AE39B7B68B38";
layerId = "88C01793-2A85-4229-AE46-23A3A2A4DE9C";
name = "25 Nov 24 at 11:47";
shapes = (
{
closed = 1;
nodes = (
(334,278,l),
(560,278,o),
(672,356,o),
(672,514,cs),
(672,672,o),
(560,750,o),
(334,750,cs),
(162,750,l),
(162,611,l),
(304,611,ls),
(389,611,o),
(437,576,o),
(437,514,cs),
(437,452,o),
(389,417,o),
(304,417,cs),
(162,417,l),
(162,278,l)
);
},
{
closed = 1;
nodes = (
(270,0,l),
(270,750,l),
(40,750,l),
(40,0,l)
);
}
);
width = 698;
},
{
associatedMasterId = m01;
layerId = "4560DCD8-F68C-420D-8D66-FD16DB05122E";
name = "26 Nov 24 at 09:58";
shapes = (
{
closed = 1;
nodes = (
(250,315,l),
(435,315,o),
(551,399,o),
(551,533,cs),
(551,666,o),
(435,750,o),
(250,750,cs),
(113,750,l),
(113,702,l),
(240,702,l),
(397,702,o),
(496,637,o),
(496,533,cs),
(496,429,o),
(397,363,o),
(240,363,cs),
(118,363,l),
(118,315,l)
);
},
{
closed = 1;
nodes = (
(133,0,l),
(133,750,l),
(80,750,l),
(80,0,l)
);
}
);
width = 601;
},
{
associatedMasterId = "7F4E18E3-41A5-4521-AA8A-AE39B7B68B38";
layerId = "5DFF9922-141E-4B80-AFB4-4F4FDE9C82CE";
name = "26 Nov 24 at 09:59";
shapes = (
{
closed = 1;
nodes = (
(354,258,l),
(571,258,o),
(692,346,o),
(692,504,cs),
(692,662,o),
(571,750,o),
(354,750,cs),
(182,750,l),
(182,601,l),
(324,601,ls),
(409,601,o),
(457,566,o),
(457,504,cs),
(457,442,o),
(409,407,o),
(324,407,cs),
(182,407,l),
(182,258,l)
);
},
{
closed = 1;
nodes = (
(270,0,l),
(270,750,l),
(40,750,l),
(40,0,l)
);
}
);
width = 717;
},
{
associatedMasterId = "7F4E18E3-41A5-4521-AA8A-AE39B7B68B38";
layerId = "79D571C1-57FF-4373-A310-7FDC80F4F1BB";
name = "30 Nov 24 at 10:27";
shapes = (
{
closed = 1;
nodes = (
(364,268,l),
(574,268,o),
(692,356,o),
(692,514,cs),
(692,672,o),
(574,760,o),
(364,760,cs),
(182,760,l),
(182,611,l),
(334,611,ls),
(416,611,o),
(457,579,o),
(457,514,cs),
(457,449,o),
(416,417,o),
(334,417,cs),
(182,417,l),
(182,268,l)
);
},
{
closed = 1;
nodes = (
(270,0,l),
(270,760,l),
(40,760,l),
(40,0,l)
);
}
);
width = 717;
}
);
metricLeft = "=H";
metricRight = "=O";
unicode = 80;
},
{
color = 8;
glyphname = Thorn;
lastChange = "2024-12-05 05:01:27 +0000";
layers = (
{
layerId = m01;
shapes = (
{
closed = 1;
nodes = (
(302,163,l),
(462,163,o),
(563,247,o),
(563,381,cs),
(563,514,o),
(462,598,o),
(302,598,cs),
(125,598,l),
(125,548,l),
(292,548,l),
(431,548,o),
(508,488,o),
(508,381,cs),
(508,273,o),
(431,213,o),
(292,213,cs),
(130,213,l),
(130,163,l)
);
},
{
closed = 1;
nodes = (
(145,0,l),
(145,760,l),
(92,760,l),
(92,0,l)
);
}
);
width = 633;
},
{
layerId = "7F4E18E3-41A5-4521-AA8A-AE39B7B68B38";
shapes = (
{
closed = 1;
nodes = (
(380,98,l),
(590,98,o),
(708,199,o),
(708,380,cs),
(708,561,o),
(590,662,o),
(380,662,cs),
(188,662,l),
(188,472,l),
(350,472,ls),
(429,472,o),
(473,439,o),
(473,380,cs),
(473,321,o),
(429,288,o),
(350,288,cs),
(188,288,l),
(188,98,l)
);
},
{
closed = 1;
nodes = (
(276,0,l),
(276,760,l),
(46,760,l),
(46,0,l)
);
}
);
width = 743;
}
);
metricLeft = "=P";
metricRight = "=P";
unicode = 222;
},
{
color = 8;
glyphname = Q;
lastChange = "2024-12-05 22:20:51 +0000";
layers = (
{
layerId = "7F4E18E3-41A5-4521-AA8A-AE39B7B68B38";
shapes = (
{
closed = 1;
nodes = (
(796,-217,l),
(796,-47,l),
(579,-47,ls),
(553,-47,o),
(543,-36,o),
(543,-7,cs),
(543,77,l),
(333,77,l),
(333,-15,ls),
(333,-150,o),
(399,-217,o),
(531,-217,cs)
);
},
{
ref = O;
}
);
width = 856;
},
{
associatedMasterId = m01;
layerId = "C2E4F709-E7D6-4E19-967F-29468E11E070";
name = "30 Nov 24 at 10:32";
shapes = (
{
closed = 1;
nodes = (
(777,-121,l),
(777,-71,l),
(613,-71,ls),
(548,-71,o),
(521,-61,o),
(505,-30,cs),
(491,-4,l),
(431,-4,l),
(445,-34,ls),
(474,-95,o),
(524,-121,o),
(609,-121,cs)
);
},
{
ref = O;
}
);
width = 864;
},
{
guides = (
{
angle = 90;
pos = (432,-18);
}
);
layerId = m01;
name = Light;
shapes = (
{
closed = 1;
nodes = (
(800,-131,l),
(800,-81,l),
(533,-81,ls),
(493,-81,o),
(478,-68,o),
(478,-33,c),
(478,-7,l),
(425,-7,l),
(425,-37,ls),
(425,-102,o),
(457,-131,o),
(529,-131,cs)
);
},
{
ref = O;
}
);
width = 864;
},
{
associatedMasterId = m01;
guides = (
{
angle = 90;
pos = (432,-18);
}
);
layerId = "C16BC202-8743-407D-B6C0-C5EA5900EF7B";
name = "30 Nov 24 at 16:34";
shapes = (
{
closed = 1;
nodes = (
(689,-121,l),
(689,-71,l),
(525,-71,ls),
(476,-71,o),
(460,-59,o),
(460,-23,c),
(460,3,l),
(407,3,l),
(407,-27,ls),
(407,-92,o),
(442,-121,o),
(521,-121,cs)
);
},
{
ref = O;
}
);
width = 864;
}
);
unicode = 81;
},
{
color = 8;
glyphname = R;
lastChange = "2024-12-04 12:16:54 +0000";
layers = (
{
anchors = (
{
name = bottom;
pos = (319,0);
},
{
name = top;
pos = (296,760);
}
);
layerId = m01;
shapes = (
{
closed = 1;
nodes = (
(342,345,l),
(466,345,o),
(553,431,o),
(553,553,cs),
(553,691,o),
(466,760,o),
(292,760,cs),
(125,760,l),
(125,711,l),
(282,711,l),
(426,711,o),
(498,659,o),
(498,553,cs),
(498,447,o),
(436,394,o),
(312,394,cs),
(130,394,l),
(130,345,l)
);
},
{
closed = 1;
nodes = (
(145,0,l),
(145,760,l),
(92,760,l),
(92,0,l)
);
},
{
closed = 1;
nodes = (
(624,0,l),
(380,377,l),
(320,377,l),
(564,0,l)
);
}
);
width = 634;
},
{
anchors = (
{
name = bottom;
pos = (378,0);
},
{
name = top;
pos = (360,760);
}
);
layerId = "7F4E18E3-41A5-4521-AA8A-AE39B7B68B38";
shapes = (
{
closed = 1;
nodes = (
(380,226,l),
(590,226,o),
(708,322,o),
(708,493,cs),
(708,664,o),
(590,760,o),
(380,760,cs),
(198,760,l),
(198,570,l),
(350,570,ls),
(432,570,o),
(473,544,o),
(473,493,cs),
(473,442,o),
(432,416,o),
(350,416,cs),
(198,416,l),
(198,226,l)
);
},
{
closed = 1;
nodes = (
(276,0,l),
(276,760,l),
(46,760,l),
(46,0,l)
);
},
{
closed = 1;
nodes = (
(755,0,l),
(531,377,l),
(287,377,l),
(495,0,l)
);
}
);
width = 765;
},
{
associatedMasterId = m01;
layerId = "102289A9-2354-49EB-A3B5-8BBBF33C6AA3";
name = "26 Nov 24 at 10:03";
shapes = (
{
closed = 1;
nodes = (
(270,345,l),
(444,345,o),
(531,414,o),
(531,553,cs),
(531,691,o),
(444,760,o),
(270,760,cs),
(113,760,l),
(113,712,l),
(260,712,l),
(404,712,o),
(476,659,o),
(476,553,cs),
(476,446,o),
(404,393,o),
(260,393,cs),
(118,393,l),
(118,345,l)
);
},
{
closed = 1;
nodes = (
(133,0,l),
(133,760,l),
(80,760,l),
(80,0,l)
);
},
{
closed = 1;
nodes = (
(603,0,l),
(359,377,l),
(298,377,l),
(542,0,l)
);
}
);
width = 600;
},
{
anchors = (
{
name = bottom;
pos = (372,0);
},
{
name = top;
pos = (354,760);
}
);
associatedMasterId = "7F4E18E3-41A5-4521-AA8A-AE39B7B68B38";
layerId = "1B6DD854-8B06-4874-8349-037F6E93C24E";
name = "30 Nov 24 at 10:29";
shapes = (
{
closed = 1;
nodes = (
(354,288,l),
(564,288,o),
(682,366,o),
(682,524,cs),
(682,682,o),
(564,760,o),
(354,760,cs),
(172,760,l),
(172,611,l),
(324,611,ls),
(406,611,o),
(447,589,o),
(447,524,cs),
(447,459,o),
(406,437,o),
(324,437,cs),
(172,437,l),
(172,288,l)
);
},
{
closed = 1;
nodes = (
(270,0,l),
(270,760,l),
(40,760,l),
(40,0,l)
);
},
{
closed = 1;
nodes = (
(739,0,l),
(531,377,l),
(274,377,l),
(482,0,l)
);
}
);
width = 744;
},
{
anchors = (
{
name = bottom;
pos = (372,0);
},
{
name = top;
pos = (354,760);
}
);
associatedMasterId = "7F4E18E3-41A5-4521-AA8A-AE39B7B68B38";
layerId = "D70DBE73-AA07-4AEB-AA57-AF46F43421F2";
name = "30 Nov 24 at 10:45";
shapes = (
{
closed = 1;
nodes = (
(354,226,l),
(564,226,o),
(682,322,o),
(682,493,cs),
(682,664,o),
(564,760,o),
(354,760,cs),
(172,760,l),
(172,570,l),
(324,570,ls),
(406,570,o),
(447,544,o),
(447,493,cs),
(447,442,o),
(406,416,o),
(324,416,cs),
(172,416,l),
(172,226,l)
);
},
{
closed = 1;
nodes = (
(270,0,l),
(270,760,l),
(40,760,l),
(40,0,l)
);
},
{
closed = 1;
nodes = (
(729,0,l),
(521,377,l),
(264,377,l),
(472,0,l)
);
}
);
width = 744;
}
);
metricLeft = "=H";
unicode = 82;
},
{
color = 8;
glyphname = S;
lastChange = "2024-12-05 04:35:28 +0000";
layers = (
{
associatedMasterId = m01;
background = {
shapes = (
{
closed = 1;
nodes = (
(448,34,o),
(523,94,o),
(523,180,c),
(578,180,l),
(578,65,o),
(481,-16,o),
(342,-16,cs),
(186,-16,o),
(76,73,o),
(76,200,c),
(131,200,l),
(131,103,o),
(218,34,o),
(342,34,cs)
);
}
);
};
layerId = "D85CB9AB-9624-451C-8CF0-84E6A4859D5A";
name = "19 Nov 24 at 14:44";
shapes = (
{
closed = 1;
nodes = (
(552,406,o),
(72,280,o),
(72,520,cs),
(72,635,o),
(169,716,o),
(308,716,cs),
(464,716,o),
(574,627,o),
(574,500,c),
(519,500,l),
(519,597,o),
(432,666,o),
(308,666,cs),
(202,666,o),
(127,606,o),
(127,520,cs),
(127,336,o),
(607,463,o),
(607,220,cs),
(607,88,o),
(490,-16,o),
(341,-16,cs),
(175,-16,o),
(45,97,o),
(45,240,c),
(100,240,l),
(100,125,o),
(206,34,o),
(341,34,cs),
(459,34,o),
(552,116,o),
(552,220,cs)
);
}
);
width = 652;
},
{
associatedMasterId = m01;
background = {
shapes = (
{
closed = 1;
nodes = (
(448,34,o),
(523,94,o),
(523,180,c),
(578,180,l),
(578,65,o),
(481,-16,o),
(342,-16,cs),
(186,-16,o),
(76,73,o),
(76,200,c),
(131,200,l),
(131,103,o),
(218,34,o),
(342,34,cs)
);
}
);
};
backgroundImage = {
imagePath = "/var/folders/5k/6t5s5z6x64zbq6w952rby05w0000gn/T/TemporaryItems/NSIRD_screencaptureui_CN9BGS/Screenshot 2024-11-19 at 2.16.39 pm.png";
locked = 1;
pos = (-28,-174);
scale = (4.6938,4.6938);
};
layerId = "D5ED6FD5-19EA-4C9B-B82A-999BB20C9E62";
name = "19 Nov 24 at 14:44";
shapes = (
{
closed = 1;
nodes = (
(552,390,o),
(72,303,o),
(72,540,cs),
(72,639,o),
(176,716,o),
(308,716,cs),
(464,716,o),
(574,627,o),
(574,500,c),
(519,500,l),
(519,597,o),
(432,666,o),
(308,666,cs),
(207,666,o),
(127,611,o),
(127,540,cs),
(127,356,o),
(607,443,o),
(607,200,cs),
(607,79,o),
(490,-16,o),
(341,-16,cs),
(175,-16,o),
(45,97,o),
(45,240,c),
(100,240,l),
(100,125,o),
(206,34,o),
(341,34,cs),
(459,34,o),
(552,107,o),
(552,200,cs)
);
}
);
width = 600;
},
{
associatedMasterId = m01;
background = {
shapes = (
{
closed = 1;
nodes = (
(448,34,o),
(523,94,o),
(523,180,c),
(578,180,l),
(578,65,o),
(481,-16,o),
(342,-16,cs),
(186,-16,o),
(76,73,o),
(76,200,c),
(131,200,l),
(131,103,o),
(218,34,o),
(342,34,cs)
);
}
);
};
backgroundImage = {
imagePath = "/var/folders/5k/6t5s5z6x64zbq6w952rby05w0000gn/T/TemporaryItems/NSIRD_screencaptureui_CN9BGS/Screenshot 2024-11-19 at 2.16.39 pm.png";
pos = (-28,-174);
scale = (4.6938,4.6938);
};
layerId = "EDB0BD95-D3D2-463B-86A1-48D5A7133D54";
name = "19 Nov 24 at 14:44";
shapes = (
{
closed = 1;
nodes = (
(552,390,o),
(72,303,o),
(72,540,cs),
(72,639,o),
(176,716,o),
(308,716,cs),
(464,716,o),
(574,627,o),
(574,500,c),
(519,500,l),
(519,597,o),
(432,666,o),
(308,666,cs),
(207,666,o),
(127,611,o),
(127,540,cs),
(127,356,o),
(607,443,o),
(607,200,cs),
(607,79,o),
(490,-16,o),
(341,-16,cs),
(175,-16,o),
(45,97,o),
(45,240,c),
(100,240,l),
(100,125,o),
(206,34,o),
(341,34,cs),
(459,34,o),
(552,107,o),
(552,200,cs)
);
}
);
width = 600;
},
{
anchors = (
{
name = bottom;
pos = (388,0);
},
{
name = top;
pos = (353,760);
}
);
layerId = m01;
name = Regular;
shapes = (
{
closed = 1;
nodes = (
(549,-16,o),
(676,87,o),
(676,218,cs),
(676,477,o),
(162,377,o),
(162,586,cs),
(162,676,o),
(230,726,o),
(353,726,cs),
(489,726,o),
(578,655,o),
(585,543,c),
(638,543,l),
(631,680,o),
(513,776,o),
(353,776,cs),
(202,776,o),
(107,703,o),
(107,586,cs),
(107,321,o),
(621,424,o),
(621,218,cs),
(621,109,o),
(525,33,o),
(388,33,cs),
(234,33,o),
(131,121,o),
(123,261,c),
(70,261,l),
(77,98,o),
(208,-16,o),
(388,-16,cs)
);
}
);
width = 746;
},
{
anchors = (
{
name = bottom;
pos = (388,0);
},
{
name = top;
pos = (377,760);
}
);
layerId = "7F4E18E3-41A5-4521-AA8A-AE39B7B68B38";
shapes = (
{
closed = 1;
nodes = (
(608,-16,o),
(743,88,o),
(743,254,cs),
(743,559,o),
(288,436,o),
(288,548,cs),
(288,573,o),
(317,588,o),
(362,588,cs),
(423,588,o),
(465,560,o),
(469,516,c),
(699,516,l),
(693,683,o),
(579,776,o),
(382,776,cs),
(191,776,o),
(56,676,o),
(56,533,cs),
(56,212,o),
(507,318,o),
(507,210,cs),
(507,187,o),
(472,173,o),
(417,173,cs),
(331,173,o),
(269,211,o),
(265,266,c),
(35,266,l),
(41,85,o),
(169,-16,o),
(393,-16,cs)
);
}
);
width = 778;
},
{
anchors = (
{
name = bottom;
pos = (326,0);
},
{
name = top;
pos = (326,760);
}
);
associatedMasterId = "7F4E18E3-41A5-4521-AA8A-AE39B7B68B38";
layerId = "B7595E89-0BBA-4A8A-8B55-9B4B45EFE370";
name = "19 Nov 24 at 21:34";
shapes = (
{
closed = 1;
nodes = (
(452,340,o),
(-8,223,o),
(-8,510,cs),
(-8,625,o),
(131,716,o),
(308,716,cs),
(527,716,o),
(664,621,o),
(664,470,c),
(429,470,l),
(429,512,o),
(386,536,o),
(308,536,cs),
(260,536,o),
(227,518,o),
(227,493,cs),
(227,389,o),
(687,523,o),
(687,230,cs),
(687,92,o),
(535,-16,o),
(341,-16,cs),
(104,-16,o),
(-45,98,o),
(-45,280,c),
(190,280,l),
(190,206,o),
(244,164,o),
(341,164,cs),
(406,164,o),
(452,191,o),
(452,230,cs)
);
}
);
width = 652;
},
{
associatedMasterId = "7F4E18E3-41A5-4521-AA8A-AE39B7B68B38";
layerId = "23D7DEE2-F2EA-4895-A3A3-4496DBAD5769";
name = "19 Nov 24 at 21:48";
shapes = (
{
closed = 1;
nodes = (
(512,320,o),
(72,193,o),
(72,510,cs),
(72,625,o),
(201,716,o),
(378,716,cs),
(575,716,o),
(714,627,o),
(714,500,c),
(479,500,l),
(479,539,o),
(437,566,o),
(378,566,cs),
(330,566,o),
(307,548,o),
(307,523,cs),
(307,399,o),
(747,533,o),
(747,230,cs),
(747,92,o),
(605,-16,o),
(411,-16,cs),
(174,-16,o),
(35,83,o),
(35,240,c),
(270,240,l),
(270,166,o),
(314,124,o),
(411,124,cs),
(466,124,o),
(512,151,o),
(512,190,cs)
);
}
);
width = 782;
},
{
associatedMasterId = "7F4E18E3-41A5-4521-AA8A-AE39B7B68B38";
layerId = "CE8C5EE5-6A67-4226-B558-6F0686AE7331";
name = "20 Nov 24 at 13:48";
shapes = (
{
closed = 1;
nodes = (
(502,310,o),
(62,193,o),
(62,510,cs),
(62,625,o),
(197,716,o),
(368,716,cs),
(554,716,o),
(684,627,o),
(684,500,c),
(449,500,l),
(449,531,o),
(409,556,o),
(359,556,cs),
(324,556,o),
(297,541,o),
(297,523,cs),
(297,399,o),
(737,533,o),
(737,230,cs),
(737,86,o),
(598,-16,o),
(401,-16,cs),
(180,-16,o),
(25,90,o),
(25,240,c),
(260,240,l),
(260,181,o),
(314,144,o),
(401,144,cs),
(463,144,o),
(502,162,o),
(502,190,cs)
);
}
);
width = 762;
},
{
associatedMasterId = "7F4E18E3-41A5-4521-AA8A-AE39B7B68B38";
layerId = "D1486F56-64A5-4D6B-B7DC-9D60FA54918A";
name = "20 Nov 24 at 14:27";
shapes = (
{
closed = 1;
nodes = (
(502,300,o),
(62,193,o),
(62,510,cs),
(62,625,o),
(197,716,o),
(368,716,cs),
(562,716,o),
(684,625,o),
(684,480,c),
(449,480,l),
(449,527,o),
(414,556,o),
(359,556,cs),
(319,556,o),
(297,541,o),
(297,513,cs),
(297,409,o),
(737,533,o),
(737,230,cs),
(737,86,o),
(598,-16,o),
(401,-16,cs),
(170,-16,o),
(25,88,o),
(25,254,c),
(260,254,l),
(260,186,o),
(314,144,o),
(401,144,cs),
(466,144,o),
(502,164,o),
(502,200,cs)
);
}
);
width = 762;
},
{
associatedMasterId = m01;
layerId = "F8E478D8-EC95-4937-8DD1-1A56BCDA3377";
name = "26 Nov 24 at 10:48";
shapes = (
{
closed = 1;
nodes = (
(555,390,o),
(75,303,o),
(75,540,cs),
(75,639,o),
(179,716,o),
(311,716,cs),
(466,716,o),
(575,627,o),
(575,500,c),
(522,500,l),
(522,597,o),
(435,666,o),
(311,666,cs),
(210,666,o),
(130,611,o),
(130,540,cs),
(130,356,o),
(610,443,o),
(610,200,cs),
(610,79,o),
(493,-16,o),
(344,-16,cs),
(179,-16,o),
(50,97,o),
(50,240,c),
(103,240,l),
(103,125,o),
(209,34,o),
(344,34,cs),
(462,34,o),
(555,107,o),
(555,200,cs)
);
}
);
width = 660;
},
{
associatedMasterId = "7F4E18E3-41A5-4521-AA8A-AE39B7B68B38";
layerId = "6015DA06-D989-4FB3-8884-1AC8735507F6";
name = "26 Nov 24 at 10:51";
shapes = (
{
closed = 1;
nodes = (
(502,300,o),
(62,193,o),
(62,490,cs),
(62,623,o),
(188,716,o),
(368,716,cs),
(562,716,o),
(684,625,o),
(684,480,c),
(449,480,l),
(449,527,o),
(414,556,o),
(359,556,cs),
(319,556,o),
(297,541,o),
(297,513,cs),
(297,409,o),
(737,533,o),
(737,250,cs),
(737,87,o),
(607,-16,o),
(401,-16,cs),
(170,-16,o),
(25,88,o),
(25,254,c),
(260,254,l),
(260,186,o),
(314,144,o),
(401,144,cs),
(466,144,o),
(502,164,o),
(502,200,cs)
);
}
);
width = 762;
},
{
anchors = (
{
name = bottom;
pos = (353,0);
},
{
name = top;
pos = (353,760);
}
);
associatedMasterId = m01;
layerId = "79EBBC92-E63D-4D67-A561-BA6C1EF7F2E6";
name = "27 Nov 24 at 11:37";
shapes = (
{
closed = 1;
nodes = (
(604,426,o),
(77,331,o),
(77,586,cs),
(77,692,o),
(190,776,o),
(333,776,cs),
(494,776,o),
(611,680,o),
(618,543,c),
(565,543,l),
(558,658,o),
(468,730,o),
(333,730,cs),
(219,730,o),
(129,667,o),
(129,586,cs),
(129,385,o),
(656,477,o),
(656,218,cs),
(656,87,o),
(529,-16,o),
(368,-16,cs),
(189,-16,o),
(57,98,o),
(50,261,c),
(103,261,l),
(111,119,o),
(213,30,o),
(368,30,cs),
(500,30,o),
(604,113,o),
(604,218,cs)
);
}
);
width = 706;
},
{
anchors = (
{
name = bottom;
pos = (398,0);
},
{
name = top;
pos = (374,760);
}
);
associatedMasterId = "7F4E18E3-41A5-4521-AA8A-AE39B7B68B38";
layerId = "3DDD7C8F-1491-49D4-9E58-EC41E605A3F4";
name = "30 Nov 24 at 11:57";
shapes = (
{
closed = 1;
nodes = (
(609,-16,o),
(741,91,o),
(741,262,cs),
(741,557,o),
(289,444,o),
(289,556,cs),
(289,585,o),
(317,603,o),
(362,603,cs),
(419,603,o),
(449,576,o),
(454,521,c),
(684,521,l),
(678,685,o),
(566,776,o),
(372,776,cs),
(189,776,o),
(61,679,o),
(61,541,cs),
(61,230,o),
(507,326,o),
(507,218,cs),
(507,181,o),
(470,158,o),
(410,158,cs),
(312,158,o),
(260,194,o),
(255,266,c),
(25,266,l),
(31,85,o),
(165,-16,o),
(398,-16,cs)
);
}
);
width = 766;
},
{
anchors = (
{
name = bottom;
pos = (368,0);
},
{
name = top;
pos = (333,760);
}
);
associatedMasterId = m01;
layerId = "7469CF8C-F02D-4074-A091-357AE46560C4";
name = "30 Nov 24 at 12:00";
shapes = (
{
closed = 1;
nodes = (
(529,-16,o),
(656,87,o),
(656,218,cs),
(656,477,o),
(129,385,o),
(129,586,cs),
(129,667,o),
(219,730,o),
(333,730,cs),
(468,730,o),
(558,658,o),
(565,543,c),
(618,543,l),
(611,680,o),
(494,776,o),
(333,776,cs),
(190,776,o),
(77,692,o),
(77,586,cs),
(77,331,o),
(604,426,o),
(604,218,cs),
(604,113,o),
(500,30,o),
(368,30,cs),
(213,30,o),
(111,119,o),
(103,261,c),
(50,261,l),
(57,98,o),
(189,-16,o),
(368,-16,cs)
);
}
);
width = 706;
},
{
anchors = (
{
name = bottom;
pos = (398,0);
},
{
name = top;
pos = (374,760);
}
);
associatedMasterId = "7F4E18E3-41A5-4521-AA8A-AE39B7B68B38";
layerId = "6F8C6DB3-B002-414A-AFF0-99AE53611B41";
name = "30 Nov 24 at 12:02";
shapes = (
{
closed = 1;
nodes = (
(609,-16,o),
(741,88,o),
(741,254,cs),
(741,549,o),
(289,436,o),
(289,548,cs),
(289,570,o),
(321,588,o),
(362,588,cs),
(415,588,o),
(450,562,o),
(454,521,c),
(684,521,l),
(678,685,o),
(566,776,o),
(372,776,cs),
(189,776,o),
(61,676,o),
(61,533,cs),
(61,222,o),
(507,318,o),
(507,210,cs),
(507,188,o),
(472,173,o),
(422,173,cs),
(319,173,o),
(259,206,o),
(255,266,c),
(25,266,l),
(31,85,o),
(165,-16,o),
(398,-16,cs)
);
}
);
width = 766;
},
{
anchors = (
{
name = bottom;
pos = (378,0);
},
{
name = top;
pos = (367,760);
}
);
associatedMasterId = "7F4E18E3-41A5-4521-AA8A-AE39B7B68B38";
layerId = "9EEF7558-A9C8-4F56-95CA-4CDC8832FE4E";
name = "30 Nov 24 at 12:05";
shapes = (
{
closed = 1;
nodes = (
(584,-16,o),
(713,88,o),
(713,254,cs),
(713,549,o),
(288,436,o),
(288,548,cs),
(288,571,o),
(316,588,o),
(357,588,cs),
(410,588,o),
(445,562,o),
(449,521,c),
(679,521,l),
(673,685,o),
(561,776,o),
(367,776,cs),
(184,776,o),
(56,676,o),
(56,533,cs),
(56,222,o),
(477,318,o),
(477,210,cs),
(477,187,o),
(448,173,o),
(402,173,cs),
(308,173,o),
(259,204,o),
(255,266,c),
(25,266,l),
(31,85,o),
(158,-16,o),
(378,-16,cs)
);
}
);
width = 738;
},
{
anchors = (
{
name = bottom;
pos = (388,0);
},
{
name = top;
pos = (353,760);
}
);
associatedMasterId = m01;
layerId = "B541092E-ED3F-4BFE-8020-60279D4512E0";
name = "5 Dec 24 at 14:35";
shapes = (
{
closed = 1;
nodes = (
(549,-16,o),
(676,87,o),
(676,218,cs),
(676,477,o),
(152,377,o),
(152,586,cs),
(152,672,o),
(230,726,o),
(353,726,cs),
(489,726,o),
(578,655,o),
(585,543,c),
(638,543,l),
(631,680,o),
(513,776,o),
(353,776,cs),
(203,776,o),
(97,698,o),
(97,586,cs),
(97,321,o),
(621,424,o),
(621,218,cs),
(621,109,o),
(525,33,o),
(388,33,cs),
(234,33,o),
(131,121,o),
(123,261,c),
(70,261,l),
(77,98,o),
(208,-16,o),
(388,-16,cs)
);
}
);
width = 746;
}
);
metricLeft = "=O";
metricRight = "=O";
unicode = 83;
},
{
color = 8;
glyphname = Germandbls;
lastChange = "2024-12-05 06:01:49 +0000";
layers = (
{
layerId = m01;
shapes = (
{
closed = 1;
nodes = (
(145,0,l),
(145,490,ls),
(145,637,o),
(229,710,o),
(398,710,cs),
(602,710,l),
(602,760,l),
(398,760,ls),
(202,760,o),
(92,663,o),
(92,490,cs),
(92,0,l)
);
},
{
closed = 1;
nodes = (
(603,-16,o),
(695,83,o),
(695,224,cs),
(695,365,o),
(591,464,o),
(443,464,cs),
(419,464,l),
(419,414,l),
(443,414,ls),
(564,414,o),
(640,341,o),
(640,224,cs),
(640,107,o),
(576,34,o),
(473,34,cs),
(363,34,o),
(300,88,o),
(296,184,c),
(245,184,l),
(250,61,o),
(338,-16,o),
(473,-16,cs)
);
},
{
closed = 1;
nodes = (
(433,414,l),
(620,721,l),
(620,760,l),
(587,760,l),
(400,453,l),
(400,414,l)
);
}
);
width = 765;
},
{
layerId = "7F4E18E3-41A5-4521-AA8A-AE39B7B68B38";
shapes = (
{
closed = 1;
nodes = (
(276,0,l),
(276,475,ls),
(276,541,o),
(304,570,o),
(367,570,cs),
(677,570,l),
(677,760,l),
(438,760,ls),
(165,760,o),
(46,669,o),
(46,460,cs),
(46,0,l)
);
},
{
closed = 1;
nodes = (
(740,-16,o),
(852,87,o),
(852,252,cs),
(852,382,o),
(748,463,o),
(582,463,cs),
(457,463,l),
(457,343,l),
(469,343,l),
(563,343,o),
(622,301,o),
(622,235,cs),
(622,194,o),
(605,174,o),
(571,174,cs),
(543,174,o),
(525,191,o),
(517,224,c),
(322,224,l),
(330,70,o),
(416,-16,o),
(562,-16,cs)
);
},
{
closed = 1;
nodes = (
(591,343,l),
(766,632,l),
(766,760,l),
(597,760,l),
(422,471,l),
(422,343,l)
);
}
);
width = 887;
},
{
associatedMasterId = m01;
layerId = "1601D611-1C75-4CFF-BFC3-6BCF96908D6A";
name = "5 Dec 24 at 15:59";
shapes = (
{
closed = 1;
nodes = (
(145,0,l),
(145,540,ls),
(145,658,o),
(213,710,o),
(368,710,cs),
(602,710,l),
(602,760,l),
(368,760,ls),
(183,760,o),
(92,687,o),
(92,540,cs),
(92,0,l)
);
},
{
closed = 1;
nodes = (
(603,-16,o),
(695,83,o),
(695,224,cs),
(695,365,o),
(591,464,o),
(443,464,cs),
(419,464,l),
(419,414,l),
(443,414,ls),
(564,414,o),
(640,341,o),
(640,224,cs),
(640,107,o),
(576,34,o),
(473,34,cs),
(363,34,o),
(300,88,o),
(296,184,c),
(245,184,l),
(250,61,o),
(338,-16,o),
(473,-16,cs)
);
},
{
closed = 1;
nodes = (
(433,414,l),
(620,721,l),
(620,760,l),
(587,760,l),
(400,453,l),
(400,414,l)
);
}
);
width = 765;
},
{
associatedMasterId = "7F4E18E3-41A5-4521-AA8A-AE39B7B68B38";
layerId = "1251B858-4178-4230-A467-D70B733F0EBF";
name = "5 Dec 24 at 15:59";
shapes = (
{
closed = 1;
nodes = (
(276,0,l),
(276,515,ls),
(276,558,o),
(296,580,o),
(337,580,cs),
(677,580,l),
(677,760,l),
(408,760,ls),
(146,760,o),
(46,685,o),
(46,490,cs),
(46,0,l)
);
},
{
closed = 1;
nodes = (
(740,-16,o),
(852,87,o),
(852,252,cs),
(852,382,o),
(740,463,o),
(562,463,cs),
(437,463,l),
(437,343,l),
(460,343,l),
(564,343,o),
(622,304,o),
(622,235,cs),
(622,189,o),
(604,164,o),
(571,164,cs),
(544,164,o),
(527,182,o),
(517,224,c),
(312,224,l),
(320,77,o),
(417,-16,o),
(562,-16,cs)
);
},
{
closed = 1;
nodes = (
(571,343,l),
(766,632,l),
(766,760,l),
(597,760,l),
(402,471,l),
(402,343,l)
);
}
);
width = 887;
}
);
metricLeft = "=H";
metricRight = "=S";
unicode = 7838;
},
{
color = 8;
glyphname = T;
lastChange = "2024-12-04 12:16:54 +0000";
layers = (
{
anchors = (
{
name = bottom;
pos = (351,0);
},
{
name = center;
pos = (351,380);
},
{
name = top;
pos = (351,760);
}
);
layerId = m01;
shapes = (
{
closed = 1;
nodes = (
(378,0,l),
(378,760,l),
(325,760,l),
(325,0,l)
);
},
{
closed = 1;
nodes = (
(611,710,l),
(611,760,l),
(92,760,l),
(92,710,l)
);
}
);
width = 703;
},
{
anchors = (
{
name = bottom;
pos = (345,0);
},
{
name = center;
pos = (345,380);
},
{
name = top;
pos = (345,760);
}
);
layerId = "7F4E18E3-41A5-4521-AA8A-AE39B7B68B38";
shapes = (
{
closed = 1;
nodes = (
(460,0,l),
(460,760,l),
(230,760,l),
(230,0,l)
);
},
{
closed = 1;
nodes = (
(644,570,l),
(644,760,l),
(46,760,l),
(46,570,l)
);
}
);
width = 690;
},
{
associatedMasterId = "7F4E18E3-41A5-4521-AA8A-AE39B7B68B38";
layerId = "3A44588C-5D4C-4114-9A58-E3214E8BF281";
name = "30 Nov 24 at 10:53";
shapes = (
{
closed = 1;
nodes = (
(444,0,l),
(444,760,l),
(214,760,l),
(214,0,l)
);
},
{
closed = 1;
nodes = (
(617,590,l),
(617,760,l),
(40,760,l),
(40,590,l)
);
}
);
width = 657;
},
{
associatedMasterId = m01;
layerId = "809AE0DB-2113-464E-BB0D-68C2542FEB58";
name = "30 Nov 24 at 10:53";
shapes = (
{
closed = 1;
nodes = (
(366,0,l),
(366,760,l),
(313,760,l),
(313,0,l)
);
},
{
closed = 1;
nodes = (
(598,712,l),
(598,760,l),
(80,760,l),
(80,712,l)
);
}
);
width = 678;
}
);
metricLeft = "=H";
metricRight = "=H";
unicode = 84;
},
{
color = 8;
glyphname = U;
lastChange = "2024-12-04 12:16:54 +0000";
layers = (
{
anchors = (
{
name = bottom;
pos = (374,0);
},
{
name = ogonek;
pos = (481,0);
},
{
name = top;
pos = (374,760);
},
{
name = topright;
pos = (656,760);
}
);
layerId = m01;
shapes = (
{
closed = 1;
nodes = (
(555,-16,o),
(656,99,o),
(656,306,cs),
(656,760,l),
(603,760,l),
(603,306,ls),
(603,132,o),
(521,34,o),
(374,34,cs),
(227,34,o),
(145,132,o),
(145,306,cs),
(145,760,l),
(92,760,l),
(92,306,ls),
(92,99,o),
(193,-16,o),
(374,-16,cs)
);
}
);
width = 748;
},
{
anchors = (
{
name = bottom;
pos = (404,0);
},
{
name = ogonek;
pos = (542,0);
},
{
name = top;
pos = (404,760);
},
{
name = topright;
pos = (777,760);
}
);
background = {
shapes = (
{
closed = 1;
nodes = (
(641,-16,o),
(807,147,o),
(807,380,cs),
(807,613,o),
(641,776,o),
(404,776,cs),
(167,776,o),
(1,613,o),
(1,380,cs),
(1,147,o),
(167,-16,o),
(404,-16,cs)
);
},
{
closed = 1;
nodes = (
(301,184,o),
(236,260,o),
(236,380,cs),
(236,500,o),
(301,576,o),
(404,576,cs),
(507,576,o),
(572,500,o),
(572,380,cs),
(572,260,o),
(507,184,o),
(404,184,cs)
);
}
);
};
layerId = "7F4E18E3-41A5-4521-AA8A-AE39B7B68B38";
shapes = (
{
closed = 1;
nodes = (
(653,-16,o),
(762,101,o),
(762,370,c),
(762,760,l),
(532,760,l),
(532,350,ls),
(532,235,o),
(493,184,o),
(404,184,cs),
(315,184,o),
(276,235,o),
(276,350,cs),
(276,760,l),
(46,760,l),
(46,370,l),
(46,101,o),
(155,-16,o),
(404,-16,cs)
);
}
);
width = 808;
},
{
anchors = (
{
name = bottom;
pos = (413,0);
},
{
name = ogonek;
pos = (551,0);
},
{
name = top;
pos = (413,760);
},
{
name = topright;
pos = (786,760);
}
);
associatedMasterId = "7F4E18E3-41A5-4521-AA8A-AE39B7B68B38";
layerId = "A134BBA7-1F4E-4372-BC43-B79DAD0D3880";
name = "30 Nov 24 at 10:46";
shapes = (
{
closed = 1;
nodes = (
(652,-16,o),
(786,126,o),
(786,380,c),
(786,760,l),
(551,760,l),
(551,380,ls),
(551,224,o),
(513,164,o),
(413,164,cs),
(313,164,o),
(275,224,o),
(275,380,cs),
(275,760,l),
(40,760,l),
(40,380,l),
(40,126,o),
(174,-16,o),
(413,-16,cs)
);
}
);
width = 826;
},
{
anchors = (
{
name = bottom;
pos = (398,0);
},
{
name = ogonek;
pos = (536,0);
},
{
name = top;
pos = (398,760);
},
{
name = topright;
pos = (771,760);
}
);
associatedMasterId = "7F4E18E3-41A5-4521-AA8A-AE39B7B68B38";
layerId = "3C9D3A94-4EAF-4061-B966-261F4B6B7CDC";
name = "30 Nov 24 at 11:26";
shapes = (
{
closed = 1;
nodes = (
(657,-16,o),
(756,94,o),
(756,380,c),
(756,760,l),
(521,760,l),
(521,360,ls),
(521,228,o),
(490,184,o),
(398,184,cs),
(306,184,o),
(275,228,o),
(275,360,cs),
(275,760,l),
(40,760,l),
(40,380,l),
(40,94,o),
(139,-16,o),
(398,-16,cs)
);
}
);
width = 796;
}
);
metricLeft = "=H";
metricRight = "=H";
unicode = 85;
},
{
color = 8;
glyphname = V;
lastChange = "2024-12-05 02:24:01 +0000";
layers = (
{
guides = (
{
angle = 90;
pos = (340,-20);
}
);
layerId = m01;
shapes = (
{
closed = 1;
nodes = (
(345,-16,l),
(674,760,l),
(622,760,l),
(330,73,l),
(354,73,l),
(62,760,l),
(6,760,l),
(335,-16,l)
);
}
);
width = 680;
},
{
layerId = "7F4E18E3-41A5-4521-AA8A-AE39B7B68B38";
shapes = (
{
closed = 1;
nodes = (
(518,0,l),
(793,760,l),
(559,760,l),
(356,113,l),
(450,113,l),
(247,760,l),
(3,760,l),
(278,0,l)
);
}
);
width = 796;
},
{
associatedMasterId = m01;
layerId = "F3B566D5-8276-44BD-9E8C-C5EB6916D029";
name = "30 Nov 24 at 16:38";
shapes = (
{
closed = 1;
nodes = (
(342,-16,l),
(671,760,l),
(622,760,l),
(331,73,l),
(351,73,l),
(59,760,l),
(4,760,l),
(333,-16,l)
);
}
);
width = 675;
},
{
associatedMasterId = m01;
guides = (
{
angle = 90;
pos = (340,-20);
}
);
layerId = "2CDA6849-D236-4C6D-A369-D6E676E16249";
name = "5 Dec 24 at 12:24";
shapes = (
{
closed = 1;
nodes = (
(345,-16,l),
(674,760,l),
(620,760,l),
(328,73,l),
(354,73,l),
(62,760,l),
(6,760,l),
(335,-16,l)
);
}
);
width = 680;
}
);
unicode = 86;
},
{
color = 8;
glyphname = W;
lastChange = "2024-12-01 04:10:31 +0000";
layers = (
{
anchors = (
{
name = bottom;
pos = (492,0);
},
{
name = top;
pos = (492,760);
}
);
layerId = m01;
shapes = (
{
closed = 1;
nodes = (
(275,-16,l),
(507,677,l),
(477,677,l),
(709,-16,l),
(719,-16,l),
(978,760,l),
(923,760,l),
(694,73,l),
(732,73,l),
(497,776,l),
(487,776,l),
(252,73,l),
(290,73,l),
(61,760,l),
(6,760,l),
(265,-16,l)
);
}
);
width = 984;
},
{
anchors = (
{
name = bottom;
pos = (572,0);
},
{
name = top;
pos = (572,760);
}
);
layerId = "7F4E18E3-41A5-4521-AA8A-AE39B7B68B38";
shapes = (
{
closed = 1;
nodes = (
(448,0,l),
(631,599,l),
(513,599,l),
(696,0,l),
(926,0,l),
(1141,760,l),
(900,760,l),
(764,113,l),
(848,113,l),
(682,760,l),
(462,760,l),
(296,113,l),
(380,113,l),
(244,760,l),
(3,760,l),
(218,0,l)
);
}
);
width = 1144;
},
{
associatedMasterId = "7F4E18E3-41A5-4521-AA8A-AE39B7B68B38";
layerId = "F589B165-DAD7-4822-B1A3-BE766C1B7D19";
name = "1 Dec 24 at 13:43";
shapes = (
{
closed = 1;
nodes = (
(488,0,l),
(681,599,l),
(563,599,l),
(756,0,l),
(996,0,l),
(1241,760,l),
(1000,760,l),
(834,113,l),
(908,113,l),
(742,760,l),
(502,760,l),
(336,113,l),
(410,113,l),
(244,760,l),
(3,760,l),
(248,0,l)
);
}
);
width = 1244;
}
);
metricLeft = "=V";
metricRight = "=V";
unicode = 87;
},
{
color = 8;
glyphname = X;
lastChange = "2024-12-01 04:01:08 +0000";
layers = (
{
background = {
shapes = (
{
closed = 1;
nodes = (
(345,294,l),
(641,828,l),
(586,828,l),
(333,372,l),
(349,372,l),
(96,828,l),
(39,828,l),
(335,294,l)
);
},
{
closed = 1;
nodes = (
(367,68,l),
(367,384,l),
(314,384,l),
(314,68,l)
);
}
);
};
guides = (
{
pos = (664,388);
}
);
layerId = m01;
shapes = (
{
closed = 1;
nodes = (
(67,0,l),
(354,373,l),
(327,373,l),
(614,0,l),
(677,0,l),
(363,408,l),
(363,371,l),
(664,760,l),
(603,760,l),
(325,400,l),
(359,400,l),
(81,760,l),
(18,760,l),
(318,371,l),
(318,405,l),
(6,0,l)
);
}
);
width = 683;
},
{
background = {
shapes = (
{
closed = 1;
nodes = (
(510,222,l),
(794,802,l),
(551,802,l),
(392,416,l),
(454,416,l),
(295,802,l),
(42,802,l),
(326,222,l)
);
},
{
closed = 1;
nodes = (
(533,42,l),
(533,350,l),
(303,350,l),
(303,42,l)
);
}
);
};
guides = (
{
angle = 90;
pos = (428,409);
},
{
pos = (606,387);
}
);
layerId = "7F4E18E3-41A5-4521-AA8A-AE39B7B68B38";
shapes = (
{
closed = 1;
nodes = (
(270,0,l),
(478,311,l),
(386,311,l),
(572,0,l),
(855,0,l),
(498,487,l),
(533,332,l),
(830,760,l),
(565,760,l),
(402,500,l),
(454,500,l),
(293,760,l),
(12,760,l),
(346,298,l),
(363,500,l),
(3,0,l)
);
}
);
width = 858;
}
);
metricLeft = "=V";
metricRight = "=V";
unicode = 88;
},
{
color = 8;
glyphname = Y;
lastChange = "2024-12-01 04:01:08 +0000";
layers = (
{
anchors = (
{
name = bottom;
pos = (296,0);
},
{
name = top;
pos = (296,760);
},
{
name = topleft;
pos = (52,760);
}
);
background = {
shapes = (
{
closed = 1;
nodes = (
(301,-16,l),
(630,760,l),
(576,760,l),
(284,73,l),
(310,73,l),
(18,760,l),
(-38,760,l),
(291,-16,l)
);
}
);
};
guides = (
{
angle = 90;
pos = (296,230);
}
);
layerId = m01;
shapes = (
{
closed = 1;
nodes = (
(301,246,l),
(586,760,l),
(531,760,l),
(289,324,l),
(305,324,l),
(63,760,l),
(6,760,l),
(291,246,l)
);
},
{
closed = 1;
nodes = (
(323,0,l),
(323,336,l),
(270,336,l),
(270,0,l)
);
}
);
width = 592;
},
{
anchors = (
{
name = bottom;
pos = (379,0);
},
{
name = top;
pos = (379,760);
},
{
name = topleft;
pos = (42,760);
}
);
annotations = (
{
pos = (404,959);
text = "Notes on Black diagonals — 10 units less on thinner stroke";
type = Text;
}
);
guides = (
{
pos = (220,199);
},
{
angle = 90;
pos = (379,-13);
}
);
layerId = "7F4E18E3-41A5-4521-AA8A-AE39B7B68B38";
shapes = (
{
closed = 1;
nodes = (
(471,180,l),
(755,760,l),
(512,760,l),
(353,374,l),
(415,374,l),
(256,760,l),
(3,760,l),
(287,180,l)
);
},
{
closed = 1;
nodes = (
(494,0,l),
(494,308,l),
(264,308,l),
(264,0,l)
);
}
);
width = 758;
},
{
anchors = (
{
name = bottom;
pos = (358,0);
},
{
name = top;
pos = (358,760);
},
{
name = topleft;
pos = (20,760);
}
);
associatedMasterId = "7F4E18E3-41A5-4521-AA8A-AE39B7B68B38";
background = {
shapes = (
{
closed = 1;
nodes = (
(477,0,l),
(752,760,l),
(523,760,l),
(320,113,l),
(404,113,l),
(201,760,l),
(-38,760,l),
(237,0,l)
);
}
);
};
guides = (
{
pos = (198,199);
}
);
layerId = "54991060-7C05-4A04-B55E-059D23AA3BC5";
name = "30 Nov 24 at 17:08";
shapes = (
{
closed = 1;
nodes = (
(448,140,l),
(713,760,l),
(482,760,l),
(335,334,l),
(390,334,l),
(248,760,l),
(2,760,l),
(266,140,l)
);
},
{
closed = 1;
nodes = (
(472,0,l),
(472,268,l),
(242,268,l),
(242,0,l)
);
}
);
width = 715;
},
{
anchors = (
{
name = bottom;
pos = (379,0);
},
{
name = top;
pos = (379,760);
},
{
name = topleft;
pos = (42,760);
}
);
annotations = (
{
pos = (404,959);
text = "Notes on Black diagonals — 10 units less on thinner stroke";
type = Text;
}
);
associatedMasterId = "7F4E18E3-41A5-4521-AA8A-AE39B7B68B38";
background = {
shapes = (
{
closed = 1;
nodes = (
(499,0,l),
(774,760,l),
(545,760,l),
(342,113,l),
(426,113,l),
(223,760,l),
(-16,760,l),
(259,0,l)
);
}
);
};
guides = (
{
pos = (220,199);
},
{
angle = 90;
pos = (379,-13);
}
);
layerId = "50947B60-C138-4AB1-807E-868ECFBAF46B";
name = "30 Nov 24 at 17:11";
shapes = (
{
closed = 1;
nodes = (
(471,140,l),
(755,760,l),
(519,760,l),
(365,334,l),
(403,334,l),
(249,760,l),
(3,760,l),
(287,140,l)
);
},
{
closed = 1;
nodes = (
(494,0,l),
(494,268,l),
(264,268,l),
(264,0,l)
);
}
);
width = 758;
},
{
anchors = (
{
name = bottom;
pos = (303,0);
},
{
name = top;
pos = (307,760);
},
{
name = topleft;
pos = (63,760);
}
);
associatedMasterId = m01;
background = {
shapes = (
{
closed = 1;
nodes = (
(312,-16,l),
(641,760,l),
(587,760,l),
(295,73,l),
(321,73,l),
(29,760,l),
(-27,760,l),
(302,-16,l)
);
}
);
};
guides = (
{
angle = 90;
pos = (307,230);
}
);
layerId = "426701B6-CBEB-41AF-8A3C-AE5632A3BB11";
name = "1 Dec 24 at 13:18";
shapes = (
{
closed = 1;
nodes = (
(312,226,l),
(608,760,l),
(553,760,l),
(300,304,l),
(316,304,l),
(63,760,l),
(6,760,l),
(302,226,l)
);
},
{
closed = 1;
nodes = (
(334,0,l),
(334,316,l),
(281,316,l),
(281,0,l)
);
}
);
width = 614;
}
);
metricLeft = "=V";
metricRight = "=V";
unicode = 89;
},
{
color = 8;
glyphname = Z;
lastChange = "2024-12-04 12:16:54 +0000";
layers = (
{
anchors = (
{
name = bottom;
pos = (356,0);
},
{
name = center;
pos = (356,380);
},
{
name = top;
pos = (356,760);
}
);
guides = (
{
angle = 270;
pos = (92,22);
},
{
angle = 90;
pos = (600,739);
}
);
layerId = m01;
shapes = (
{
closed = 1;
nodes = (
(121,0,l),
(600,717,l),
(600,760,l),
(571,760,l),
(92,43,l),
(92,0,l)
);
},
{
closed = 1;
nodes = (
(620,0,l),
(620,50,l),
(120,50,l),
(120,0,l)
);
},
{
closed = 1;
nodes = (
(589,710,l),
(589,760,l),
(102,760,l),
(102,710,l)
);
}
);
width = 712;
},
{
anchors = (
{
name = bottom;
pos = (347,0);
},
{
name = center;
pos = (347,380);
},
{
name = top;
pos = (347,760);
}
);
guides = (
{
angle = 270;
pos = (46,327);
},
{
angle = 90;
pos = (638,492);
}
);
layerId = "7F4E18E3-41A5-4521-AA8A-AE39B7B68B38";
shapes = (
{
closed = 1;
nodes = (
(215,0,l),
(638,632,l),
(638,760,l),
(469,760,l),
(46,128,l),
(46,0,l)
);
},
{
closed = 1;
nodes = (
(648,0,l),
(648,190,l),
(132,190,l),
(132,0,l)
);
},
{
closed = 1;
nodes = (
(546,570,l),
(546,760,l),
(56,760,l),
(56,570,l)
);
}
);
width = 694;
}
);
metricLeft = "=H";
metricRight = "=H";
unicode = 90;
},
{
color = 8;
glyphname = Q.001;
lastChange = "2024-11-30 01:56:50 +0000";
layers = (
{
layerId = "7F4E18E3-41A5-4521-AA8A-AE39B7B68B38";
shapes = (
{
closed = 1;
nodes = (
(851,0,l),
(587,283,l),
(366,283,l),
(630,0,l)
);
},
{
ref = O;
}
);
width = 856;
},
{
associatedMasterId = m01;
layerId = "C2E4F709-E7D6-4E19-967F-29468E11E070";
name = "30 Nov 24 at 10:32";
shapes = (
{
closed = 1;
nodes = (
(777,-121,l),
(777,-71,l),
(613,-71,ls),
(548,-71,o),
(521,-61,o),
(505,-30,cs),
(491,-4,l),
(431,-4,l),
(445,-34,ls),
(474,-95,o),
(524,-121,o),
(609,-121,cs)
);
},
{
ref = O;
}
);
width = 864;
},
{
guides = (
{
angle = 90;
pos = (432,-18);
}
);
layerId = m01;
name = Light;
shapes = (
{
closed = 1;
nodes = (
(796,0,l),
(602,204,l),
(535,204,l),
(729,0,l)
);
},
{
ref = O;
}
);
width = 864;
}
);
},
{
color = 8;
glyphname = a;
lastChange = "2024-12-06 05:35:57 +0000";
layers = (
{
anchors = (
{
name = bottom;
pos = (317,0);
},
{
name = ogonek;
pos = (620,0);
},
{
name = top;
pos = (317,550);
}
);
guides = (
{
angle = 270;
pos = (546,189);
},
{
pos = (523,-100);
}
);
layerId = m01;
shapes = (
{
closed = 1;
nodes = (
(381,-16,o),
(481,53,o),
(506,151,c),
(496,151,l),
(496,0,l),
(620,0,l),
(620,47,l),
(546,47,l),
(546,377,ls),
(546,493,o),
(448,566,o),
(317,566,cs),
(185,566,o),
(93,494,o),
(89,366,c),
(137,366,l),
(140,465,o),
(214,520,o),
(317,520,cs),
(418,520,o),
(496,465,o),
(496,377,cs),
(496,357,l),
(354,332,ls),
(150,297,o),
(82,250,o),
(82,146,cs),
(82,51,o),
(157,-16,o),
(264,-16,cs)
);
},
{
closed = 1;
nodes = (
(188,30,o),
(134,75,o),
(134,146,cs),
(134,226,o),
(190,262,o),
(356,291,cs),
(496,315,l),
(496,258,ls),
(496,130,o),
(398,30,o),
(274,30,cs)
);
}
);
width = 661;
},
{
associatedMasterId = m01;
backgroundImage = {
imagePath = "/var/folders/5k/6t5s5z6x64zbq6w952rby05w0000gn/T/TemporaryItems/NSIRD_screencaptureui_nL3tOU/Screenshot 2024-11-19 at 2.28.38 pm.png";
locked = 1;
pos = (-16,-141);
scale = (4.8026,4.8026);
};
layerId = "FB98321B-86C3-4053-9D7E-5B92069BF345";
name = "19 Nov 24 at 14:36";
shapes = (
{
closed = 1;
nodes = (
(532,0,l),
(532,45,l),
(465,45,l),
(465,344,ls),
(465,450,o),
(387,516,o),
(263,516,cs),
(138,516,o),
(60,446,o),
(60,334,c),
(112,334,l),
(112,418,o),
(169,470,o),
(261,470,cs),
(354,470,o),
(413,421,o),
(413,344,cs),
(413,0,l)
);
},
{
closed = 1;
nodes = (
(310,-15,o),
(372,22,o),
(411,96,c),
(439,96,l),
(439,235,l),
(413,235,l),
(413,115,o),
(335,31,o),
(225,31,cs),
(152,31,o),
(100,73,o),
(100,133,cs),
(100,207,o),
(151,240,o),
(303,266,cs),
(434,289,l),
(434,335,l),
(303,312,ls),
(113,280,o),
(50,235,o),
(50,133,cs),
(50,46,o),
(122,-15,o),
(225,-15,cs)
);
}
);
width = 600;
},
{
associatedMasterId = m01;
layerId = "27624D7B-44EE-4E60-B623-7177ADFB023A";
name = "19 Nov 24 at 14:47";
shapes = (
{
closed = 1;
nodes = (
(532,0,l),
(532,45,l),
(465,45,l),
(465,344,ls),
(465,450,o),
(387,516,o),
(263,516,cs),
(138,516,o),
(60,446,o),
(60,334,c),
(112,334,l),
(112,418,o),
(170,470,o),
(263,470,cs),
(355,470,o),
(413,421,o),
(413,344,cs),
(413,0,l)
);
},
{
closed = 1;
nodes = (
(296,-15,o),
(377,31,o),
(411,96,c),
(439,96,l),
(439,235,l),
(413,235,l),
(413,121,o),
(326,31,o),
(215,31,cs),
(136,31,o),
(80,73,o),
(80,133,cs),
(80,199,o),
(148,240,o),
(303,267,cs),
(434,290,l),
(434,335,l),
(303,312,ls),
(113,279,o),
(30,225,o),
(30,133,cs),
(30,46,o),
(106,-15,o),
(215,-15,cs)
);
}
);
width = 542;
},
{
anchors = (
{
name = bottom;
pos = (348,0);
},
{
name = ogonek;
pos = (694,0);
},
{
name = top;
pos = (348,580);
}
);
guides = (
{
angle = 270;
pos = (424,149);
},
{
angle = 90;
pos = (644,178);
}
);
layerId = "7F4E18E3-41A5-4521-AA8A-AE39B7B68B38";
shapes = (
{
closed = 1;
nodes = (
(310,-16,o),
(382,16,o),
(449,92,c),
(424,97,l),
(456,0,l),
(694,0,l),
(694,165,l),
(644,165,l),
(644,356,ls),
(644,503,o),
(529,596,o),
(347,596,cs),
(181,596,o),
(60,497,o),
(55,356,c),
(261,356,l),
(265,402,o),
(296,431,o),
(342,431,cs),
(392,431,o),
(424,402,o),
(424,356,cs),
(424,355,l),
(264,324,ls),
(109,295,o),
(41,241,o),
(41,147,cs),
(41,47,o),
(115,-16,o),
(232,-16,cs)
);
},
{
closed = 1;
nodes = (
(280,137,o),
(269,147,o),
(269,166,cs),
(269,195,o),
(310,214,o),
(417,234,cs),
(424,235,l),
(424,224,ls),
(424,175,o),
(370,137,o),
(301,137,cs)
);
}
);
width = 715;
},
{
associatedMasterId = "7F4E18E3-41A5-4521-AA8A-AE39B7B68B38";
layerId = "42A9C9EC-DE72-46FF-9EFB-5C4862174BAC";
name = "19 Nov 24 at 21:10";
shapes = (
{
closed = 1;
nodes = (
(602,0,l),
(602,90,l),
(557,90,l),
(557,344,ls),
(557,474,o),
(445,566,o),
(285,566,cs),
(125,566,o),
(12,470,o),
(12,334,c),
(184,334,l),
(184,403,o),
(223,446,o),
(285,446,cs),
(346,446,o),
(385,407,o),
(385,344,cs),
(385,0,l)
);
},
{
closed = 1;
nodes = (
(272,-16,o),
(340,21,o),
(376,87,c),
(461,87,l),
(461,252,l),
(385,252,l),
(385,169,o),
(320,104,o),
(237,104,cs),
(197,104,o),
(172,125,o),
(172,158,cs),
(172,205,o),
(227,241,o),
(325,258,cs),
(456,281,l),
(456,355,l),
(217,310,ls),
(60,280,o),
(0,235,o),
(0,146,cs),
(0,46,o),
(71,-16,o),
(185,-16,cs)
);
}
);
width = 622;
},
{
associatedMasterId = "7F4E18E3-41A5-4521-AA8A-AE39B7B68B38";
layerId = "F24D06AE-E418-4562-85C1-650035890856";
name = "19 Nov 24 at 21:17";
shapes = (
{
closed = 1;
nodes = (
(627,0,l),
(627,110,l),
(582,110,l),
(582,344,ls),
(582,474,o),
(470,566,o),
(310,566,cs),
(150,566,o),
(37,470,o),
(37,334,c),
(209,334,l),
(209,403,o),
(248,446,o),
(310,446,cs),
(371,446,o),
(410,407,o),
(410,344,cs),
(410,0,l)
);
},
{
closed = 1;
nodes = (
(296,-16,o),
(365,21,o),
(401,87,c),
(486,87,l),
(486,252,l),
(410,252,l),
(410,169,o),
(342,104,o),
(255,104,cs),
(211,104,o),
(187,123,o),
(187,158,cs),
(187,199,o),
(241,229,o),
(350,248,cs),
(481,271,l),
(481,370,l),
(242,325,ls),
(90,296,o),
(15,237,o),
(15,146,cs),
(15,46,o),
(90,-16,o),
(210,-16,cs)
);
}
);
width = 647;
},
{
associatedMasterId = "7F4E18E3-41A5-4521-AA8A-AE39B7B68B38";
layerId = "A80BF08F-6760-4785-AC5C-532680E31F02";
name = "19 Nov 24 at 21:46";
shapes = (
{
closed = 1;
nodes = (
(675,0,l),
(675,160,l),
(630,160,l),
(630,344,ls),
(630,480,o),
(514,566,o),
(330,566,cs),
(145,566,o),
(29,477,o),
(29,334,c),
(249,334,l),
(249,369,o),
(285,396,o),
(330,396,cs),
(375,396,o),
(410,373,o),
(410,344,cs),
(410,0,l)
);
},
{
closed = 1;
nodes = (
(288,-16,o),
(355,13,o),
(401,73,c),
(486,73,l),
(486,223,l),
(410,223,l),
(410,168,o),
(347,124,o),
(267,124,cs),
(247,124,o),
(236,134,o),
(236,152,cs),
(236,181,o),
(291,204,o),
(417,226,cs),
(501,241,l),
(501,365,l),
(216,311,ls),
(82,285,o),
(15,230,o),
(15,146,cs),
(15,46,o),
(86,-16,o),
(200,-16,cs)
);
}
);
width = 667;
},
{
associatedMasterId = "7F4E18E3-41A5-4521-AA8A-AE39B7B68B38";
layerId = "41B43E99-085E-45CB-965A-BA7B6E2A4380";
name = "19 Nov 24 at 22:08";
shapes = (
{
closed = 1;
nodes = (
(675,0,l),
(675,105,l),
(630,105,l),
(630,344,ls),
(630,480,o),
(514,566,o),
(330,566,cs),
(153,566,o),
(29,478,o),
(29,354,c),
(249,354,l),
(249,378,o),
(285,396,o),
(330,396,cs),
(375,396,o),
(410,378,o),
(410,354,cs),
(410,0,l)
);
},
{
closed = 1;
nodes = (
(288,-16,o),
(355,13,o),
(401,73,c),
(486,73,l),
(486,223,l),
(410,223,l),
(410,168,o),
(347,124,o),
(267,124,cs),
(247,124,o),
(236,134,o),
(236,152,cs),
(236,181,o),
(291,204,o),
(417,226,cs),
(501,241,l),
(501,375,l),
(216,321,ls),
(87,296,o),
(15,233,o),
(15,146,cs),
(15,46,o),
(86,-16,o),
(200,-16,cs)
);
},
{
closed = 1;
nodes = (
(418,595,l),
(631,809,l),
(417,809,l),
(292,595,l)
);
}
);
width = 680;
},
{
associatedMasterId = "7F4E18E3-41A5-4521-AA8A-AE39B7B68B38";
layerId = "DF0A4B12-058E-4FD3-B148-6323766AF223";
name = "20 Nov 24 at 14:10";
shapes = (
{
closed = 1;
nodes = (
(685,0,l),
(685,105,l),
(640,105,l),
(640,344,ls),
(640,474,o),
(520,566,o),
(350,566,cs),
(176,566,o),
(54,478,o),
(54,354,c),
(274,354,l),
(274,378,o),
(307,396,o),
(350,396,cs),
(389,396,o),
(420,378,o),
(420,354,cs),
(420,0,l)
);
},
{
closed = 1;
nodes = (
(288,-16,o),
(375,17,o),
(411,63,c),
(496,63,l),
(496,243,l),
(420,243,l),
(420,187,o),
(355,144,o),
(272,144,cs),
(246,144,o),
(236,150,o),
(236,164,cs),
(236,197,o),
(299,224,o),
(427,246,cs),
(511,261,l),
(511,375,l),
(216,321,ls),
(87,297,o),
(15,233,o),
(15,146,cs),
(15,46,o),
(86,-16,o),
(200,-16,cs)
);
},
{
closed = 1;
nodes = (
(408,595,l),
(621,809,l),
(427,809,l),
(302,595,l)
);
}
);
width = 690;
},
{
associatedMasterId = m01;
layerId = "5403C3E4-DE5C-4D86-B297-FDF9538637B8";
name = "20 Nov 24 at 14:10";
shapes = (
{
closed = 1;
nodes = (
(532,0,l),
(532,45,l),
(465,45,l),
(465,344,ls),
(465,450,o),
(387,516,o),
(263,516,cs),
(138,516,o),
(60,446,o),
(60,334,c),
(112,334,l),
(112,418,o),
(170,470,o),
(263,470,cs),
(355,470,o),
(413,421,o),
(413,344,cs),
(413,0,l)
);
},
{
closed = 1;
nodes = (
(295,-16,o),
(370,30,o),
(409,103,c),
(439,103,l),
(439,235,l),
(413,235,l),
(413,121,o),
(326,30,o),
(215,30,cs),
(137,30,o),
(82,73,o),
(82,133,cs),
(82,206,o),
(149,250,o),
(303,277,cs),
(434,300,l),
(434,345,l),
(303,322,ls),
(113,289,o),
(30,232,o),
(30,133,cs),
(30,46,o),
(106,-16,o),
(215,-16,cs)
);
},
{
closed = 1;
nodes = (
(277,595,l),
(422,784,l),
(357,784,l),
(248,595,l)
);
}
);
width = 542;
},
{
associatedMasterId = "7F4E18E3-41A5-4521-AA8A-AE39B7B68B38";
layerId = "27391F72-E1A0-432B-9268-1020A34A292F";
name = "20 Nov 24 at 16:22";
shapes = (
{
closed = 1;
nodes = (
(675,0,l),
(675,105,l),
(630,105,l),
(630,344,ls),
(630,474,o),
(510,566,o),
(340,566,cs),
(166,566,o),
(44,478,o),
(44,354,c),
(264,354,l),
(264,378,o),
(297,396,o),
(340,396,cs),
(379,396,o),
(410,378,o),
(410,354,cs),
(410,0,l)
);
},
{
closed = 1;
nodes = (
(286,-16,o),
(355,13,o),
(410,73,c),
(486,73,l),
(486,223,l),
(410,223,l),
(410,168,o),
(347,124,o),
(267,124,cs),
(247,124,o),
(236,134,o),
(236,152,cs),
(236,181,o),
(291,204,o),
(417,226,cs),
(501,241,l),
(501,375,l),
(216,321,ls),
(87,296,o),
(15,233,o),
(15,146,cs),
(15,46,o),
(86,-16,o),
(200,-16,cs)
);
},
{
closed = 1;
nodes = (
(398,595,l),
(611,809,l),
(417,809,l),
(292,595,l)
);
}
);
width = 680;
},
{
associatedMasterId = "7F4E18E3-41A5-4521-AA8A-AE39B7B68B38";
layerId = "3C7F1B7C-20A7-4CE3-973A-752F8415FD6E";
name = "20 Nov 24 at 16:30";
shapes = (
{
closed = 1;
nodes = (
(675,0,l),
(675,105,l),
(630,105,l),
(630,344,ls),
(630,474,o),
(510,566,o),
(340,566,cs),
(166,566,o),
(44,478,o),
(44,354,c),
(264,354,l),
(264,378,o),
(297,396,o),
(340,396,cs),
(379,396,o),
(410,378,o),
(410,354,cs),
(410,0,l)
);
},
{
closed = 1;
nodes = (
(286,-16,o),
(355,13,o),
(410,73,c),
(486,73,l),
(486,223,l),
(410,239,l),
(410,184,o),
(347,140,o),
(267,140,cs),
(247,140,o),
(236,150,o),
(236,168,cs),
(236,197,o),
(291,220,o),
(417,242,cs),
(501,257,l),
(501,375,l),
(216,321,ls),
(87,296,o),
(15,233,o),
(15,146,cs),
(15,46,o),
(86,-16,o),
(200,-16,cs)
);
},
{
closed = 1;
nodes = (
(398,595,l),
(611,809,l),
(417,809,l),
(292,595,l)
);
}
);
width = 680;
},
{
associatedMasterId = "7F4E18E3-41A5-4521-AA8A-AE39B7B68B38";
layerId = "259D7913-D9E3-4243-9C69-B863EFCA3BD1";
name = "20 Nov 24 at 18:26";
shapes = (
{
closed = 1;
nodes = (
(648,0,l),
(648,140,l),
(610,140,l),
(610,344,ls),
(610,480,o),
(502,566,o),
(330,566,cs),
(168,566,o),
(54,478,o),
(54,354,c),
(274,354,l),
(274,379,o),
(297,396,o),
(330,396,cs),
(365,396,o),
(390,379,o),
(390,354,cs),
(390,73,l),
(443,0,l)
);
},
{
closed = 1;
nodes = (
(276,-16,o),
(334,11,o),
(390,73,c),
(466,73,l),
(466,223,l),
(390,239,l),
(390,178,o),
(343,140,o),
(267,140,cs),
(247,140,o),
(236,150,o),
(236,168,cs),
(236,197,o),
(294,224,o),
(397,242,cs),
(481,257,l),
(481,375,l),
(235,328,ls),
(82,299,o),
(15,243,o),
(15,146,cs),
(15,46,o),
(86,-16,o),
(200,-16,cs)
);
},
{
closed = 1;
nodes = (
(378,595,l),
(591,809,l),
(397,809,l),
(272,595,l)
);
}
);
width = 653;
},
{
associatedMasterId = m01;
layerId = "F72BE614-4B73-4A85-9177-CBF134DC8C58";
name = "20 Nov 24 at 18:26";
shapes = (
{
closed = 1;
nodes = (
(532,0,l),
(532,45,l),
(465,45,l),
(465,344,ls),
(465,450,o),
(387,516,o),
(263,516,cs),
(138,516,o),
(60,446,o),
(60,334,c),
(112,334,l),
(112,418,o),
(170,470,o),
(263,470,cs),
(355,470,o),
(413,421,o),
(413,344,cs),
(413,103,l),
(413,0,l)
);
},
{
closed = 1;
nodes = (
(294,-16,o),
(376,33,o),
(413,103,c),
(439,103,l),
(439,235,l),
(413,235,l),
(413,121,o),
(326,30,o),
(215,30,cs),
(137,30,o),
(82,73,o),
(82,133,cs),
(82,206,o),
(149,250,o),
(303,277,cs),
(434,300,l),
(434,345,l),
(303,322,ls),
(113,289,o),
(30,232,o),
(30,133,cs),
(30,46,o),
(106,-16,o),
(215,-16,cs)
);
},
{
closed = 1;
nodes = (
(277,595,l),
(422,784,l),
(357,784,l),
(248,595,l)
);
}
);
width = 542;
},
{
associatedMasterId = "7F4E18E3-41A5-4521-AA8A-AE39B7B68B38";
layerId = "9913A33A-7F9B-4ED2-8482-AA0FAE64B14D";
name = "20 Nov 24 at 19:19";
shapes = (
{
closed = 1;
nodes = (
(610,0,l),
(610,344,ls),
(610,480,o),
(502,566,o),
(330,566,cs),
(168,566,o),
(54,478,o),
(54,354,c),
(274,354,l),
(274,379,o),
(297,396,o),
(330,396,cs),
(365,396,o),
(390,379,o),
(390,354,cs),
(390,73,l),
(443,0,l)
);
},
{
closed = 1;
nodes = (
(276,-16,o),
(334,11,o),
(390,73,c),
(466,73,l),
(466,223,l),
(390,239,l),
(390,178,o),
(343,140,o),
(267,140,cs),
(247,140,o),
(236,150,o),
(236,168,cs),
(236,197,o),
(294,224,o),
(397,242,cs),
(481,257,l),
(481,375,l),
(235,328,ls),
(82,299,o),
(15,243,o),
(15,146,cs),
(15,46,o),
(86,-16,o),
(200,-16,cs)
);
},
{
closed = 1;
nodes = (
(378,595,l),
(591,809,l),
(397,809,l),
(272,595,l)
);
}
);
width = 653;
},
{
associatedMasterId = "7F4E18E3-41A5-4521-AA8A-AE39B7B68B38";
layerId = "19E0E2DD-C457-46D4-80FC-AD17DF9BFB4E";
name = "21 Nov 24 at 07:50";
shapes = (
{
closed = 1;
nodes = (
(598,0,l),
(598,344,ls),
(598,480,o),
(490,566,o),
(318,566,cs),
(156,566,o),
(42,478,o),
(42,354,c),
(262,354,l),
(262,379,o),
(285,396,o),
(318,396,cs),
(353,396,o),
(378,379,o),
(378,354,cs),
(378,73,l),
(431,0,l)
);
},
{
closed = 1;
nodes = (
(271,-16,o),
(320,9,o),
(378,73,c),
(454,73,l),
(454,223,l),
(378,239,l),
(378,178,o),
(343,140,o),
(267,140,cs),
(247,140,o),
(236,150,o),
(236,168,cs),
(236,194,o),
(281,214,o),
(385,232,cs),
(469,247,l),
(469,365,l),
(223,318,ls),
(84,292,o),
(15,235,o),
(15,146,cs),
(15,46,o),
(86,-16,o),
(200,-16,cs)
);
},
{
closed = 1;
nodes = (
(366,595,l),
(579,809,l),
(385,809,l),
(260,595,l)
);
}
);
width = 641;
},
{
associatedMasterId = "7F4E18E3-41A5-4521-AA8A-AE39B7B68B38";
layerId = "5D259199-89F9-4E03-A129-9B19CC52BD94";
name = "21 Nov 24 at 08:29";
shapes = (
{
closed = 1;
nodes = (
(618,0,l),
(618,344,ls),
(618,480,o),
(506,566,o),
(328,566,cs),
(160,566,o),
(42,474,o),
(42,344,c),
(262,344,l),
(262,375,o),
(289,396,o),
(328,396,cs),
(369,396,o),
(398,375,o),
(398,344,cs),
(398,73,l),
(451,0,l)
);
},
{
closed = 1;
nodes = (
(280,-16,o),
(344,13,o),
(398,73,c),
(474,73,l),
(474,223,l),
(398,239,l),
(398,178,o),
(349,140,o),
(270,140,cs),
(248,140,o),
(239,147,o),
(239,163,cs),
(239,192,o),
(281,209,o),
(405,232,cs),
(489,247,l),
(489,365,l),
(216,318,ls),
(82,295,o),
(15,238,o),
(15,146,cs),
(15,42,o),
(82,-16,o),
(203,-16,cs)
);
},
{
closed = 1;
nodes = (
(376,595,l),
(589,809,l),
(395,809,l),
(270,595,l)
);
}
);
width = 653;
},
{
associatedMasterId = m01;
layerId = "C95A52FC-71D4-4BEF-B618-13D0A4D274C7";
name = "22 Nov 24 at 21:02";
shapes = (
{
closed = 1;
nodes = (
(481,0,l),
(481,344,ls),
(481,450,o),
(404,516,o),
(281,516,cs),
(159,516,o),
(82,446,o),
(82,334,c),
(130,334,l),
(130,418,o),
(188,470,o),
(281,470,cs),
(373,470,o),
(431,421,o),
(431,344,cs),
(431,103,l),
(431,0,l)
);
},
{
closed = 1;
nodes = (
(312,-16,o),
(394,33,o),
(431,103,c),
(457,103,l),
(457,235,l),
(431,235,l),
(431,121,o),
(344,30,o),
(233,30,cs),
(155,30,o),
(100,73,o),
(100,133,cs),
(100,206,o),
(167,250,o),
(321,277,cs),
(452,300,l),
(452,345,l),
(321,322,ls),
(131,289,o),
(48,232,o),
(48,133,cs),
(48,46,o),
(124,-16,o),
(233,-16,cs)
);
},
{
closed = 1;
nodes = (
(295,605,l),
(440,794,l),
(375,794,l),
(266,605,l)
);
}
);
width = 551;
},
{
associatedMasterId = m01;
layerId = "15D4DCFE-86DC-49B4-A815-BB9600B5CB05";
name = "25 Nov 24 at 10:01";
shapes = (
{
closed = 1;
nodes = (
(481,0,l),
(481,344,ls),
(481,450,o),
(404,516,o),
(281,516,cs),
(159,516,o),
(82,446,o),
(82,334,c),
(130,334,l),
(130,418,o),
(188,470,o),
(281,470,cs),
(373,470,o),
(431,421,o),
(431,344,cs),
(431,103,l),
(431,0,l)
);
},
{
closed = 1;
nodes = (
(312,-16,o),
(394,33,o),
(431,103,c),
(457,103,l),
(457,235,l),
(431,235,l),
(431,121,o),
(344,30,o),
(233,30,cs),
(155,30,o),
(100,73,o),
(100,133,cs),
(100,206,o),
(167,250,o),
(321,277,cs),
(452,300,l),
(452,345,l),
(321,322,ls),
(131,289,o),
(48,232,o),
(48,133,cs),
(48,46,o),
(124,-16,o),
(233,-16,cs)
);
},
{
closed = 1;
nodes = (
(295,605,l),
(440,794,l),
(375,794,l),
(266,605,l)
);
}
);
width = 551;
},
{
associatedMasterId = m01;
layerId = "E10EC986-71D5-4E17-A6C7-C4B0710FBF03";
name = "25 Nov 24 at 10:08";
shapes = (
{
closed = 1;
nodes = (
(516,0,l),
(516,377,ls),
(516,493,o),
(433,566,o),
(302,566,cs),
(171,566,o),
(89,489,o),
(89,366,c),
(137,366,l),
(137,461,o),
(201,520,o),
(302,520,cs),
(403,520,o),
(466,465,o),
(466,377,cs),
(466,114,l),
(466,0,l)
);
},
{
closed = 1;
nodes = (
(337,-16,o),
(426,38,o),
(466,114,c),
(495,114,l),
(495,258,l),
(466,258,l),
(466,124,o),
(377,30,o),
(250,30,cs),
(162,30,o),
(100,78,o),
(100,146,cs),
(100,229,o),
(175,278,o),
(345,308,cs),
(489,333,l),
(489,378,l),
(345,353,ls),
(138,317,o),
(48,254,o),
(48,146,cs),
(48,51,o),
(131,-16,o),
(250,-16,cs)
);
},
{
closed = 1;
nodes = (
(299,645,l),
(444,834,l),
(375,834,l),
(266,645,l)
);
}
);
width = 586;
},
{
associatedMasterId = "7F4E18E3-41A5-4521-AA8A-AE39B7B68B38";
layerId = "960209CE-38AB-4320-9ED4-1AD0582EFACE";
name = "25 Nov 24 at 10:22";
shapes = (
{
closed = 1;
nodes = (
(607,0,l),
(607,344,ls),
(607,480,o),
(495,566,o),
(317,566,cs),
(161,566,o),
(51,474,o),
(51,344,c),
(251,344,l),
(251,375,o),
(278,396,o),
(317,396,cs),
(358,396,o),
(387,375,o),
(387,344,cs),
(387,63,l),
(440,0,l)
);
},
{
closed = 1;
nodes = (
(275,-16,o),
(329,8,o),
(387,63,c),
(463,63,l),
(463,223,l),
(387,235,l),
(387,174,o),
(352,136,o),
(276,136,cs),
(256,136,o),
(245,146,o),
(245,164,cs),
(245,190,o),
(290,210,o),
(394,228,cs),
(478,243,l),
(478,361,l),
(232,314,ls),
(93,288,o),
(24,231,o),
(24,142,cs),
(24,42,o),
(95,-16,o),
(209,-16,cs)
);
},
{
closed = 1;
nodes = (
(365,595,l),
(578,809,l),
(384,809,l),
(259,595,l)
);
}
);
width = 642;
},
{
associatedMasterId = m01;
layerId = "9AEC6CF0-3C3E-4143-8001-E40A1336D86A";
name = "25 Nov 24 at 21:08";
shapes = (
{
closed = 1;
nodes = (
(351,-16,o),
(451,53,o),
(476,141,c),
(466,159,l),
(466,0,l),
(516,0,l),
(516,377,ls),
(516,493,o),
(433,566,o),
(302,566,cs),
(171,566,o),
(89,489,o),
(89,366,c),
(137,366,l),
(137,461,o),
(201,520,o),
(302,520,cs),
(403,520,o),
(466,465,o),
(466,377,c),
(345,356,ls),
(138,320,o),
(48,256,o),
(48,146,cs),
(48,51,o),
(131,-16,o),
(250,-16,cs)
);
},
{
closed = 1;
nodes = (
(162,30,o),
(100,78,o),
(100,146,cs),
(100,231,o),
(175,281,o),
(345,311,cs),
(466,332,l),
(466,258,ls),
(466,118,o),
(383,30,o),
(250,30,cs)
);
},
{
closed = 1;
nodes = (
(299,645,l),
(444,834,l),
(375,834,l),
(266,645,l)
);
}
);
width = 586;
},
{
associatedMasterId = "7F4E18E3-41A5-4521-AA8A-AE39B7B68B38";
guides = (
{
angle = 270;
pos = (407,149);
},
{
angle = 90;
pos = (627,178);
}
);
layerId = "9D4B3620-636B-4878-9F66-8885F3696155";
name = "25 Nov 24 at 21:09";
shapes = (
{
closed = 1;
nodes = (
(293,-16,o),
(365,16,o),
(432,92,c),
(386,97,l),
(454,0,l),
(627,0,l),
(627,356,ls),
(627,503,o),
(515,596,o),
(337,596,cs),
(170,596,o),
(52,497,o),
(52,356,c),
(258,356,l),
(258,405,o),
(287,436,o),
(332,436,cs),
(378,436,o),
(407,405,o),
(407,356,c),
(247,325,ls),
(103,298,o),
(24,239,o),
(24,147,cs),
(24,47,o),
(98,-16,o),
(215,-16,cs)
);
},
{
closed = 1;
nodes = (
(263,127,o),
(252,138,o),
(252,159,cs),
(252,191,o),
(301,216,o),
(400,234,cs),
(407,235,l),
(407,214,ls),
(407,165,o),
(353,127,o),
(284,127,cs)
);
},
{
closed = 1;
nodes = (
(380,625,l),
(596,844,l),
(402,844,l),
(279,625,l)
);
}
);
width = 662;
},
{
anchors = (
{
name = bottom;
pos = (331,0);
},
{
name = ogonek;
pos = (596,10);
},
{
name = top;
pos = (331,580);
}
);
associatedMasterId = "7F4E18E3-41A5-4521-AA8A-AE39B7B68B38";
guides = (
{
angle = 270;
pos = (407,149);
},
{
angle = 90;
pos = (627,178);
}
);
layerId = "06345BF6-C4A9-4CEC-A713-28676B4C7D04";
name = "26 Nov 24 at 13:14";
shapes = (
{
closed = 1;
nodes = (
(293,-16,o),
(365,16,o),
(432,92,c),
(386,97,l),
(454,0,l),
(627,0,l),
(627,356,ls),
(627,503,o),
(515,596,o),
(337,596,cs),
(170,596,o),
(52,497,o),
(52,356,c),
(258,356,l),
(258,405,o),
(287,436,o),
(332,436,cs),
(378,436,o),
(407,405,o),
(407,356,cs),
(407,351,l),
(247,320,ls),
(92,291,o),
(24,238,o),
(24,147,cs),
(24,47,o),
(98,-16,o),
(215,-16,cs)
);
},
{
closed = 1;
nodes = (
(263,127,o),
(252,138,o),
(252,159,cs),
(252,191,o),
(301,211,o),
(400,229,cs),
(407,230,l),
(407,214,ls),
(407,165,o),
(353,127,o),
(284,127,cs)
);
}
);
width = 662;
},
{
anchors = (
{
name = bottom;
pos = (331,0);
},
{
name = ogonek;
pos = (627,0);
},
{
name = top;
pos = (331,580);
}
);
associatedMasterId = "7F4E18E3-41A5-4521-AA8A-AE39B7B68B38";
guides = (
{
angle = 270;
pos = (407,149);
},
{
angle = 90;
pos = (627,178);
}
);
layerId = "D7B77465-6395-4C0D-A428-ADE3960F6897";
name = "30 Nov 24 at 13:00";
shapes = (
{
closed = 1;
nodes = (
(293,-16,o),
(365,16,o),
(432,92,c),
(386,97,l),
(454,0,l),
(627,0,l),
(627,356,ls),
(627,503,o),
(515,596,o),
(337,596,cs),
(175,596,o),
(57,497,o),
(52,356,c),
(258,356,l),
(263,407,o),
(290,436,o),
(332,436,cs),
(378,436,o),
(407,405,o),
(407,356,cs),
(407,351,l),
(247,320,ls),
(92,291,o),
(24,238,o),
(24,147,cs),
(24,47,o),
(98,-16,o),
(215,-16,cs)
);
},
{
closed = 1;
nodes = (
(263,127,o),
(252,138,o),
(252,159,cs),
(252,191,o),
(301,211,o),
(400,229,cs),
(407,230,l),
(407,214,ls),
(407,165,o),
(353,127,o),
(284,127,cs)
);
}
);
width = 662;
},
{
anchors = (
{
name = bottom;
pos = (337,0);
},
{
name = ogonek;
pos = (633,0);
},
{
name = top;
pos = (337,580);
}
);
associatedMasterId = "7F4E18E3-41A5-4521-AA8A-AE39B7B68B38";
guides = (
{
angle = 270;
pos = (413,149);
},
{
angle = 90;
pos = (633,178);
}
);
layerId = "61109E55-DD13-47E1-878E-C1C2457F5D7F";
name = "5 Dec 24 at 11:54";
shapes = (
{
closed = 1;
nodes = (
(299,-16,o),
(371,16,o),
(438,92,c),
(392,97,l),
(460,0,l),
(633,0,l),
(633,356,ls),
(633,503,o),
(521,596,o),
(343,596,cs),
(181,596,o),
(63,497,o),
(58,356,c),
(264,356,l),
(268,398,o),
(294,421,o),
(338,421,cs),
(386,421,o),
(413,398,o),
(413,356,cs),
(413,354,l),
(253,323,ls),
(98,294,o),
(30,240,o),
(30,147,cs),
(30,47,o),
(104,-16,o),
(221,-16,cs)
);
},
{
closed = 1;
nodes = (
(269,127,o),
(258,137,o),
(258,156,cs),
(258,185,o),
(299,204,o),
(406,224,cs),
(413,225,l),
(413,214,ls),
(413,165,o),
(359,127,o),
(290,127,cs)
);
}
);
width = 674;
},
{
anchors = (
{
name = bottom;
pos = (295,0);
},
{
name = ogonek;
pos = (508,0);
},
{
name = top;
pos = (295,550);
}
);
associatedMasterId = m01;
guides = (
{
angle = 270;
pos = (508,189);
},
{
pos = (485,-100);
}
);
layerId = "DEA5D2F6-2A26-49D8-B377-F0F167F02A87";
name = "6 Dec 24 at 11:44";
shapes = (
{
closed = 1;
nodes = (
(339,-16,o),
(443,53,o),
(468,141,c),
(458,159,l),
(458,0,l),
(508,0,l),
(508,377,ls),
(508,493,o),
(425,566,o),
(294,566,cs),
(162,566,o),
(85,494,o),
(81,366,c),
(129,366,l),
(132,465,o),
(191,520,o),
(294,520,cs),
(395,520,o),
(458,465,o),
(458,377,cs),
(458,357,l),
(337,336,ls),
(137,301,o),
(60,249,o),
(60,146,cs),
(60,46,o),
(126,-16,o),
(232,-16,cs)
);
},
{
closed = 1;
nodes = (
(155,30,o),
(112,72,o),
(112,146,cs),
(112,225,o),
(169,265,o),
(318,291,cs),
(458,315,l),
(458,258,ls),
(458,118,o),
(371,30,o),
(232,30,cs)
);
}
);
width = 590;
},
{
anchors = (
{
name = bottom;
pos = (337,0);
},
{
name = ogonek;
pos = (633,0);
},
{
name = top;
pos = (337,580);
}
);
associatedMasterId = "7F4E18E3-41A5-4521-AA8A-AE39B7B68B38";
guides = (
{
angle = 270;
pos = (413,149);
},
{
angle = 90;
pos = (633,178);
}
);
layerId = "998A1AD8-0868-42A0-A65B-0802853783D8";
name = "6 Dec 24 at 11:53";
shapes = (
{
closed = 1;
nodes = (
(299,-16,o),
(371,16,o),
(438,92,c),
(392,97,l),
(460,0,l),
(633,0,l),
(633,356,ls),
(633,503,o),
(521,596,o),
(343,596,cs),
(181,596,o),
(63,497,o),
(58,356,c),
(264,356,l),
(268,402,o),
(297,431,o),
(338,431,cs),
(384,431,o),
(413,402,o),
(413,356,cs),
(413,355,l),
(253,324,ls),
(98,295,o),
(30,241,o),
(30,147,cs),
(30,47,o),
(104,-16,o),
(221,-16,cs)
);
},
{
closed = 1;
nodes = (
(269,137,o),
(258,147,o),
(258,166,cs),
(258,195,o),
(299,214,o),
(406,234,cs),
(413,235,l),
(413,224,ls),
(413,175,o),
(359,137,o),
(290,137,cs)
);
}
);
width = 674;
}
);
metricLeft = "=n";
metricRight = "=n*0.5";
unicode = 97;
},
{
color = 8;
glyphname = ae;
lastChange = "2024-12-06 05:34:04 +0000";
layers = (
{
guides = (
{
pos = (742,520);
},
{
pos = (815,30);
}
);
layerId = m01;
shapes = (
{
closed = 1;
nodes = (
(387,-16,o),
(479,47,o),
(511,159,c),
(480,159,l),
(480,146,l),
(530,146,l),
(530,377,ls),
(530,493,o),
(447,566,o),
(316,566,cs),
(184,566,o),
(107,494,o),
(103,366,c),
(151,366,l),
(154,465,o),
(213,520,o),
(316,520,cs),
(417,520,o),
(480,465,o),
(480,377,cs),
(480,327,l),
(406,327,ls),
(172,327,o),
(82,277,o),
(82,146,cs),
(82,46,o),
(148,-16,o),
(254,-16,cs)
);
},
{
closed = 1;
nodes = (
(177,30,o),
(134,72,o),
(134,146,cs),
(134,249,o),
(197,283,o),
(387,283,cs),
(480,283,l),
(480,258,ls),
(480,118,o),
(393,30,o),
(254,30,cs)
);
},
{
closed = 1;
nodes = (
(899,-16,o),
(995,69,o),
(1001,205,c),
(953,205,l),
(945,93,o),
(873,30,o),
(752,30,cs),
(617,30,o),
(532,124,o),
(532,275,cs),
(532,426,o),
(613,520,o),
(742,520,cs),
(867,520,o),
(937,445,o),
(937,312,c),
(980,327,l),
(507,327,l),
(507,283,l),
(991,283,l),
(991,465,o),
(902,566,o),
(742,566,cs),
(581,566,o),
(480,454,o),
(480,275,cs),
(480,96,o),
(585,-16,o),
(752,-16,cs)
);
}
);
width = 1061;
},
{
layerId = "7F4E18E3-41A5-4521-AA8A-AE39B7B68B38";
shapes = (
{
closed = 1;
nodes = (
(424,-16,o),
(517,39,o),
(542,136,c),
(456,171,l),
(471,117,l),
(614,117,l),
(614,356,ls),
(614,497,o),
(507,596,o),
(354,596,cs),
(184,596,o),
(74,511,o),
(69,376,c),
(275,376,l),
(278,408,o),
(308,431,o),
(349,431,cs),
(393,431,o),
(424,408,o),
(424,376,cs),
(424,355,l),
(375,355,ls),
(152,355,o),
(41,289,o),
(41,157,cs),
(41,48,o),
(121,-16,o),
(283,-16,cs)
);
},
{
closed = 1;
nodes = (
(287,137,o),
(269,150,o),
(269,176,cs),
(269,219,o),
(318,241,o),
(417,241,cs),
(424,241,l),
(424,224,ls),
(424,173,o),
(382,137,o),
(322,137,cs)
);
},
{
closed = 1;
nodes = (
(899,-16,o),
(1029,85,o),
(1035,214,c),
(826,214,l),
(818,179,o),
(787,149,o),
(738,149,cs),
(675,149,o),
(644,206,o),
(644,300,cs),
(644,388,o),
(670,431,o),
(721,431,cs),
(775,431,o),
(798,391,o),
(798,300,c),
(918,355,l),
(506,355,l),
(506,260,l),
(1029,260,l),
(1029,476,o),
(916,596,o),
(715,596,cs),
(545,596,o),
(439,478,o),
(439,290,cs),
(439,102,o),
(555,-16,o),
(740,-16,cs)
);
}
);
width = 1065;
},
{
associatedMasterId = m01;
layerId = "2EB0500A-6547-479E-8297-751AAB8D4FE7";
name = "5 Dec 24 at 17:11";
shapes = (
{
closed = 1;
nodes = (
(346,-16,o),
(435,45,o),
(462,141,c),
(438,159,l),
(438,141,l),
(488,141,l),
(488,377,ls),
(488,493,o),
(409,566,o),
(284,566,cs),
(163,566,o),
(85,489,o),
(81,366,c),
(129,366,l),
(132,465,o),
(188,520,o),
(284,520,cs),
(383,520,o),
(438,469,o),
(438,377,cs),
(438,357,l),
(327,336,ls),
(127,298,o),
(60,250,o),
(60,146,cs),
(60,46,o),
(126,-16,o),
(232,-16,cs)
);
},
{
closed = 1;
nodes = (
(155,30,o),
(112,72,o),
(112,146,cs),
(112,228,o),
(161,264,o),
(308,291,cs),
(438,315,l),
(438,258,ls),
(438,112,o),
(364,30,o),
(232,30,cs)
);
},
{
closed = 1;
nodes = (
(847,-16,o),
(933,63,o),
(939,205,c),
(891,205,l),
(883,88,o),
(820,30,o),
(700,30,cs),
(565,30,o),
(490,118,o),
(490,275,cs),
(490,432,o),
(562,520,o),
(690,520,cs),
(814,520,o),
(875,451,o),
(875,312,c),
(918,332,l),
(465,332,l),
(465,287,l),
(929,287,l),
(929,466,o),
(843,566,o),
(690,566,cs),
(535,566,o),
(438,454,o),
(438,275,cs),
(438,96,o),
(539,-16,o),
(700,-16,cs)
);
}
);
width = 999;
}
);
metricLeft = "=a";
metricRight = "=e";
unicode = 230;
},
{
color = 8;
glyphname = b;
lastChange = "2024-12-04 12:14:22 +0000";
layers = (
{
layerId = m01;
shapes = (
{
closed = 1;
nodes = (
(513,-16,o),
(626,104,o),
(626,275,cs),
(626,446,o),
(513,566,o),
(352,566,cs),
(205,566,o),
(101,449,o),
(101,283,c),
(132,283,l),
(132,422,o),
(223,520,o),
(352,520,cs),
(482,520,o),
(574,419,o),
(574,275,cs),
(574,131,o),
(482,30,o),
(352,30,cs),
(223,30,o),
(132,128,o),
(132,267,c),
(101,267,l),
(101,101,o),
(205,-16,o),
(352,-16,cs)
);
},
{
closed = 1;
nodes = (
(132,0,l),
(132,123,l),
(132,760,l),
(82,760,l),
(82,0,l)
);
}
);
width = 686;
},
{
layerId = "7F4E18E3-41A5-4521-AA8A-AE39B7B68B38";
shapes = (
{
closed = 1;
nodes = (
(592,-16,o),
(698,102,o),
(698,290,cs),
(698,478,o),
(592,596,o),
(423,596,cs),
(284,596,o),
(206,490,o),
(206,300,c),
(261,300,l),
(261,365,o),
(306,416,o),
(363,416,cs),
(434,416,o),
(473,371,o),
(473,290,cs),
(473,209,o),
(434,164,o),
(363,164,cs),
(306,164,o),
(261,213,o),
(261,275,c),
(206,275,l),
(206,88,o),
(284,-16,o),
(423,-16,cs)
);
},
{
closed = 1;
nodes = (
(215,0,l),
(261,109,l),
(261,760,l),
(41,760,l),
(41,0,l)
);
}
);
width = 728;
},
{
associatedMasterId = "7F4E18E3-41A5-4521-AA8A-AE39B7B68B38";
layerId = "DE138A21-C824-4DF2-8C8C-14C231B1CDC5";
name = "22 Nov 24 at 21:31";
shapes = (
{
closed = 1;
nodes = (
(568,-16,o),
(670,104,o),
(670,275,cs),
(670,446,o),
(568,566,o),
(422,566,cs),
(360,566,o),
(295,534,o),
(255,482,c),
(229,482,l),
(229,289,l),
(255,289,l),
(255,349,o),
(293,391,o),
(347,391,cs),
(402,391,o),
(440,343,o),
(440,275,cs),
(440,207,o),
(402,159,o),
(347,159,cs),
(293,159,o),
(255,201,o),
(255,261,c),
(229,261,l),
(229,68,l),
(255,68,l),
(295,16,o),
(360,-16,o),
(422,-16,cs)
);
},
{
closed = 1;
nodes = (
(195,0,l),
(255,68,l),
(255,770,l),
(35,770,l),
(35,0,l)
);
}
);
width = 694;
},
{
associatedMasterId = m01;
layerId = "40BFF2F6-F9F2-4F8C-86EA-62E800B93517";
name = "25 Nov 24 at 21:04";
shapes = (
{
closed = 1;
nodes = (
(462,-16,o),
(558,87,o),
(558,250,cs),
(558,413,o),
(462,516,o),
(308,516,cs),
(228,516,o),
(155,474,o),
(120,407,c),
(94,407,l),
(94,275,l),
(120,275,l),
(120,389,o),
(198,470,o),
(308,470,cs),
(430,470,o),
(506,385,o),
(506,250,cs),
(506,115,o),
(430,30,o),
(308,30,cs),
(198,30,o),
(120,111,o),
(120,225,c),
(94,225,l),
(94,93,l),
(120,93,l),
(155,26,o),
(228,-16,o),
(308,-16,cs)
);
},
{
closed = 1;
nodes = (
(120,0,l),
(120,93,l),
(120,780,l),
(70,780,l),
(70,0,l)
);
}
);
width = 606;
},
{
associatedMasterId = "7F4E18E3-41A5-4521-AA8A-AE39B7B68B38";
layerId = "4E1DF847-C9CB-435C-8C60-44EA633737EB";
name = "25 Nov 24 at 21:04";
shapes = (
{
closed = 1;
nodes = (
(556,-16,o),
(646,96,o),
(646,275,cs),
(646,454,o),
(556,566,o),
(412,566,cs),
(349,566,o),
(297,545,o),
(255,502,c),
(229,502,l),
(229,299,l),
(255,299,l),
(255,352,o),
(283,386,o),
(327,386,cs),
(382,386,o),
(416,343,o),
(416,275,cs),
(416,207,o),
(382,164,o),
(327,164,cs),
(283,164,o),
(255,198,o),
(255,251,c),
(229,251,l),
(229,48,l),
(255,48,l),
(297,5,o),
(349,-16,o),
(412,-16,cs)
);
},
{
closed = 1;
nodes = (
(195,0,l),
(255,48,l),
(255,780,l),
(35,780,l),
(35,0,l)
);
}
);
width = 670;
},
{
associatedMasterId = "7F4E18E3-41A5-4521-AA8A-AE39B7B68B38";
layerId = "FD4F7948-8C07-4A0B-A250-368C5C1E3377";
name = "30 Nov 24 at 16:17";
shapes = (
{
closed = 1;
nodes = (
(586,-16,o),
(692,102,o),
(692,290,cs),
(692,478,o),
(586,596,o),
(417,596,cs),
(278,596,o),
(200,492,o),
(200,305,c),
(255,305,l),
(255,376,o),
(300,431,o),
(357,431,cs),
(425,431,o),
(467,377,o),
(467,290,cs),
(467,203,o),
(425,149,o),
(357,149,cs),
(300,149,o),
(255,207,o),
(255,280,c),
(200,280,l),
(200,90,o),
(278,-16,o),
(417,-16,cs)
);
},
{
closed = 1;
nodes = (
(209,0,l),
(255,109,l),
(255,760,l),
(35,760,l),
(35,0,l)
);
}
);
width = 716;
}
);
metricLeft = "=n";
metricRight = "=o";
unicode = 98;
},
{
color = 8;
glyphname = c;
lastChange = "2024-12-06 00:55:06 +0000";
layers = (
{
anchors = (
{
name = bottom;
pos = (350,0);
},
{
name = top;
pos = (351,580);
}
);
background = {
shapes = (
{
closed = 1;
nodes = (
(564,-16,o),
(692,102,o),
(692,290,cs),
(692,478,o),
(564,596,o),
(361,596,cs),
(158,596,o),
(30,478,o),
(30,290,cs),
(30,102,o),
(158,-16,o),
(361,-16,cs)
);
},
{
closed = 1;
nodes = (
(299,149,o),
(255,207,o),
(255,290,cs),
(255,373,o),
(299,431,o),
(361,431,cs),
(423,431,o),
(467,373,o),
(467,290,cs),
(467,207,o),
(423,149,o),
(361,149,cs)
);
}
);
};
guides = (
{
pos = (20,290);
}
);
layerId = "7F4E18E3-41A5-4521-AA8A-AE39B7B68B38";
shapes = (
{
closed = 1;
nodes = (
(524,-16,o),
(641,88,o),
(654,254,c),
(445,254,l),
(439,201,o),
(400,164,o),
(351,164,cs),
(289,164,o),
(255,209,o),
(255,290,cs),
(255,371,o),
(289,416,o),
(351,416,cs),
(400,416,o),
(439,379,o),
(445,326,c),
(654,326,l),
(641,492,o),
(524,596,o),
(351,596,cs),
(154,596,o),
(30,478,o),
(30,290,cs),
(30,102,o),
(154,-16,o),
(351,-16,cs)
);
}
);
width = 684;
},
{
associatedMasterId = m01;
layerId = "78479D88-39B0-40CF-A078-7172B8F8D4C8";
name = "22 Nov 24 at 15:51";
shapes = (
{
closed = 1;
nodes = (
(398,470,o),
(467,418,o),
(467,334,c),
(515,334,l),
(515,441,o),
(421,516,o),
(288,516,cs),
(141,516,o),
(48,413,o),
(48,250,cs),
(48,87,o),
(148,-16,o),
(308,-16,cs),
(453,-16,o),
(555,59,o),
(555,166,c),
(507,166,l),
(507,82,o),
(430,30,o),
(308,30,cs),
(180,30,o),
(100,115,o),
(100,250,cs),
(100,385,o),
(173,470,o),
(288,470,cs)
);
}
);
width = 583;
},
{
anchors = (
{
name = bottom;
pos = (343,0);
},
{
name = top;
pos = (343,550);
}
);
guides = (
{
angle = 90;
pos = (305,7);
},
{
pos = (206,275);
}
);
layerId = m01;
name = Light;
shapes = (
{
closed = 1;
nodes = (
(489,-16,o),
(589,73,o),
(600,214,c),
(552,214,l),
(539,96,o),
(464,30,o),
(343,30,cs),
(201,30,o),
(112,124,o),
(112,275,cs),
(112,426,o),
(201,520,o),
(343,520,cs),
(464,520,o),
(539,454,o),
(552,336,c),
(600,336,l),
(589,477,o),
(489,566,o),
(343,566,cs),
(177,566,o),
(60,446,o),
(60,275,cs),
(60,104,o),
(177,-16,o),
(343,-16,cs)
);
}
);
width = 660;
},
{
associatedMasterId = m01;
layerId = "CBF0F42F-AFE3-4BD1-914C-D4CFF59D3E16";
name = "22 Nov 24 at 15:59";
shapes = (
{
closed = 1;
nodes = (
(398,470,o),
(467,418,o),
(467,334,c),
(515,334,l),
(515,441,o),
(421,516,o),
(288,516,cs),
(141,516,o),
(48,413,o),
(48,250,cs),
(48,87,o),
(148,-16,o),
(308,-16,cs),
(441,-16,o),
(535,59,o),
(535,166,c),
(487,166,l),
(487,82,o),
(418,30,o),
(308,30,cs),
(180,30,o),
(100,115,o),
(100,250,cs),
(100,385,o),
(173,470,o),
(288,470,cs)
);
}
);
width = 583;
},
{
associatedMasterId = m01;
layerId = "48447ADD-989E-4391-8E43-D4BA1931F462";
name = "22 Nov 24 at 21:06";
shapes = (
{
closed = 1;
nodes = (
(450,-16,o),
(535,56,o),
(535,186,c),
(487,186,l),
(487,82,o),
(424,30,o),
(298,30,cs),
(171,30,o),
(100,109,o),
(100,250,cs),
(100,385,o),
(173,470,o),
(288,470,cs),
(403,470,o),
(467,421,o),
(467,334,c),
(515,334,l),
(515,446,o),
(427,516,o),
(288,516,cs),
(141,516,o),
(48,413,o),
(48,250,cs),
(48,79,o),
(138,-16,o),
(298,-16,cs)
);
}
);
width = 583;
},
{
associatedMasterId = m01;
layerId = "CDA18160-11EC-47EC-9C1E-984563EC95E8";
name = "22 Nov 24 at 21:35";
shapes = (
{
closed = 1;
nodes = (
(449,-16,o),
(540,62,o),
(540,186,c),
(492,186,l),
(492,86,o),
(424,30,o),
(303,30,cs),
(178,30,o),
(100,115,o),
(100,250,cs),
(100,385,o),
(173,470,o),
(288,470,cs),
(403,470,o),
(467,421,o),
(467,334,c),
(515,334,l),
(515,446,o),
(427,516,o),
(288,516,cs),
(141,516,o),
(48,413,o),
(48,250,cs),
(48,87,o),
(146,-16,o),
(303,-16,cs)
);
}
);
width = 588;
},
{
associatedMasterId = "7F4E18E3-41A5-4521-AA8A-AE39B7B68B38";
layerId = "E0C9611E-62A5-4435-B664-9C20FE464452";
name = "23 Nov 24 at 13:40";
shapes = (
{
closed = 1;
nodes = (
(523,-16,o),
(635,85,o),
(635,246,c),
(435,246,l),
(435,192,o),
(402,154,o),
(354,154,cs),
(287,154,o),
(254,194,o),
(254,275,cs),
(254,349,o),
(283,396,o),
(334,396,cs),
(373,396,o),
(400,370,o),
(400,334,c),
(600,334,l),
(600,470,o),
(486,566,o),
(324,566,cs),
(140,566,o),
(24,454,o),
(24,275,cs),
(24,96,o),
(147,-16,o),
(344,-16,cs)
);
}
);
width = 659;
},
{
associatedMasterId = "7F4E18E3-41A5-4521-AA8A-AE39B7B68B38";
layerId = "FC159DBF-DE5E-4C97-BDC1-DE5D781E4B37";
name = "25 Nov 24 at 12:57";
shapes = (
{
closed = 1;
nodes = (
(507,-16,o),
(615,85,o),
(615,246,c),
(415,246,l),
(415,192,o),
(385,154,o),
(342,154,cs),
(283,154,o),
(254,194,o),
(254,275,cs),
(254,349,o),
(283,396,o),
(334,396,cs),
(373,396,o),
(400,370,o),
(400,334,c),
(600,334,l),
(600,470,o),
(486,566,o),
(324,566,cs),
(140,566,o),
(24,454,o),
(24,275,cs),
(24,96,o),
(144,-16,o),
(334,-16,cs)
);
}
);
width = 639;
},
{
associatedMasterId = "7F4E18E3-41A5-4521-AA8A-AE39B7B68B38";
background = {
shapes = (
{
closed = 1;
nodes = (
(520,-16,o),
(633,90,o),
(633,259,c),
(424,259,l),
(424,202,o),
(392,162,o),
(347,162,cs),
(285,162,o),
(255,204,o),
(255,289,cs),
(255,367,o),
(285,416,o),
(339,416,cs),
(380,416,o),
(408,389,o),
(408,351,c),
(618,351,l),
(618,493,o),
(498,594,o),
(328,594,cs),
(136,594,o),
(14,477,o),
(14,289,cs),
(14,101,o),
(140,-16,o),
(339,-16,cs)
);
}
);
};
guides = (
{
pos = (14,290);
}
);
layerId = "E89A032B-B0D1-4084-B546-A2FA73A5750B";
name = "25 Nov 24 at 13:04";
shapes = (
{
closed = 1;
nodes = (
(524,-16,o),
(650,95,o),
(650,254,c),
(444,254,l),
(444,199,o),
(406,164,o),
(345,164,cs),
(283,164,o),
(249,209,o),
(249,290,cs),
(249,371,o),
(283,416,o),
(345,416,cs),
(397,416,o),
(429,381,o),
(429,326,c),
(635,326,l),
(635,492,o),
(523,596,o),
(345,596,cs),
(148,596,o),
(24,478,o),
(24,290,cs),
(24,102,o),
(148,-16,o),
(345,-16,cs)
);
}
);
width = 674;
},
{
associatedMasterId = m01;
background = {
shapes = (
{
closed = 1;
nodes = (
(499,-16,o),
(616,104,o),
(616,275,cs),
(616,446,o),
(499,566,o),
(332,566,cs),
(165,566,o),
(48,446,o),
(48,275,cs),
(48,104,o),
(165,-16,o),
(332,-16,cs)
);
},
{
closed = 1;
nodes = (
(196,30,o),
(100,131,o),
(100,275,cs),
(100,419,o),
(196,520,o),
(332,520,cs),
(468,520,o),
(564,419,o),
(564,275,cs),
(564,131,o),
(468,30,o),
(332,30,cs)
);
}
);
};
guides = (
{
angle = 90;
pos = (303,7);
},
{
pos = (204,275);
}
);
layerId = "EB5DA5EF-32DF-4B90-9A6B-96D47458A88A";
name = "26 Nov 24 at 11:45";
shapes = (
{
closed = 1;
nodes = (
(473,-16,o),
(569,73,o),
(569,215,c),
(521,215,l),
(521,106,o),
(438,30,o),
(320,30,cs),
(191,30,o),
(100,131,o),
(100,275,cs),
(100,419,o),
(191,520,o),
(320,520,cs),
(438,520,o),
(521,444,o),
(521,335,c),
(569,335,l),
(569,477,o),
(473,566,o),
(320,566,cs),
(160,566,o),
(48,446,o),
(48,275,cs),
(48,104,o),
(160,-16,o),
(320,-16,cs)
);
}
);
width = 617;
},
{
associatedMasterId = m01;
guides = (
{
angle = 90;
pos = (293,7);
},
{
pos = (194,275);
}
);
layerId = "71DD7B54-75A6-41AD-9F9A-C6EB383667A5";
name = "27 Nov 24 at 11:17";
shapes = (
{
closed = 1;
nodes = (
(453,-16,o),
(549,68,o),
(549,187,c),
(501,187,l),
(501,95,o),
(425,30,o),
(316,30,cs),
(183,30,o),
(100,124,o),
(100,275,cs),
(100,426,o),
(183,520,o),
(316,520,cs),
(425,520,o),
(501,455,o),
(501,363,c),
(549,363,l),
(549,482,o),
(453,566,o),
(316,566,cs),
(159,566,o),
(48,446,o),
(48,275,cs),
(48,104,o),
(159,-16,o),
(316,-16,cs)
);
}
);
width = 597;
},
{
associatedMasterId = "7F4E18E3-41A5-4521-AA8A-AE39B7B68B38";
background = {
shapes = (
{
closed = 1;
nodes = (
(558,-16,o),
(686,102,o),
(686,290,cs),
(686,478,o),
(558,596,o),
(355,596,cs),
(152,596,o),
(24,478,o),
(24,290,cs),
(24,102,o),
(152,-16,o),
(355,-16,cs)
);
},
{
closed = 1;
nodes = (
(293,149,o),
(249,207,o),
(249,290,cs),
(249,373,o),
(293,431,o),
(355,431,cs),
(417,431,o),
(461,373,o),
(461,290,cs),
(461,207,o),
(417,149,o),
(355,149,cs)
);
}
);
};
guides = (
{
pos = (14,290);
}
);
layerId = "B8DD0B6E-D05C-4CE8-844D-E443464D5AC4";
name = "27 Nov 24 at 11:23";
shapes = (
{
closed = 1;
nodes = (
(523,-16,o),
(635,88,o),
(635,254,c),
(429,254,l),
(429,199,o),
(397,164,o),
(345,164,cs),
(283,164,o),
(249,209,o),
(249,290,cs),
(249,371,o),
(283,416,o),
(345,416,cs),
(397,416,o),
(429,381,o),
(429,326,c),
(635,326,l),
(635,492,o),
(523,596,o),
(345,596,cs),
(148,596,o),
(24,478,o),
(24,290,cs),
(24,102,o),
(148,-16,o),
(345,-16,cs)
);
}
);
width = 659;
},
{
anchors = (
{
name = bottom;
pos = (344,0);
},
{
name = top;
pos = (345,580);
}
);
associatedMasterId = "7F4E18E3-41A5-4521-AA8A-AE39B7B68B38";
background = {
shapes = (
{
closed = 1;
nodes = (
(558,-16,o),
(686,102,o),
(686,290,cs),
(686,478,o),
(558,596,o),
(355,596,cs),
(152,596,o),
(24,478,o),
(24,290,cs),
(24,102,o),
(152,-16,o),
(355,-16,cs)
);
},
{
closed = 1;
nodes = (
(293,149,o),
(249,207,o),
(249,290,cs),
(249,373,o),
(293,431,o),
(355,431,cs),
(417,431,o),
(461,373,o),
(461,290,cs),
(461,207,o),
(417,149,o),
(355,149,cs)
);
}
);
};
guides = (
{
pos = (14,290);
}
);
layerId = "90AA45CC-A8F6-401C-9248-E33200F70E1B";
name = "30 Nov 24 at 13:01";
shapes = (
{
closed = 1;
nodes = (
(516,-16,o),
(632,88,o),
(645,254,c),
(439,254,l),
(433,199,o),
(396,164,o),
(345,164,cs),
(283,164,o),
(249,209,o),
(249,290,cs),
(249,371,o),
(283,416,o),
(345,416,cs),
(396,416,o),
(433,381,o),
(439,326,c),
(645,326,l),
(632,492,o),
(516,596,o),
(345,596,cs),
(148,596,o),
(24,478,o),
(24,290,cs),
(24,102,o),
(148,-16,o),
(345,-16,cs)
);
}
);
width = 669;
},
{
anchors = (
{
name = bottom;
pos = (316,0);
},
{
name = top;
pos = (316,550);
}
);
associatedMasterId = m01;
guides = (
{
angle = 90;
pos = (293,7);
},
{
pos = (194,275);
}
);
layerId = "6589D34F-E8DE-4AC8-AAFC-321EAE9092EE";
name = "1 Dec 24 at 14:52";
shapes = (
{
closed = 1;
nodes = (
(461,-16,o),
(550,56,o),
(564,184,c),
(516,184,l),
(503,85,o),
(431,30,o),
(316,30,cs),
(189,30,o),
(100,131,o),
(100,275,cs),
(100,419,o),
(189,520,o),
(316,520,cs),
(431,520,o),
(503,465,o),
(516,366,c),
(564,366,l),
(550,494,o),
(461,566,o),
(316,566,cs),
(159,566,o),
(48,446,o),
(48,275,cs),
(48,104,o),
(159,-16,o),
(316,-16,cs)
);
}
);
width = 612;
},
{
anchors = (
{
name = bottom;
pos = (321,0);
},
{
name = top;
pos = (321,550);
}
);
associatedMasterId = m01;
guides = (
{
angle = 90;
pos = (293,7);
},
{
pos = (194,275);
}
);
layerId = "99E56FF1-F146-49CC-B4BA-CAE68430ED67";
name = "2 Dec 24 at 09:24";
shapes = (
{
closed = 1;
nodes = (
(465,-16,o),
(561,61,o),
(570,184,c),
(522,184,l),
(511,85,o),
(438,30,o),
(321,30,cs),
(185,30,o),
(100,124,o),
(100,275,cs),
(100,426,o),
(185,520,o),
(321,520,cs),
(438,520,o),
(511,465,o),
(522,366,c),
(570,366,l),
(561,489,o),
(465,566,o),
(321,566,cs),
(153,566,o),
(48,454,o),
(48,275,cs),
(48,96,o),
(153,-16,o),
(321,-16,cs)
);
}
);
width = 618;
},
{
anchors = (
{
name = bottom;
pos = (321,0);
},
{
name = top;
pos = (321,550);
}
);
associatedMasterId = m01;
guides = (
{
angle = 90;
pos = (293,7);
},
{
pos = (194,275);
}
);
layerId = "4461BD86-F6E1-420F-ADBC-B9F868B35308";
name = "2 Dec 24 at 09:51";
shapes = (
{
closed = 1;
nodes = (
(475,-16,o),
(567,66,o),
(578,214,c),
(530,214,l),
(516,91,o),
(447,30,o),
(321,30,cs),
(185,30,o),
(100,124,o),
(100,275,cs),
(100,426,o),
(185,520,o),
(321,520,cs),
(447,520,o),
(516,459,o),
(530,336,c),
(578,336,l),
(567,484,o),
(475,566,o),
(321,566,cs),
(153,566,o),
(48,454,o),
(48,275,cs),
(48,96,o),
(153,-16,o),
(321,-16,cs)
);
}
);
width = 626;
},
{
anchors = (
{
name = bottom;
pos = (343,0);
},
{
name = top;
pos = (343,550);
}
);
associatedMasterId = m01;
guides = (
{
angle = 90;
pos = (305,7);
},
{
pos = (206,275);
}
);
layerId = "72FA728F-7E86-4FC8-9E9F-84C5DC6668DD";
name = "6 Dec 24 at 10:54";
shapes = (
{
closed = 1;
nodes = (
(496,-16,o),
(588,66,o),
(600,214,c),
(552,214,l),
(538,91,o),
(469,30,o),
(343,30,cs),
(195,30,o),
(112,118,o),
(112,275,cs),
(112,432,o),
(195,520,o),
(343,520,cs),
(469,520,o),
(538,459,o),
(552,336,c),
(600,336,l),
(588,484,o),
(496,566,o),
(343,566,cs),
(169,566,o),
(60,454,o),
(60,275,cs),
(60,96,o),
(169,-16,o),
(343,-16,cs)
);
}
);
width = 660;
}
);
metricLeft = "=o";
metricRight = "=o";
unicode = 99;
},
{
color = 8;
glyphname = d;
lastChange = "2024-12-05 00:35:23 +0000";
layers = (
{
anchors = (
{
name = bottom;
pos = (343,0);
},
{
name = center;
pos = (509,608);
},
{
name = top;
pos = (343,550);
},
{
name = topright;
pos = (604,760);
}
);
layerId = m01;
shapes = (
{
closed = 1;
nodes = (
(481,-16,o),
(585,101,o),
(585,267,c),
(554,267,l),
(554,128,o),
(463,30,o),
(334,30,cs),
(204,30,o),
(112,131,o),
(112,275,cs),
(112,419,o),
(204,520,o),
(334,520,cs),
(463,520,o),
(554,422,o),
(554,283,c),
(585,283,l),
(585,449,o),
(481,566,o),
(334,566,cs),
(173,566,o),
(60,446,o),
(60,275,cs),
(60,104,o),
(173,-16,o),
(334,-16,cs)
);
},
{
closed = 1;
nodes = (
(604,0,l),
(604,760,l),
(554,760,l),
(554,123,l),
(554,0,l)
);
}
);
width = 686;
},
{
anchors = (
{
name = bottom;
pos = (364,0);
},
{
name = center;
pos = (543,608);
},
{
name = top;
pos = (305,580);
},
{
name = topright;
pos = (687,760);
}
);
layerId = "7F4E18E3-41A5-4521-AA8A-AE39B7B68B38";
shapes = (
{
closed = 1;
nodes = (
(444,-16,o),
(522,88,o),
(522,275,c),
(467,275,l),
(467,213,o),
(422,164,o),
(365,164,cs),
(294,164,o),
(255,209,o),
(255,290,cs),
(255,371,o),
(294,416,o),
(365,416,cs),
(422,416,o),
(467,365,o),
(467,300,c),
(522,300,l),
(522,490,o),
(444,596,o),
(305,596,cs),
(136,596,o),
(30,478,o),
(30,290,cs),
(30,102,o),
(136,-16,o),
(305,-16,cs)
);
},
{
closed = 1;
nodes = (
(687,0,l),
(687,760,l),
(467,760,l),
(467,109,l),
(513,0,l)
);
}
);
width = 728;
},
{
anchors = (
{
name = bottom;
pos = (358,0);
},
{
name = center;
pos = (537,608);
},
{
name = top;
pos = (299,580);
},
{
name = topright;
pos = (681,760);
}
);
associatedMasterId = "7F4E18E3-41A5-4521-AA8A-AE39B7B68B38";
layerId = "F9A516D0-DBA2-4CFC-8252-845A988BAADC";
name = "30 Nov 24 at 16:19";
shapes = (
{
closed = 1;
nodes = (
(438,-16,o),
(516,90,o),
(516,280,c),
(461,280,l),
(461,207,o),
(416,149,o),
(359,149,cs),
(291,149,o),
(249,203,o),
(249,290,cs),
(249,377,o),
(291,431,o),
(359,431,cs),
(416,431,o),
(461,376,o),
(461,305,c),
(516,305,l),
(516,492,o),
(438,596,o),
(299,596,cs),
(130,596,o),
(24,478,o),
(24,290,cs),
(24,102,o),
(130,-16,o),
(299,-16,cs)
);
},
{
closed = 1;
nodes = (
(681,0,l),
(681,760,l),
(461,760,l),
(461,109,l),
(507,0,l)
);
}
);
width = 716;
}
);
metricLeft = "=o";
metricRight = "=n";
unicode = 100;
},
{
glyphname = dcroat;
lastChange = "2024-12-05 04:58:15 +0000";
layers = (
{
layerId = m01;
shapes = (
{
closed = 1;
nodes = (
(674,621,l),
(674,665,l),
(320,665,l),
(320,621,l)
);
},
{
ref = d;
}
);
width = 686;
},
{
layerId = "7F4E18E3-41A5-4521-AA8A-AE39B7B68B38";
shapes = (
{
closed = 1;
nodes = (
(758,617,l),
(758,727,l),
(328,727,l),
(328,617,l)
);
},
{
ref = d;
}
);
width = 728;
}
);
metricLeft = "=d";
metricRight = "=d@100";
unicode = 273;
},
{
color = 8;
glyphname = eth;
lastChange = "2024-12-05 07:04:44 +0000";
layers = (
{
layerId = m01;
shapes = (
{
closed = 1;
nodes = (
(483,-16,o),
(580,100,o),
(580,308,cs),
(580,512,o),
(491,650,o),
(356,760,c),
(292,760,l),
(447,626,o),
(528,507,o),
(528,282,cs),
(528,120,o),
(450,30,o),
(310,30,cs),
(188,30,o),
(112,113,o),
(112,244,cs),
(112,375,o),
(188,458,o),
(310,458,cs),
(438,458,o),
(528,385,o),
(528,282,c),
(551,308,l),
(551,428,o),
(458,504,o),
(310,504,cs),
(163,504,o),
(60,397,o),
(60,244,cs),
(60,91,o),
(163,-16,o),
(310,-16,cs)
);
},
{
closed = 1;
nodes = (
(550,663,l),
(550,712,l),
(254,601,l),
(254,552,l)
);
}
);
width = 640;
},
{
layerId = "7F4E18E3-41A5-4521-AA8A-AE39B7B68B38";
shapes = (
{
closed = 1;
nodes = (
(520,-16,o),
(640,104,o),
(640,296,cs),
(640,486,o),
(567,639,o),
(421,760,c),
(222,760,l),
(358,626,o),
(425,453,o),
(425,236,cs),
(425,190,o),
(395,164,o),
(340,164,cs),
(285,164,o),
(255,190,o),
(255,236,cs),
(255,282,o),
(285,308,o),
(340,308,cs),
(395,308,o),
(425,282,o),
(425,236,c),
(509,246,l),
(509,392,o),
(424,483,o),
(288,483,cs),
(130,483,o),
(30,387,o),
(30,234,cs),
(30,80,o),
(146,-16,o),
(330,-16,cs)
);
},
{
closed = 1;
nodes = (
(621,633,l),
(621,770,l),
(222,641,l),
(222,504,l)
);
}
);
width = 670;
}
);
metricLeft = "=o";
metricRight = "=o";
unicode = 240;
},
{
color = 8;
glyphname = e;
lastChange = "2024-12-06 00:55:19 +0000";
layers = (
{
anchors = (
{
name = bottom;
pos = (321,0);
},
{
name = ogonek;
pos = (434,0);
},
{
name = top;
pos = (322,550);
}
);
background = {
shapes = (
{
closed = 0;
nodes = (
(117,156,ls),
(117,50,o),
(194,-16,o),
(317,-16,cs),
(439,-16,o),
(516,54,o),
(516,166,c),
(468,166,l),
(468,82,o),
(410,30,o),
(317,30,cs),
(225,30,o),
(167,79,o),
(167,156,cs)
);
},
{
closed = 1;
nodes = (
(571,-181,l),
(428,-227,o),
(355,-99,o),
(571,0,c),
(571,33,l),
(291,-70,o),
(355,-281,o),
(571,-222,c)
);
}
);
};
guides = (
{
angle = 270;
pos = (300,493);
},
{
angle = 270;
pos = (571,515);
}
);
layerId = m01;
shapes = (
{
closed = 1;
nodes = (
(479,-16,o),
(575,69,o),
(581,205,c),
(533,205,l),
(525,93,o),
(453,30,o),
(332,30,cs),
(197,30,o),
(112,124,o),
(112,275,cs),
(112,426,o),
(193,520,o),
(322,520,cs),
(447,520,o),
(517,445,o),
(517,312,c),
(560,332,l),
(87,332,l),
(87,287,l),
(571,287,l),
(571,466,o),
(482,566,o),
(322,566,cs),
(161,566,o),
(60,454,o),
(60,275,cs),
(60,96,o),
(165,-16,o),
(332,-16,cs)
);
}
);
width = 641;
},
{
anchors = (
{
name = bottom;
pos = (338,0);
},
{
name = ogonek;
pos = (474,0);
},
{
name = top;
pos = (326,580);
}
);
background = {
shapes = (
{
closed = 1;
nodes = (
(640,-127,l),
(501,-159,o),
(486,0,o),
(628,0,c),
(628,46,l),
(294,46,o),
(299,-325,o),
(640,-240,c)
);
}
);
};
layerId = "7F4E18E3-41A5-4521-AA8A-AE39B7B68B38";
shapes = (
{
closed = 1;
nodes = (
(510,-16,o),
(640,85,o),
(646,214,c),
(437,214,l),
(429,179,o),
(398,159,o),
(349,159,cs),
(286,159,o),
(255,206,o),
(255,300,cs),
(255,384,o),
(278,421,o),
(332,421,cs),
(386,421,o),
(409,384,o),
(409,300,c),
(529,355,l),
(117,355,l),
(117,260,l),
(640,260,l),
(640,476,o),
(527,596,o),
(326,596,cs),
(144,596,o),
(30,478,o),
(30,290,cs),
(30,102,o),
(154,-16,o),
(351,-16,cs)
);
}
);
width = 676;
},
{
associatedMasterId = m01;
guides = (
{
angle = 270;
pos = (295,493);
}
);
layerId = "3C4E551B-7E42-4F1C-B2F1-565C2C56E78D";
name = "22 Nov 24 at 15:32";
shapes = (
{
closed = 1;
nodes = (
(522,328,l),
(80,328,l),
(80,283,l),
(542,283,l),
(542,420,o),
(440,516,o),
(295,516,cs),
(143,516,o),
(48,416,o),
(48,256,cs),
(48,89,o),
(143,-16,o),
(295,-16,cs),
(441,-16,o),
(532,55,o),
(532,168,c),
(480,168,l),
(480,83,o),
(409,30,o),
(295,30,cs),
(175,30,o),
(100,117,o),
(100,256,cs),
(100,393,o),
(170,470,o),
(295,470,cs),
(415,470,o),
(490,398,o),
(490,284,c)
);
}
);
width = 590;
},
{
associatedMasterId = m01;
background = {
shapes = (
{
closed = 0;
nodes = (
(105,156,ls),
(105,50,o),
(182,-16,o),
(305,-16,cs),
(427,-16,o),
(504,54,o),
(504,166,c),
(456,166,l),
(456,82,o),
(398,30,o),
(305,30,cs),
(213,30,o),
(155,79,o),
(155,156,cs)
);
}
);
};
guides = (
{
angle = 270;
pos = (288,493);
}
);
layerId = "31632FE6-E74F-4936-BBED-618200DAB219";
name = "22 Nov 24 at 15:58";
shapes = (
{
closed = 1;
nodes = (
(441,-16,o),
(535,59,o),
(535,166,c),
(487,166,l),
(487,82,o),
(418,30,o),
(308,30,cs),
(180,30,o),
(100,115,o),
(100,250,cs),
(100,385,o),
(173,470,o),
(288,470,cs),
(407,470,o),
(473,403,o),
(473,284,c),
(515,306,l),
(73,306,l),
(73,261,l),
(525,261,l),
(525,425,o),
(440,516,o),
(288,516,cs),
(141,516,o),
(48,413,o),
(48,250,cs),
(48,87,o),
(148,-16,o),
(308,-16,cs)
);
}
);
width = 583;
},
{
associatedMasterId = m01;
background = {
shapes = (
{
closed = 0;
nodes = (
(105,156,ls),
(105,50,o),
(182,-16,o),
(305,-16,cs),
(427,-16,o),
(504,54,o),
(504,166,c),
(456,166,l),
(456,82,o),
(398,30,o),
(305,30,cs),
(213,30,o),
(155,79,o),
(155,156,cs)
);
}
);
};
guides = (
{
angle = 270;
pos = (288,493);
}
);
layerId = "16603ED5-3C3B-468B-88AD-9801203301E3";
name = "22 Nov 24 at 21:04";
shapes = (
{
closed = 1;
nodes = (
(450,-16,o),
(535,56,o),
(535,186,c),
(487,186,l),
(487,82,o),
(424,30,o),
(298,30,cs),
(171,30,o),
(100,109,o),
(100,250,cs),
(100,385,o),
(173,470,o),
(288,470,cs),
(407,470,o),
(473,403,o),
(473,284,c),
(515,306,l),
(73,306,l),
(73,261,l),
(525,261,l),
(525,425,o),
(440,516,o),
(288,516,cs),
(141,516,o),
(48,413,o),
(48,250,cs),
(48,79,o),
(138,-16,o),
(298,-16,cs)
);
}
);
width = 583;
},
{
associatedMasterId = m01;
background = {
shapes = (
{
closed = 0;
nodes = (
(105,156,ls),
(105,50,o),
(182,-16,o),
(305,-16,cs),
(427,-16,o),
(504,54,o),
(504,166,c),
(456,166,l),
(456,82,o),
(398,30,o),
(305,30,cs),
(213,30,o),
(155,79,o),
(155,156,cs)
);
}
);
};
guides = (
{
angle = 270;
pos = (288,493);
}
);
layerId = "E6A5E76F-679C-49CD-9010-C5FC9018B030";
name = "22 Nov 24 at 21:36";
shapes = (
{
closed = 1;
nodes = (
(449,-16,o),
(540,62,o),
(540,186,c),
(492,186,l),
(492,86,o),
(424,30,o),
(303,30,cs),
(178,30,o),
(100,115,o),
(100,250,cs),
(100,385,o),
(173,470,o),
(288,470,cs),
(407,470,o),
(473,403,o),
(473,284,c),
(515,306,l),
(73,306,l),
(73,261,l),
(525,261,l),
(525,425,o),
(440,516,o),
(288,516,cs),
(141,516,o),
(48,413,o),
(48,250,cs),
(48,87,o),
(146,-16,o),
(303,-16,cs)
);
}
);
width = 588;
},
{
associatedMasterId = m01;
background = {
shapes = (
{
closed = 0;
nodes = (
(105,156,ls),
(105,50,o),
(182,-16,o),
(305,-16,cs),
(427,-16,o),
(504,54,o),
(504,166,c),
(456,166,l),
(456,82,o),
(398,30,o),
(305,30,cs),
(213,30,o),
(155,79,o),
(155,156,cs)
);
}
);
};
guides = (
{
angle = 270;
pos = (288,493);
}
);
layerId = "5F52E7C5-5E8B-4414-91D0-473305A4C378";
name = "23 Nov 24 at 23:58";
shapes = (
{
closed = 1;
nodes = (
(442,-16,o),
(530,62,o),
(530,186,c),
(482,186,l),
(482,86,o),
(418,30,o),
(303,30,cs),
(178,30,o),
(100,115,o),
(100,250,cs),
(100,385,o),
(173,470,o),
(288,470,cs),
(400,470,o),
(463,403,o),
(463,284,c),
(505,306,l),
(73,306,l),
(73,261,l),
(515,261,l),
(515,425,o),
(434,516,o),
(288,516,cs),
(141,516,o),
(48,413,o),
(48,250,cs),
(48,87,o),
(146,-16,o),
(303,-16,cs)
);
}
);
width = 578;
},
{
associatedMasterId = "7F4E18E3-41A5-4521-AA8A-AE39B7B68B38";
layerId = "5BBD8F66-1F3F-4A02-BFA7-CFD1E1BA91C7";
name = "25 Nov 24 at 12:51";
shapes = (
{
closed = 1;
nodes = (
(515,-16,o),
(635,76,o),
(635,206,c),
(435,206,l),
(435,177,o),
(399,154,o),
(354,154,cs),
(287,154,o),
(254,197,o),
(254,285,cs),
(254,359,o),
(279,396,o),
(329,396,cs),
(379,396,o),
(404,359,o),
(404,285,c),
(481,338,l),
(85,338,l),
(85,245,l),
(624,245,l),
(624,451,o),
(516,566,o),
(324,566,cs),
(140,566,o),
(24,454,o),
(24,275,cs),
(24,96,o),
(147,-16,o),
(344,-16,cs)
);
}
);
width = 659;
},
{
associatedMasterId = m01;
background = {
shapes = (
{
closed = 0;
nodes = (
(105,156,ls),
(105,50,o),
(182,-16,o),
(305,-16,cs),
(427,-16,o),
(504,54,o),
(504,166,c),
(456,166,l),
(456,82,o),
(398,30,o),
(305,30,cs),
(213,30,o),
(155,79,o),
(155,156,cs)
);
}
);
};
guides = (
{
angle = 270;
pos = (288,493);
}
);
layerId = "35794B62-FEA1-4C82-AE51-F66AAEF2BE4B";
name = "25 Nov 24 at 12:54";
shapes = (
{
closed = 1;
nodes = (
(442,-16,o),
(530,62,o),
(530,186,c),
(482,186,l),
(482,86,o),
(418,30,o),
(303,30,cs),
(178,30,o),
(100,115,o),
(100,250,cs),
(100,385,o),
(173,470,o),
(288,470,cs),
(400,470,o),
(463,403,o),
(463,284,c),
(505,306,l),
(73,306,l),
(73,261,l),
(515,261,l),
(515,425,o),
(434,516,o),
(288,516,cs),
(141,516,o),
(48,413,o),
(48,250,cs),
(48,87,o),
(146,-16,o),
(303,-16,cs)
);
}
);
width = 578;
},
{
associatedMasterId = m01;
background = {
shapes = (
{
closed = 0;
nodes = (
(105,156,ls),
(105,50,o),
(182,-16,o),
(305,-16,cs),
(427,-16,o),
(504,54,o),
(504,166,c),
(456,166,l),
(456,82,o),
(398,30,o),
(305,30,cs),
(213,30,o),
(155,79,o),
(155,156,cs)
);
}
);
};
guides = (
{
angle = 270;
pos = (288,493);
}
);
layerId = "D7B0BFD7-4A1D-4D5A-B4DD-644278DD557D";
name = "25 Nov 24 at 13:07";
shapes = (
{
closed = 1;
nodes = (
(479,-16,o),
(575,69,o),
(575,205,c),
(527,205,l),
(527,93,o),
(455,30,o),
(327,30,cs),
(188,30,o),
(100,124,o),
(100,275,cs),
(100,426,o),
(181,520,o),
(310,520,cs),
(436,520,o),
(507,445,o),
(507,312,c),
(548,330,l),
(75,330,l),
(75,287,l),
(559,287,l),
(559,466,o),
(470,566,o),
(310,566,cs),
(149,566,o),
(48,454,o),
(48,275,cs),
(48,96,o),
(156,-16,o),
(327,-16,cs)
);
}
);
width = 623;
},
{
associatedMasterId = "7F4E18E3-41A5-4521-AA8A-AE39B7B68B38";
layerId = "D0350C34-4978-4D89-93B4-F76CB026AD06";
name = "25 Nov 24 at 17:24";
shapes = (
{
closed = 1;
nodes = (
(512,-16,o),
(630,79,o),
(630,214,c),
(434,214,l),
(434,176,o),
(399,149,o),
(350,149,cs),
(285,149,o),
(249,203,o),
(249,300,cs),
(249,391,o),
(272,436,o),
(317,436,cs),
(362,436,o),
(381,395,o),
(381,300,c),
(508,355,l),
(111,355,l),
(111,260,l),
(616,260,l),
(616,485,o),
(518,596,o),
(320,596,cs),
(138,596,o),
(24,478,o),
(24,290,cs),
(24,102,o),
(148,-16,o),
(345,-16,cs)
);
}
);
width = 654;
},
{
anchors = (
{
name = bottom;
pos = (332,0);
},
{
name = ogonek;
pos = (468,0);
},
{
name = top;
pos = (320,580);
}
);
associatedMasterId = "7F4E18E3-41A5-4521-AA8A-AE39B7B68B38";
background = {
shapes = (
{
closed = 1;
nodes = (
(634,-127,l),
(495,-159,o),
(480,0,o),
(622,0,c),
(622,46,l),
(288,46,o),
(293,-325,o),
(634,-240,c)
);
}
);
};
layerId = "8A41D8C5-7EA5-4985-9C11-C8A9DD2D9FBC";
name = "30 Nov 24 at 16:22";
shapes = (
{
closed = 1;
nodes = (
(512,-16,o),
(634,79,o),
(640,214,c),
(434,214,l),
(425,171,o),
(395,149,o),
(345,149,cs),
(281,149,o),
(249,199,o),
(249,300,cs),
(249,387,o),
(277,436,o),
(326,436,cs),
(377,436,o),
(403,391,o),
(403,300,c),
(523,365,l),
(111,365,l),
(111,260,l),
(634,260,l),
(634,485,o),
(530,596,o),
(320,596,cs),
(138,596,o),
(24,478,o),
(24,290,cs),
(24,102,o),
(148,-16,o),
(345,-16,cs)
);
}
);
width = 664;
},
{
anchors = (
{
name = bottom;
pos = (332,0);
},
{
name = ogonek;
pos = (468,0);
},
{
name = top;
pos = (320,580);
}
);
associatedMasterId = "7F4E18E3-41A5-4521-AA8A-AE39B7B68B38";
background = {
shapes = (
{
closed = 1;
nodes = (
(634,-127,l),
(495,-159,o),
(480,0,o),
(622,0,c),
(622,46,l),
(288,46,o),
(293,-325,o),
(634,-240,c)
);
}
);
};
layerId = "AC1E1031-BEB0-4D1D-A0F4-F972F9F3E0A2";
name = "1 Dec 24 at 14:48";
shapes = (
{
closed = 1;
nodes = (
(512,-16,o),
(634,79,o),
(640,214,c),
(431,214,l),
(422,174,o),
(389,149,o),
(343,149,cs),
(280,149,o),
(249,199,o),
(249,300,cs),
(249,388,o),
(275,431,o),
(326,431,cs),
(377,431,o),
(403,388,o),
(403,300,c),
(523,365,l),
(111,365,l),
(111,260,l),
(634,260,l),
(634,485,o),
(530,596,o),
(320,596,cs),
(138,596,o),
(24,478,o),
(24,290,cs),
(24,102,o),
(148,-16,o),
(345,-16,cs)
);
}
);
width = 664;
}
);
metricLeft = "=o";
metricRight = "=o";
unicode = 101;
},
{
glyphname = eogonek;
lastChange = "2024-12-05 05:02:18 +0000";
layers = (
{
layerId = m01;
shapes = (
{
closed = 1;
nodes = (
(571,-181,l),
(425,-231,o),
(357,-77,o),
(504,39,c),
(504,71,l),
(312,-48,o),
(346,-288,o),
(571,-222,c)
);
},
{
ref = e;
}
);
width = 617;
},
{
layerId = "7F4E18E3-41A5-4521-AA8A-AE39B7B68B38";
shapes = (
{
closed = 1;
nodes = (
(634,-127,l),
(495,-159,o),
(411,-40,o),
(532,34,c),
(531,65,l),
(256,10,o),
(293,-325,o),
(634,-240,c)
);
},
{
ref = e;
}
);
width = 664;
}
);
unicode = 281;
},
{
color = 8;
glyphname = f;
lastChange = "2024-12-04 05:43:46 +0000";
layers = (
{
layerId = m01;
shapes = (
{
closed = 1;
nodes = (
(155,0,l),
(155,667,ls),
(155,703,o),
(171,715,o),
(220,715,cs),
(349,715,l),
(349,760,l),
(219,760,ls),
(137,760,o),
(105,735,o),
(105,668,cs),
(105,0,l)
);
},
{
closed = 1;
nodes = (
(349,505,l),
(349,550,l),
(10,550,l),
(10,505,l)
);
}
);
width = 359;
},
{
layerId = "7F4E18E3-41A5-4521-AA8A-AE39B7B68B38";
shapes = (
{
closed = 1;
nodes = (
(303,0,l),
(303,580,ls),
(303,610,o),
(320,625,o),
(353,625,cs),
(464,625,l),
(464,760,l),
(313,760,ls),
(147,760,o),
(83,710,o),
(83,580,cs),
(83,0,l)
);
},
{
closed = 1;
nodes = (
(464,415,l),
(464,580,l),
(5,580,l),
(5,415,l)
);
}
);
width = 469;
}
);
metricLeft = "=t";
metricRight = "=t";
unicode = 102;
},
{
color = 8;
glyphname = g;
lastChange = "2024-12-05 00:30:47 +0000";
layers = (
{
anchors = (
{
name = bottom;
pos = (363,-240);
},
{
name = top;
pos = (342,580);
}
);
guides = (
{
angle = 90;
pos = (710,657);
}
);
layerId = "7F4E18E3-41A5-4521-AA8A-AE39B7B68B38";
shapes = (
{
closed = 1;
nodes = (
(418,-240,ls),
(593,-240,o),
(691,-172,o),
(691,-51,cs),
(691,85,o),
(593,161,o),
(418,161,cs),
(262,161,ls),
(187,161,o),
(143,194,o),
(171,234,cs),
(200,276,l),
(125,283,l),
(83,229,ls),
(-35,77,o),
(52,-42,o),
(280,-42,cs),
(423,-42,ls),
(451,-42,o),
(466,-51,o),
(466,-66,cs),
(466,-81,o),
(451,-90,o),
(423,-90,cs),
(161,-90,l),
(161,-240,l)
);
},
{
closed = 1;
nodes = (
(515,210,o),
(625,279,o),
(625,390,cs),
(625,517,o),
(515,596,o),
(341,596,cs),
(167,596,o),
(57,517,o),
(57,390,cs),
(57,279,o),
(167,210,o),
(341,210,cs)
);
},
{
closed = 1;
nodes = (
(305,324,o),
(282,346,o),
(282,380,cs),
(282,422,o),
(303,446,o),
(341,446,cs),
(379,446,o),
(400,422,o),
(400,380,cs),
(400,346,o),
(377,324,o),
(341,324,cs)
);
},
{
closed = 1;
nodes = (
(540,707,l),
(546,620,o),
(532,556,o),
(475,577,c),
(475,533,l),
(581,499,o),
(740,540,o),
(715,707,c)
);
}
);
width = 719;
},
{
associatedMasterId = m01;
layerId = "8C7B801C-FFB8-4785-8A26-D83BA06B27CA";
name = "22 Nov 24 at 08:08";
shapes = (
{
closed = 1;
nodes = (
(419,-246,ls),
(528,-246,o),
(614,-184,o),
(614,-97,cs),
(614,2,o),
(534,45,o),
(341,45,cs),
(308,45,ls),
(244,45,o),
(208,69,o),
(208,112,c),
(208,191,l),
(158,191,l),
(158,112,ls),
(158,40,o),
(212,0,o),
(308,0,cs),
(341,0,ls),
(504,0,o),
(562,-27,o),
(562,-97,cs),
(562,-157,o),
(497,-200,o),
(419,-200,cs),
(362,-200,ls),
(199,-200,o),
(141,-174,o),
(141,-104,cs),
(141,-44,o),
(206,9,o),
(284,9,c),
(284,28,l),
(175,28,o),
(89,-17,o),
(89,-104,cs),
(89,-203,o),
(169,-246,o),
(362,-246,cs)
);
},
{
closed = 1;
nodes = (
(431,124,o),
(518,205,o),
(518,320,cs),
(518,435,o),
(431,516,o),
(308,516,cs),
(185,516,o),
(98,435,o),
(98,320,cs),
(98,205,o),
(185,124,o),
(308,124,cs)
);
},
{
closed = 1;
nodes = (
(211,170,o),
(150,228,o),
(150,320,cs),
(150,412,o),
(211,470,o),
(308,470,cs),
(405,470,o),
(466,412,o),
(466,320,cs),
(466,228,o),
(405,170,o),
(308,170,cs)
);
},
{
closed = 1;
nodes = (
(573,471,l),
(573,516,l),
(308,516,l),
(308,471,l)
);
}
);
width = 600;
},
{
associatedMasterId = "7F4E18E3-41A5-4521-AA8A-AE39B7B68B38";
layerId = "B49AE37F-977C-47B0-86BB-9CD748939114";
name = "22 Nov 24 at 09:08";
shapes = (
{
closed = 1;
nodes = (
(432,-246,ls),
(595,-246,o),
(697,-180,o),
(697,-76,cs),
(697,48,o),
(599,117,o),
(424,117,cs),
(240,117,ls),
(220,117,o),
(210,125,o),
(210,142,c),
(210,233,l),
(117,233,l),
(117,142,ls),
(117,-49,o),
(178,-93,o),
(300,-93,cs),
(424,-93,ls),
(453,-93,o),
(467,-103,o),
(467,-122,cs),
(467,-139,o),
(453,-147,o),
(424,-147,cs),
(300,-147,ls),
(229,-147,o),
(205,-140,o),
(205,-120,cs),
(205,-100,o),
(232,-93,o),
(314,-93,cs),
(352,-93,l),
(352,-15,l),
(283,-15,l),
(102,-15,o),
(12,-52,o),
(12,-127,cs),
(12,-203,o),
(112,-246,o),
(291,-246,cs)
);
},
{
closed = 1;
nodes = (
(491,144,o),
(598,220,o),
(598,340,cs),
(598,479,o),
(491,566,o),
(320,566,cs),
(149,566,o),
(42,479,o),
(42,340,cs),
(42,220,o),
(149,144,o),
(320,144,cs)
);
},
{
closed = 1;
nodes = (
(291,289,o),
(272,309,o),
(272,340,cs),
(272,371,o),
(291,391,o),
(320,391,cs),
(349,391,o),
(368,371,o),
(368,340,cs),
(368,309,o),
(349,289,o),
(320,289,cs)
);
},
{
closed = 1;
nodes = (
(706,461,l),
(706,566,l),
(320,566,l),
(320,461,l)
);
}
);
width = 716;
},
{
associatedMasterId = m01;
guides = (
{
angle = 90;
pos = (543,-230);
}
);
layerId = "45F93F61-E1E1-484E-AA81-AE60794E06B2";
name = "22 Nov 24 at 09:14";
shapes = (
{
closed = 1;
nodes = (
(308,-246,ls),
(452,-246,o),
(543,-189,o),
(543,-97,cs),
(543,11,o),
(470,52,o),
(280,52,cs),
(257,52,ls),
(187,52,o),
(160,69,o),
(160,112,c),
(160,190,l),
(117,190,l),
(117,112,ls),
(117,37,o),
(163,0,o),
(257,0,cs),
(280,0,ls),
(438,0,o),
(491,-24,o),
(491,-97,cs),
(491,-163,o),
(425,-200,o),
(308,-200,cs),
(283,-200,ls),
(166,-200,o),
(100,-163,o),
(100,-97,cs),
(100,-40,o),
(149,0,o),
(233,0,cs),
(268,0,l),
(268,29,l),
(233,29,l),
(119,29,o),
(48,-20,o),
(48,-97,cs),
(48,-189,o),
(139,-246,o),
(283,-246,cs)
);
},
{
closed = 1;
nodes = (
(393,124,o),
(480,205,o),
(480,320,cs),
(480,435,o),
(393,516,o),
(270,516,cs),
(147,516,o),
(60,435,o),
(60,320,cs),
(60,205,o),
(147,124,o),
(270,124,cs)
);
},
{
closed = 1;
nodes = (
(173,170,o),
(112,228,o),
(112,320,cs),
(112,412,o),
(173,470,o),
(270,470,cs),
(367,470,o),
(428,412,o),
(428,320,cs),
(428,228,o),
(367,170,o),
(270,170,cs)
);
},
{
closed = 1;
nodes = (
(543,471,l),
(543,516,l),
(270,516,l),
(270,471,l)
);
}
);
width = 563;
},
{
associatedMasterId = m01;
guides = (
{
angle = 90;
pos = (543,-230);
}
);
layerId = "E977788C-6A4A-4ED9-9FCA-196207F2472B";
name = "22 Nov 24 at 14:22";
shapes = (
{
closed = 1;
nodes = (
(308,-246,ls),
(452,-246,o),
(543,-189,o),
(543,-97,cs),
(543,11,o),
(470,52,o),
(280,52,cs),
(257,52,ls),
(150,52,o),
(103,81,o),
(103,146,c),
(103,320,l),
(60,320,l),
(60,146,ls),
(60,44,o),
(120,0,o),
(257,0,cs),
(280,0,ls),
(438,0,o),
(491,-24,o),
(491,-97,cs),
(491,-163,o),
(425,-200,o),
(308,-200,cs),
(283,-200,ls),
(166,-200,o),
(100,-163,o),
(100,-97,cs),
(100,-40,o),
(149,0,o),
(233,0,cs),
(268,0,l),
(268,29,l),
(233,29,l),
(119,29,o),
(48,-20,o),
(48,-97,cs),
(48,-189,o),
(139,-246,o),
(283,-246,cs)
);
},
{
closed = 1;
nodes = (
(393,124,o),
(480,205,o),
(480,320,cs),
(480,435,o),
(393,516,o),
(270,516,cs),
(147,516,o),
(60,435,o),
(60,320,cs),
(60,205,o),
(147,124,o),
(270,124,cs)
);
},
{
closed = 1;
nodes = (
(173,170,o),
(112,228,o),
(112,320,cs),
(112,412,o),
(173,470,o),
(270,470,cs),
(367,470,o),
(428,412,o),
(428,320,cs),
(428,228,o),
(367,170,o),
(270,170,cs)
);
},
{
closed = 1;
nodes = (
(543,471,l),
(543,516,l),
(270,516,l),
(270,471,l)
);
}
);
width = 563;
},
{
associatedMasterId = "7F4E18E3-41A5-4521-AA8A-AE39B7B68B38";
layerId = "2012991D-DAB7-456B-8424-77CDD4CBF1AA";
name = "22 Nov 24 at 14:23";
shapes = (
{
closed = 1;
nodes = (
(424,-246,ls),
(587,-246,o),
(689,-180,o),
(689,-76,cs),
(689,48,o),
(591,117,o),
(416,117,cs),
(252,117,ls),
(217,117,o),
(202,128,o),
(202,152,c),
(202,243,l),
(89,243,l),
(89,152,ls),
(89,-25,o),
(156,-93,o),
(332,-93,cs),
(416,-93,ls),
(445,-93,o),
(459,-103,o),
(459,-122,cs),
(459,-139,o),
(445,-147,o),
(416,-147,cs),
(292,-147,ls),
(221,-147,o),
(217,-140,o),
(217,-120,cs),
(217,-100,o),
(264,-93,o),
(346,-93,cs),
(384,-93,l),
(384,-36,l),
(275,-36,l),
(86,-36,o),
(24,-64,o),
(24,-127,cs),
(24,-203,o),
(104,-246,o),
(283,-246,cs)
);
},
{
closed = 1;
nodes = (
(483,154,o),
(590,226,o),
(590,340,cs),
(590,479,o),
(483,566,o),
(312,566,cs),
(141,566,o),
(34,479,o),
(34,340,cs),
(34,226,o),
(141,154,o),
(312,154,cs)
);
},
{
closed = 1;
nodes = (
(283,289,o),
(264,309,o),
(264,340,cs),
(264,371,o),
(283,391,o),
(312,391,cs),
(341,391,o),
(360,371,o),
(360,340,cs),
(360,309,o),
(341,289,o),
(312,289,cs)
);
},
{
closed = 1;
nodes = (
(698,461,l),
(698,566,l),
(312,566,l),
(312,461,l)
);
}
);
width = 708;
},
{
associatedMasterId = m01;
guides = (
{
angle = 90;
pos = (543,-230);
}
);
layerId = "25F59F81-F383-4817-8CDF-14803C4C9D33";
name = "22 Nov 24 at 14:38";
shapes = (
{
closed = 1;
nodes = (
(308,-246,ls),
(452,-246,o),
(543,-189,o),
(543,-97,cs),
(543,11,o),
(470,52,o),
(280,52,cs),
(257,52,ls),
(164,52,o),
(133,76,o),
(133,146,c),
(133,228,l),
(90,228,l),
(90,146,ls),
(90,44,o),
(141,0,o),
(257,0,cs),
(280,0,ls),
(438,0,o),
(491,-24,o),
(491,-97,cs),
(491,-163,o),
(425,-200,o),
(308,-200,cs),
(283,-200,ls),
(166,-200,o),
(100,-163,o),
(100,-97,cs),
(100,-40,o),
(149,0,o),
(233,0,cs),
(268,0,l),
(268,29,l),
(233,29,l),
(119,29,o),
(48,-20,o),
(48,-97,cs),
(48,-189,o),
(139,-246,o),
(283,-246,cs)
);
},
{
closed = 1;
nodes = (
(393,124,o),
(480,205,o),
(480,320,cs),
(480,435,o),
(393,516,o),
(270,516,cs),
(147,516,o),
(60,435,o),
(60,320,cs),
(60,205,o),
(147,124,o),
(270,124,cs)
);
},
{
closed = 1;
nodes = (
(173,170,o),
(112,228,o),
(112,320,cs),
(112,412,o),
(173,470,o),
(270,470,cs),
(367,470,o),
(428,412,o),
(428,320,cs),
(428,228,o),
(367,170,o),
(270,170,cs)
);
},
{
closed = 1;
nodes = (
(543,471,l),
(543,516,l),
(270,516,l),
(270,471,l)
);
}
);
width = 563;
},
{
associatedMasterId = m01;
guides = (
{
angle = 90;
pos = (543,-230);
}
);
layerId = "3DB02D2A-AF18-4006-B706-FC1754C12EB9";
name = "22 Nov 24 at 15:38";
shapes = (
{
closed = 1;
nodes = (
(299,-246,ls),
(449,-246,o),
(543,-189,o),
(543,-97,cs),
(543,11,o),
(470,52,o),
(280,52,cs),
(233,52,ls),
(177,52,o),
(153,75,o),
(153,126,c),
(153,185,l),
(110,185,l),
(110,126,ls),
(110,38,o),
(155,0,o),
(257,0,cs),
(280,0,ls),
(438,0,o),
(491,-24,o),
(491,-97,cs),
(491,-163,o),
(422,-200,o),
(299,-200,cs),
(292,-200,ls),
(169,-200,o),
(100,-163,o),
(100,-97,cs),
(100,-37,o),
(151,0,o),
(233,0,cs),
(268,0,l),
(268,29,l),
(233,29,l),
(119,29,o),
(48,-20,o),
(48,-97,cs),
(48,-189,o),
(142,-246,o),
(292,-246,cs)
);
},
{
closed = 1;
nodes = (
(393,108,o),
(480,189,o),
(480,304,cs),
(480,419,o),
(393,500,o),
(270,500,cs),
(147,500,o),
(60,419,o),
(60,304,cs),
(60,189,o),
(147,108,o),
(270,108,cs)
);
},
{
closed = 1;
nodes = (
(173,154,o),
(112,212,o),
(112,304,cs),
(112,396,o),
(173,454,o),
(270,454,cs),
(367,454,o),
(428,396,o),
(428,304,cs),
(428,212,o),
(367,154,o),
(270,154,cs)
);
},
{
closed = 1;
nodes = (
(543,455,l),
(543,500,l),
(270,500,l),
(270,455,l)
);
}
);
width = 563;
},
{
associatedMasterId = "7F4E18E3-41A5-4521-AA8A-AE39B7B68B38";
layerId = "30AD3CC8-0E25-44D5-9438-8A20FAA9B751";
name = "22 Nov 24 at 15:45";
shapes = (
{
closed = 1;
nodes = (
(424,-246,ls),
(587,-246,o),
(689,-180,o),
(689,-76,cs),
(689,48,o),
(591,117,o),
(416,117,cs),
(252,117,ls),
(217,117,o),
(202,128,o),
(202,152,c),
(202,243,l),
(99,243,l),
(99,152,ls),
(99,-5,o),
(176,-83,o),
(332,-83,cs),
(416,-83,ls),
(445,-83,o),
(459,-93,o),
(459,-112,cs),
(459,-129,o),
(445,-137,o),
(416,-137,cs),
(316,-137,ls),
(262,-137,o),
(241,-130,o),
(241,-110,cs),
(241,-90,o),
(262,-83,o),
(316,-83,cs),
(384,-83,l),
(384,-26,l),
(275,-26,l),
(86,-26,o),
(24,-64,o),
(24,-127,cs),
(24,-203,o),
(104,-246,o),
(283,-246,cs)
);
},
{
closed = 1;
nodes = (
(483,154,o),
(590,226,o),
(590,340,cs),
(590,479,o),
(483,566,o),
(312,566,cs),
(141,566,o),
(34,479,o),
(34,340,cs),
(34,226,o),
(141,154,o),
(312,154,cs)
);
},
{
closed = 1;
nodes = (
(283,289,o),
(264,309,o),
(264,340,cs),
(264,371,o),
(283,391,o),
(312,391,cs),
(341,391,o),
(360,371,o),
(360,340,cs),
(360,309,o),
(341,289,o),
(312,289,cs)
);
},
{
closed = 1;
nodes = (
(698,461,l),
(698,566,l),
(312,566,l),
(312,461,l)
);
}
);
width = 708;
},
{
associatedMasterId = "7F4E18E3-41A5-4521-AA8A-AE39B7B68B38";
layerId = "BEE22695-5819-4046-837C-9FA12A9EE887";
name = "22 Nov 24 at 15:55";
shapes = (
{
closed = 1;
nodes = (
(374,-246,ls),
(561,-246,o),
(679,-180,o),
(679,-76,cs),
(679,48,o),
(581,117,o),
(406,117,cs),
(239,117,ls),
(175,117,o),
(156,134,o),
(176,172,cs),
(214,243,l),
(113,243,l),
(76,173,ls),
(0,30,o),
(108,-83,o),
(322,-83,cs),
(406,-83,ls),
(435,-83,o),
(449,-93,o),
(449,-112,cs),
(449,-129,o),
(435,-137,o),
(406,-137,cs),
(377,-137,ls),
(293,-137,o),
(251,-125,o),
(251,-102,cs),
(251,-89,o),
(262,-83,o),
(283,-83,cs),
(374,-83,l),
(374,-50,l),
(285,-50,l),
(110,-50,o),
(34,-79,o),
(34,-144,cs),
(34,-209,o),
(138,-246,o),
(323,-246,cs)
);
},
{
closed = 1;
nodes = (
(473,154,o),
(580,226,o),
(580,340,cs),
(580,479,o),
(473,566,o),
(302,566,cs),
(131,566,o),
(24,479,o),
(24,340,cs),
(24,226,o),
(131,154,o),
(302,154,cs)
);
},
{
closed = 1;
nodes = (
(273,289,o),
(254,309,o),
(254,340,cs),
(254,371,o),
(273,391,o),
(302,391,cs),
(331,391,o),
(350,371,o),
(350,340,cs),
(350,309,o),
(331,289,o),
(302,289,cs)
);
},
{
closed = 1;
nodes = (
(688,461,l),
(688,566,l),
(302,566,l),
(302,461,l)
);
}
);
width = 700;
},
{
associatedMasterId = "7F4E18E3-41A5-4521-AA8A-AE39B7B68B38";
guides = (
{
angle = 90;
pos = (18,595);
}
);
layerId = "E99F1378-68F8-4A49-B282-87C08B3ED33A";
name = "22 Nov 24 at 21:07";
shapes = (
{
closed = 1;
nodes = (
(364,-246,ls),
(551,-246,o),
(669,-180,o),
(669,-76,cs),
(669,48,o),
(571,117,o),
(396,117,cs),
(229,117,ls),
(165,117,o),
(146,134,o),
(166,172,cs),
(204,243,l),
(103,243,l),
(66,173,ls),
(-10,30,o),
(98,-83,o),
(312,-83,cs),
(396,-83,ls),
(425,-83,o),
(439,-93,o),
(439,-112,cs),
(439,-129,o),
(425,-137,o),
(396,-137,cs),
(367,-137,ls),
(283,-137,o),
(241,-125,o),
(241,-102,cs),
(241,-89,o),
(252,-83,o),
(273,-83,cs),
(364,-83,l),
(364,-50,l),
(275,-50,l),
(100,-50,o),
(24,-79,o),
(24,-144,cs),
(24,-209,o),
(128,-246,o),
(313,-246,cs)
);
},
{
closed = 1;
nodes = (
(480,154,o),
(586,226,o),
(586,340,cs),
(586,479,o),
(480,566,o),
(312,566,cs),
(144,566,o),
(38,479,o),
(38,340,cs),
(38,226,o),
(144,154,o),
(312,154,cs)
);
},
{
closed = 1;
nodes = (
(283,284,o),
(268,303,o),
(268,340,cs),
(268,377,o),
(283,396,o),
(312,396,cs),
(341,396,o),
(356,377,o),
(356,340,cs),
(356,303,o),
(341,284,o),
(312,284,cs)
);
},
{
closed = 1;
nodes = (
(678,461,l),
(678,566,l),
(313,566,l),
(313,461,l)
);
}
);
width = 690;
},
{
associatedMasterId = m01;
guides = (
{
angle = 90;
pos = (533,-230);
},
{
angle = 90;
pos = (60,463);
}
);
layerId = "5AB4113D-CAC8-484D-926C-D8088A12F51B";
name = "22 Nov 24 at 21:08";
shapes = (
{
closed = 1;
nodes = (
(294,-246,ls),
(441,-246,o),
(533,-189,o),
(533,-97,cs),
(533,11,o),
(460,52,o),
(270,52,cs),
(238,52,ls),
(156,52,o),
(128,75,o),
(145,128,cs),
(164,183,l),
(128,202,l),
(105,137,ls),
(76,53,o),
(136,0,o),
(262,0,cs),
(270,0,ls),
(428,0,o),
(481,-24,o),
(481,-97,cs),
(481,-163,o),
(414,-200,o),
(294,-200,cs),
(287,-200,ls),
(167,-200,o),
(100,-163,o),
(100,-97,cs),
(100,-35,o),
(144,0,o),
(223,0,cs),
(258,0,l),
(258,29,l),
(223,29,l),
(115,29,o),
(48,-20,o),
(48,-97,cs),
(48,-189,o),
(140,-246,o),
(287,-246,cs)
);
},
{
closed = 1;
nodes = (
(392,128,o),
(475,205,o),
(475,314,cs),
(475,423,o),
(392,500,o),
(275,500,cs),
(158,500,o),
(75,423,o),
(75,314,cs),
(75,205,o),
(158,128,o),
(275,128,cs)
);
},
{
closed = 1;
nodes = (
(184,174,o),
(127,228,o),
(127,314,cs),
(127,400,o),
(184,454,o),
(275,454,cs),
(366,454,o),
(423,400,o),
(423,314,cs),
(423,228,o),
(366,174,o),
(275,174,cs)
);
},
{
closed = 1;
nodes = (
(533,455,l),
(533,500,l),
(275,500,l),
(275,455,l)
);
}
);
width = 557;
},
{
associatedMasterId = m01;
guides = (
{
angle = 90;
pos = (533,-230);
},
{
angle = 90;
pos = (60,463);
}
);
layerId = "3C32015A-9AC1-4C6B-9479-10157389DB63";
name = "22 Nov 24 at 21:09";
shapes = (
{
closed = 1;
nodes = (
(294,-246,ls),
(441,-246,o),
(533,-189,o),
(533,-97,cs),
(533,11,o),
(460,52,o),
(270,52,cs),
(238,52,ls),
(156,52,o),
(128,75,o),
(145,128,cs),
(164,183,l),
(128,202,l),
(105,137,ls),
(76,53,o),
(136,0,o),
(262,0,cs),
(270,0,ls),
(428,0,o),
(481,-24,o),
(481,-97,cs),
(481,-163,o),
(414,-200,o),
(294,-200,cs),
(287,-200,ls),
(167,-200,o),
(100,-163,o),
(100,-97,cs),
(100,-35,o),
(144,0,o),
(223,0,cs),
(258,0,l),
(258,29,l),
(223,29,l),
(115,29,o),
(48,-20,o),
(48,-97,cs),
(48,-189,o),
(140,-246,o),
(287,-246,cs)
);
},
{
closed = 1;
nodes = (
(387,128,o),
(465,205,o),
(465,314,cs),
(465,423,o),
(387,500,o),
(275,500,cs),
(163,500,o),
(85,423,o),
(85,314,cs),
(85,205,o),
(163,128,o),
(275,128,cs)
);
},
{
closed = 1;
nodes = (
(190,174,o),
(137,228,o),
(137,314,cs),
(137,400,o),
(190,454,o),
(275,454,cs),
(360,454,o),
(413,400,o),
(413,314,cs),
(413,228,o),
(360,174,o),
(275,174,cs)
);
},
{
closed = 1;
nodes = (
(533,455,l),
(533,500,l),
(275,500,l),
(275,455,l)
);
}
);
width = 557;
},
{
associatedMasterId = m01;
guides = (
{
angle = 90;
pos = (533,-230);
},
{
angle = 90;
pos = (60,463);
}
);
layerId = "4EE8755D-6C4E-457D-9E0D-58B6FA52EFCB";
name = "22 Nov 24 at 21:15";
shapes = (
{
closed = 1;
nodes = (
(294,-246,ls),
(441,-246,o),
(533,-189,o),
(533,-97,cs),
(533,11,o),
(460,52,o),
(270,52,cs),
(238,52,ls),
(156,52,o),
(128,75,o),
(145,128,cs),
(164,183,l),
(128,202,l),
(105,137,ls),
(76,53,o),
(136,0,o),
(262,0,cs),
(270,0,ls),
(428,0,o),
(481,-24,o),
(481,-97,cs),
(481,-163,o),
(414,-200,o),
(294,-200,cs),
(287,-200,ls),
(167,-200,o),
(100,-163,o),
(100,-97,cs),
(100,-35,o),
(144,0,o),
(223,0,cs),
(258,0,l),
(258,29,l),
(223,29,l),
(115,29,o),
(48,-20,o),
(48,-97,cs),
(48,-189,o),
(140,-246,o),
(287,-246,cs)
);
},
{
closed = 1;
nodes = (
(384,128,o),
(460,205,o),
(460,314,cs),
(460,423,o),
(384,500,o),
(275,500,cs),
(166,500,o),
(90,423,o),
(90,314,cs),
(90,205,o),
(166,128,o),
(275,128,cs)
);
},
{
closed = 1;
nodes = (
(190,174,o),
(142,228,o),
(142,314,cs),
(142,400,o),
(190,454,o),
(275,454,cs),
(360,454,o),
(408,400,o),
(408,314,cs),
(408,228,o),
(357,174,o),
(275,174,cs)
);
},
{
closed = 1;
nodes = (
(533,455,l),
(533,500,l),
(275,500,l),
(275,455,l)
);
}
);
width = 557;
},
{
associatedMasterId = m01;
guides = (
{
angle = 90;
pos = (509,-230);
},
{
angle = 90;
pos = (36,463);
}
);
layerId = "12D5EDB0-8EA5-4FD1-BD96-A2401AA604A8";
name = "23 Nov 24 at 14:10";
shapes = (
{
closed = 1;
nodes = (
(270,-236,ls),
(417,-236,o),
(509,-180,o),
(509,-92,cs),
(509,12,o),
(436,52,o),
(246,52,cs),
(214,52,ls),
(132,52,o),
(104,75,o),
(121,128,cs),
(140,183,l),
(114,202,l),
(90,155,ls),
(42,60,o),
(99,0,o),
(238,0,cs),
(246,0,ls),
(404,0,o),
(457,-23,o),
(457,-92,cs),
(457,-155,o),
(390,-190,o),
(270,-190,cs),
(263,-190,ls),
(143,-190,o),
(76,-155,o),
(76,-92,cs),
(76,-33,o),
(120,0,o),
(199,0,cs),
(234,0,l),
(234,29,l),
(199,29,l),
(91,29,o),
(24,-18,o),
(24,-92,cs),
(24,-180,o),
(116,-236,o),
(263,-236,cs)
);
},
{
closed = 1;
nodes = (
(363,138,o),
(441,213,o),
(441,319,cs),
(441,425,o),
(363,500,o),
(251,500,cs),
(139,500,o),
(61,425,o),
(61,319,cs),
(61,213,o),
(139,138,o),
(251,138,cs)
);
},
{
closed = 1;
nodes = (
(166,184,o),
(113,236,o),
(113,319,cs),
(113,402,o),
(166,454,o),
(251,454,cs),
(336,454,o),
(389,402,o),
(389,319,cs),
(389,236,o),
(336,184,o),
(251,184,cs)
);
},
{
closed = 1;
nodes = (
(499,455,l),
(499,500,l),
(251,500,l),
(251,455,l)
);
}
);
width = 533;
},
{
associatedMasterId = m01;
guides = (
{
angle = 90;
pos = (479,-230);
},
{
angle = 90;
pos = (6,463);
}
);
layerId = "C2811A4C-E1A3-436A-B6E4-81A8EDBD9B17";
name = "23 Nov 24 at 23:39";
shapes = (
{
closed = 1;
nodes = (
(240,-236,ls),
(387,-236,o),
(479,-180,o),
(479,-92,cs),
(479,12,o),
(406,52,o),
(216,52,cs),
(132,52,ls),
(95,52,o),
(77,85,o),
(91,128,cs),
(110,183,l),
(84,202,l),
(60,155,ls),
(16,68,o),
(54,0,o),
(145,0,cs),
(216,0,ls),
(374,0,o),
(427,-23,o),
(427,-92,cs),
(427,-155,o),
(360,-190,o),
(240,-190,cs),
(233,-190,ls),
(103,-190,o),
(46,-128,o),
(85,-30,cs),
(111,35,l),
(82,44,l),
(51,-9,ls),
(-22,-136,o),
(58,-236,o),
(233,-236,cs)
);
},
{
closed = 1;
nodes = (
(333,138,o),
(411,213,o),
(411,319,cs),
(411,425,o),
(333,500,o),
(221,500,cs),
(109,500,o),
(31,425,o),
(31,319,cs),
(31,213,o),
(109,138,o),
(221,138,cs)
);
},
{
closed = 1;
nodes = (
(136,184,o),
(83,236,o),
(83,319,cs),
(83,402,o),
(136,454,o),
(221,454,cs),
(306,454,o),
(359,402,o),
(359,319,cs),
(359,236,o),
(306,184,o),
(221,184,cs)
);
},
{
closed = 1;
nodes = (
(469,455,l),
(469,500,l),
(221,500,l),
(221,455,l)
);
}
);
width = 503;
},
{
associatedMasterId = "7F4E18E3-41A5-4521-AA8A-AE39B7B68B38";
guides = (
{
angle = 90;
pos = (16,595);
}
);
layerId = "8AB67B95-4D8A-4855-AC15-FFEC6B1F33C4";
name = "25 Nov 24 at 12:08";
shapes = (
{
closed = 1;
nodes = (
(362,-236,ls),
(558,-236,o),
(667,-177,o),
(667,-71,cs),
(667,50,o),
(569,126,o),
(394,126,cs),
(323,126,ls),
(211,126,o),
(169,140,o),
(184,172,cs),
(222,243,l),
(123,243,l),
(69,173,ls),
(-39,32,o),
(67,-78,o),
(310,-78,cs),
(394,-78,ls),
(423,-78,o),
(437,-88,o),
(437,-107,cs),
(437,-124,o),
(423,-132,o),
(394,-132,cs),
(355,-132,ls),
(271,-132,o),
(229,-120,o),
(229,-97,cs),
(229,-84,o),
(248,-78,o),
(286,-78,cs),
(362,-78,l),
(362,-45,l),
(273,-45,l),
(91,-45,o),
(12,-74,o),
(12,-139,cs),
(12,-201,o),
(116,-236,o),
(301,-236,cs)
);
},
{
closed = 1;
nodes = (
(478,154,o),
(584,223,o),
(584,334,cs),
(584,467,o),
(478,550,o),
(310,550,cs),
(142,550,o),
(36,467,o),
(36,334,cs),
(36,223,o),
(142,154,o),
(310,154,cs)
);
},
{
closed = 1;
nodes = (
(282,268,o),
(266,292,o),
(266,334,cs),
(266,376,o),
(282,400,o),
(310,400,cs),
(338,400,o),
(354,376,o),
(354,334,cs),
(354,292,o),
(338,268,o),
(310,268,cs)
);
},
{
closed = 1;
nodes = (
(646,445,l),
(646,550,l),
(311,550,l),
(311,445,l)
);
}
);
width = 679;
},
{
associatedMasterId = "7F4E18E3-41A5-4521-AA8A-AE39B7B68B38";
guides = (
{
angle = 90;
pos = (-7,595);
}
);
layerId = "3A099DE7-BCFE-4AB8-9426-6802E6E9BA5D";
name = "25 Nov 24 at 12:23";
shapes = (
{
closed = 1;
nodes = (
(546,-256,o),
(669,-158,o),
(669,-1,cs),
(669,580,l),
(495,580,l),
(449,471,l),
(449,0,ls),
(449,-59,o),
(409,-96,o),
(344,-96,cs),
(280,-96,o),
(240,-59,o),
(240,0,c),
(34,0,l),
(34,-157,o),
(155,-256,o),
(349,-256,cs)
);
},
{
closed = 1;
nodes = (
(426,24,o),
(504,123,o),
(504,300,c),
(449,300,l),
(449,238,o),
(404,189,o),
(347,189,cs),
(276,189,o),
(237,232,o),
(237,310,cs),
(237,388,o),
(276,431,o),
(347,431,cs),
(404,431,o),
(449,382,o),
(449,320,c),
(504,320,l),
(504,497,o),
(426,596,o),
(287,596,cs),
(118,596,o),
(12,486,o),
(12,310,cs),
(12,134,o),
(118,24,o),
(287,24,cs)
);
}
);
width = 681;
},
{
associatedMasterId = m01;
guides = (
{
angle = 90;
pos = (484,-230);
},
{
angle = 90;
pos = (11,463);
}
);
layerId = "40A7188A-D2C5-41EA-AF68-822546D69608";
name = "25 Nov 24 at 12:24";
shapes = (
{
closed = 1;
nodes = (
(235,-236,ls),
(382,-236,o),
(474,-180,o),
(474,-92,cs),
(474,12,o),
(401,52,o),
(211,52,cs),
(127,52,ls),
(82,52,o),
(63,79,o),
(87,127,cs),
(122,196,l),
(99,218,l),
(60,158,ls),
(1,67,o),
(34,0,o),
(140,0,cs),
(211,0,ls),
(369,0,o),
(422,-23,o),
(422,-92,cs),
(422,-155,o),
(355,-190,o),
(235,-190,cs),
(228,-190,ls),
(94,-190,o),
(40,-129,o),
(105,-52,cs),
(146,5,l),
(121,21,l),
(77,-23,ls),
(-33,-142,o),
(33,-236,o),
(228,-236,cs)
);
},
{
closed = 1;
nodes = (
(338,154,o),
(416,229,o),
(416,335,cs),
(416,441,o),
(338,516,o),
(226,516,cs),
(114,516,o),
(36,441,o),
(36,335,cs),
(36,229,o),
(114,154,o),
(226,154,cs)
);
},
{
closed = 1;
nodes = (
(141,200,o),
(88,252,o),
(88,335,cs),
(88,418,o),
(141,470,o),
(226,470,cs),
(311,470,o),
(364,418,o),
(364,335,cs),
(364,252,o),
(311,200,o),
(226,200,cs)
);
},
{
closed = 1;
nodes = (
(386,432,o),
(428,455,o),
(484,455,c),
(484,500,l),
(415,500,o),
(380,481,o),
(358,430,c),
(358,385,l)
);
}
);
width = 508;
},
{
associatedMasterId = "7F4E18E3-41A5-4521-AA8A-AE39B7B68B38";
guides = (
{
angle = 90;
pos = (13,595);
}
);
layerId = "977BC55C-4007-4AB7-A039-A74BA063B5AE";
name = "25 Nov 24 at 12:41";
shapes = (
{
closed = 1;
nodes = (
(569,-256,o),
(689,-146,o),
(689,50,cs),
(689,580,l),
(515,580,l),
(469,471,l),
(469,50,ls),
(469,-48,o),
(429,-96,o),
(349,-96,cs),
(279,-96,o),
(230,-56,o),
(230,0,c),
(24,0,l),
(24,-150,o),
(160,-256,o),
(354,-256,cs)
);
},
{
closed = 1;
nodes = (
(446,24,o),
(524,123,o),
(524,300,c),
(469,300,l),
(469,238,o),
(424,189,o),
(367,189,cs),
(296,189,o),
(257,232,o),
(257,310,cs),
(257,388,o),
(296,431,o),
(367,431,cs),
(424,431,o),
(469,382,o),
(469,320,c),
(524,320,l),
(524,497,o),
(446,596,o),
(307,596,cs),
(138,596,o),
(32,486,o),
(32,310,cs),
(32,134,o),
(138,24,o),
(307,24,cs)
);
}
);
width = 724;
},
{
associatedMasterId = m01;
guides = (
{
angle = 90;
pos = (490,-230);
},
{
angle = 90;
pos = (17,463);
}
);
layerId = "FDD3EA42-C177-479E-AFF0-3763EDADA562";
name = "25 Nov 24 at 15:56";
shapes = (
{
closed = 1;
nodes = (
(496,-256,o),
(592,-150,o),
(592,40,cs),
(592,550,l),
(542,550,l),
(542,427,l),
(542,40,ls),
(542,-120,o),
(463,-210,o),
(323,-210,cs),
(199,-210,o),
(101,-118,o),
(101,0,c),
(53,0,l),
(53,-143,o),
(172,-256,o),
(323,-256,cs)
);
},
{
closed = 1;
nodes = (
(469,-16,o),
(573,101,o),
(573,267,c),
(542,267,l),
(542,128,o),
(451,30,o),
(322,30,cs),
(192,30,o),
(100,131,o),
(100,275,cs),
(100,419,o),
(192,520,o),
(322,520,cs),
(451,520,o),
(542,422,o),
(542,283,c),
(573,283,l),
(573,449,o),
(469,566,o),
(322,566,cs),
(161,566,o),
(48,446,o),
(48,275,cs),
(48,104,o),
(161,-16,o),
(322,-16,cs)
);
}
);
width = 622;
},
{
associatedMasterId = m01;
guides = (
{
angle = 90;
pos = (543,505);
},
{
angle = 90;
pos = (-11,463);
}
);
layerId = "9CAE9B43-8AFC-4631-A592-1E23CDAF3907";
name = "25 Nov 24 at 16:10";
shapes = (
{
closed = 1;
nodes = (
(543,505,l),
(543,549,l),
(267,549,l),
(267,505,l)
);
},
{
closed = 1;
nodes = (
(390,157,o),
(477,238,o),
(477,353,cs),
(477,468,o),
(390,549,o),
(267,549,cs),
(144,549,o),
(57,468,o),
(57,353,cs),
(57,238,o),
(144,157,o),
(267,157,cs)
);
},
{
closed = 1;
nodes = (
(170,203,o),
(109,261,o),
(109,353,cs),
(109,445,o),
(170,503,o),
(267,503,cs),
(364,503,o),
(425,445,o),
(425,353,cs),
(425,261,o),
(364,203,o),
(267,203,cs)
);
},
{
closed = 1;
nodes = (
(132,-196,o),
(96,-165,o),
(96,-72,c),
(48,-72,l),
(48,-189,o),
(107,-240,o),
(241,-240,cs),
(355,-240,ls),
(474,-240,o),
(548,-185,o),
(548,-98,cs),
(548,-11,o),
(474,44,o),
(355,44,cs),
(183,44,ls),
(127,44,o),
(107,75,o),
(131,125,cs),
(162,188,l),
(127,218,l),
(90,143,ls),
(51,63,o),
(92,0,o),
(183,0,cs),
(355,0,ls),
(449,0,o),
(496,-32,o),
(496,-98,cs),
(496,-164,o),
(449,-196,o),
(355,-196,cs),
(241,-196,ls)
);
}
);
width = 578;
},
{
associatedMasterId = "7F4E18E3-41A5-4521-AA8A-AE39B7B68B38";
guides = (
{
angle = 90;
pos = (5,595);
}
);
layerId = "83288AD6-0FCF-4864-9B89-47798C2EC745";
name = "25 Nov 24 at 16:19";
shapes = (
{
closed = 1;
nodes = (
(461,-51,o),
(443,-70,o),
(411,-70,cs),
(55,-70,l),
(55,-240,l),
(401,-240,ls),
(581,-240,o),
(681,-157,o),
(681,-8,cs),
(681,580,l),
(507,580,l),
(461,471,l),
(461,-18,ls)
);
},
{
closed = 1;
nodes = (
(438,-16,o),
(516,88,o),
(516,275,c),
(461,275,l),
(461,204,o),
(416,149,o),
(359,149,cs),
(291,149,o),
(249,203,o),
(249,290,cs),
(249,377,o),
(291,431,o),
(359,431,cs),
(416,431,o),
(461,373,o),
(461,300,c),
(516,300,l),
(516,490,o),
(438,596,o),
(299,596,cs),
(130,596,o),
(24,478,o),
(24,290,cs),
(24,102,o),
(130,-16,o),
(299,-16,cs)
);
}
);
width = 716;
},
{
associatedMasterId = m01;
guides = (
{
angle = 90;
pos = (543,393);
},
{
angle = 90;
pos = (-11,463);
}
);
layerId = "8C7FC383-C24E-4678-AF11-5078C49F6746";
name = "25 Nov 24 at 16:36";
shapes = (
{
closed = 1;
nodes = (
(355,-240,ls),
(479,-240,o),
(548,-189,o),
(548,-98,cs),
(548,-7,o),
(479,44,o),
(355,44,cs),
(183,44,ls),
(127,44,o),
(107,75,o),
(131,125,cs),
(162,188,l),
(132,218,l),
(95,143,ls),
(56,63,o),
(95,0,o),
(183,0,cs),
(355,0,ls),
(454,0,o),
(498,-30,o),
(498,-98,cs),
(498,-166,o),
(454,-196,o),
(355,-196,cs),
(241,-196,ls),
(136,-196,o),
(96,-156,o),
(96,-52,c),
(48,-52,l),
(48,-178,o),
(112,-240,o),
(241,-240,cs)
);
},
{
closed = 1;
nodes = (
(387,148,o),
(481,236,o),
(481,349,cs),
(481,462,o),
(387,550,o),
(267,550,cs),
(147,550,o),
(53,462,o),
(53,349,cs),
(53,236,o),
(147,148,o),
(267,148,cs)
);
},
{
closed = 1;
nodes = (
(172,193,o),
(105,257,o),
(105,348,cs),
(105,439,o),
(172,503,o),
(267,503,cs),
(362,503,o),
(429,439,o),
(429,348,cs),
(429,257,o),
(362,193,o),
(267,193,cs)
);
},
{
closed = 1;
nodes = (
(390,506,l),
(390,526,l),
(390,573,o),
(418,599,o),
(465,599,c),
(543,599,l),
(543,643,l),
(465,643,ls),
(388,643,o),
(340,598,o),
(340,526,cs),
(340,506,l)
);
}
);
width = 578;
},
{
associatedMasterId = m01;
guides = (
{
angle = 90;
pos = (543,393);
},
{
angle = 90;
pos = (-11,463);
}
);
layerId = "A293B618-FF09-4447-80C5-3631BA224CFE";
name = "25 Nov 24 at 16:36";
shapes = (
{
closed = 1;
nodes = (
(355,-240,ls),
(479,-240,o),
(548,-189,o),
(548,-98,cs),
(548,-7,o),
(479,44,o),
(355,44,cs),
(183,44,ls),
(127,44,o),
(107,75,o),
(131,125,cs),
(162,188,l),
(132,218,l),
(95,143,ls),
(56,63,o),
(95,0,o),
(183,0,cs),
(355,0,ls),
(454,0,o),
(498,-30,o),
(498,-98,cs),
(498,-166,o),
(454,-196,o),
(355,-196,cs),
(241,-196,ls),
(136,-196,o),
(96,-156,o),
(96,-52,c),
(48,-52,l),
(48,-178,o),
(112,-240,o),
(241,-240,cs)
);
},
{
closed = 1;
nodes = (
(387,148,o),
(481,236,o),
(481,349,cs),
(481,462,o),
(387,550,o),
(267,550,cs),
(147,550,o),
(53,462,o),
(53,349,cs),
(53,236,o),
(147,148,o),
(267,148,cs)
);
},
{
closed = 1;
nodes = (
(172,193,o),
(105,257,o),
(105,348,cs),
(105,439,o),
(172,503,o),
(267,503,cs),
(362,503,o),
(429,439,o),
(429,348,cs),
(429,257,o),
(362,193,o),
(267,193,cs)
);
},
{
closed = 1;
nodes = (
(390,506,l),
(390,526,l),
(390,573,o),
(418,599,o),
(465,599,c),
(543,599,l),
(543,643,l),
(465,643,ls),
(388,643,o),
(340,598,o),
(340,526,cs),
(340,506,l)
);
}
);
width = 578;
},
{
anchors = (
{
name = bottom;
pos = (291,-240);
},
{
name = top;
pos = (299,550);
}
);
guides = (
{
angle = 90;
pos = (75,349);
},
{
angle = 90;
pos = (11,463);
},
{
pos = (518,354);
}
);
layerId = m01;
name = Light;
shapes = (
{
closed = 1;
nodes = (
(372,-240,ls),
(496,-240,o),
(565,-189,o),
(565,-98,cs),
(565,-7,o),
(496,44,o),
(372,44,cs),
(170,44,ls),
(111,44,o),
(92,73,o),
(118,125,cs),
(164,217,l),
(148,248,l),
(82,143,ls),
(31,63,o),
(70,0,o),
(170,0,cs),
(372,0,ls),
(468,0,o),
(515,-32,o),
(515,-98,cs),
(515,-164,o),
(468,-196,o),
(372,-196,cs),
(199,-196,l),
(199,-240,l)
);
},
{
closed = 1;
nodes = (
(428,153,o),
(518,238,o),
(518,359,cs),
(518,480,o),
(428,565,o),
(299,565,cs),
(170,565,o),
(80,480,o),
(80,359,cs),
(80,238,o),
(170,153,o),
(299,153,cs)
);
},
{
closed = 1;
nodes = (
(200,198,o),
(131,264,o),
(131,359,cs),
(131,454,o),
(200,520,o),
(299,520,cs),
(398,520,o),
(467,454,o),
(467,359,cs),
(467,264,o),
(398,198,o),
(299,198,cs)
);
},
{
closed = 1;
nodes = (
(513,659,l),
(522,579,o),
(456,521,o),
(390,549,c),
(390,512,l),
(460,487,o),
(583,551,o),
(565,659,c)
);
}
);
width = 570;
},
{
associatedMasterId = "7F4E18E3-41A5-4521-AA8A-AE39B7B68B38";
guides = (
{
angle = 90;
pos = (663,657);
}
);
layerId = "3EFCB2D4-D9E7-411E-9406-ADEE9376C878";
name = "25 Nov 24 at 16:37";
shapes = (
{
closed = 1;
nodes = (
(397,-240,ls),
(565,-240,o),
(670,-163,o),
(670,-40,cs),
(670,85,o),
(565,163,o),
(397,163,cs),
(291,163,ls),
(218,163,o),
(192,180,o),
(210,215,cs),
(239,270,l),
(140,270,l),
(86,200,ls),
(-22,58,o),
(58,-41,o),
(279,-41,cs),
(387,-41,ls),
(421,-41,o),
(440,-55,o),
(440,-80,cs),
(440,-105,o),
(421,-119,o),
(387,-119,cs),
(246,-119,ls),
(202,-119,o),
(185,-103,o),
(185,-61,c),
(24,-61,l),
(24,-181,o),
(102,-240,o),
(258,-240,cs)
);
},
{
closed = 1;
nodes = (
(495,194,o),
(601,263,o),
(601,374,cs),
(601,501,o),
(495,580,o),
(327,580,cs),
(159,580,o),
(53,501,o),
(53,374,cs),
(53,263,o),
(159,194,o),
(327,194,cs)
);
},
{
closed = 1;
nodes = (
(299,298,o),
(278,322,o),
(278,364,cs),
(278,406,o),
(299,430,o),
(327,430,cs),
(355,430,o),
(376,406,o),
(376,364,cs),
(376,322,o),
(355,298,o),
(327,298,cs)
);
},
{
closed = 1;
nodes = (
(663,475,l),
(663,580,l),
(328,580,l),
(328,475,l)
);
}
);
width = 705;
},
{
associatedMasterId = m01;
guides = (
{
angle = 90;
pos = (48,349);
},
{
angle = 90;
pos = (-16,463);
}
);
layerId = "603E4508-0803-414A-9FAC-12331769C1A8";
name = "25 Nov 24 at 17:17";
shapes = (
{
closed = 1;
nodes = (
(355,-240,ls),
(479,-240,o),
(548,-189,o),
(548,-98,cs),
(548,-7,o),
(479,44,o),
(355,44,cs),
(183,44,ls),
(127,44,o),
(107,75,o),
(131,125,cs),
(162,188,l),
(132,218,l),
(95,143,ls),
(56,63,o),
(95,0,o),
(183,0,cs),
(355,0,ls),
(454,0,o),
(498,-30,o),
(498,-98,cs),
(498,-166,o),
(454,-196,o),
(355,-196,cs),
(241,-196,ls),
(136,-196,o),
(96,-156,o),
(96,-52,c),
(48,-52,l),
(48,-178,o),
(112,-240,o),
(241,-240,cs)
);
},
{
closed = 1;
nodes = (
(382,148,o),
(476,236,o),
(476,349,cs),
(476,462,o),
(382,550,o),
(262,550,cs),
(142,550,o),
(48,462,o),
(48,349,cs),
(48,236,o),
(142,148,o),
(262,148,cs)
);
},
{
closed = 1;
nodes = (
(167,193,o),
(100,257,o),
(100,348,cs),
(100,439,o),
(167,503,o),
(262,503,cs),
(357,503,o),
(424,439,o),
(424,348,cs),
(424,257,o),
(357,193,o),
(262,193,cs)
);
},
{
closed = 1;
nodes = (
(538,506,l),
(538,550,l),
(262,550,l),
(262,506,l)
);
}
);
width = 578;
},
{
associatedMasterId = "7F4E18E3-41A5-4521-AA8A-AE39B7B68B38";
guides = (
{
angle = 90;
pos = (696,657);
}
);
layerId = "90EFFC68-0B97-43F2-A223-25FC2719C161";
name = "25 Nov 24 at 17:22";
shapes = (
{
closed = 1;
nodes = (
(384,-240,ls),
(559,-240,o),
(657,-171,o),
(657,-48,cs),
(657,75,o),
(559,144,o),
(384,144,cs),
(248,144,ls),
(175,144,o),
(149,161,o),
(167,196,cs),
(196,252,l),
(127,283,l),
(73,213,ls),
(-38,67,o),
(47,-37,o),
(266,-37,cs),
(388,-37,ls),
(417,-37,o),
(431,-47,o),
(431,-66,cs),
(431,-85,o),
(417,-95,o),
(388,-95,cs),
(177,-95,l),
(177,-240,l)
);
},
{
closed = 1;
nodes = (
(467,194,o),
(573,263,o),
(573,374,cs),
(573,501,o),
(467,580,o),
(299,580,cs),
(131,580,o),
(25,501,o),
(25,374,cs),
(25,263,o),
(131,194,o),
(299,194,cs)
);
},
{
closed = 1;
nodes = (
(271,298,o),
(250,322,o),
(250,364,cs),
(250,406,o),
(271,430,o),
(299,430,cs),
(327,430,o),
(348,406,o),
(348,364,cs),
(348,322,o),
(327,298,o),
(299,298,cs)
);
},
{
closed = 1;
nodes = (
(655,475,l),
(655,580,l),
(300,580,l),
(300,475,l)
);
}
);
width = 692;
},
{
associatedMasterId = m01;
guides = (
{
angle = 90;
pos = (48,349);
},
{
angle = 90;
pos = (-16,463);
}
);
layerId = "D07DB110-9246-4631-BE9B-99FB47F853C9";
name = "26 Nov 24 at 09:16";
shapes = (
{
closed = 1;
nodes = (
(355,-240,ls),
(479,-240,o),
(548,-189,o),
(548,-98,cs),
(548,-7,o),
(479,44,o),
(355,44,cs),
(183,44,ls),
(127,44,o),
(107,75,o),
(131,125,cs),
(162,188,l),
(132,218,l),
(95,143,ls),
(56,63,o),
(95,0,o),
(183,0,cs),
(355,0,ls),
(454,0,o),
(498,-30,o),
(498,-98,cs),
(498,-166,o),
(454,-196,o),
(355,-196,cs),
(172,-196,l),
(172,-240,l)
);
},
{
closed = 1;
nodes = (
(382,148,o),
(476,236,o),
(476,349,cs),
(476,462,o),
(382,550,o),
(262,550,cs),
(142,550,o),
(48,462,o),
(48,349,cs),
(48,236,o),
(142,148,o),
(262,148,cs)
);
},
{
closed = 1;
nodes = (
(167,193,o),
(100,257,o),
(100,348,cs),
(100,439,o),
(167,503,o),
(262,503,cs),
(357,503,o),
(424,439,o),
(424,348,cs),
(424,257,o),
(357,193,o),
(262,193,cs)
);
},
{
closed = 1;
nodes = (
(538,506,l),
(538,550,l),
(262,550,l),
(262,506,l)
);
}
);
width = 550;
},
{
associatedMasterId = m01;
guides = (
{
angle = 90;
pos = (48,349);
},
{
angle = 90;
pos = (-16,463);
}
);
layerId = "64D11F20-EAC7-4617-AF8E-B0C33EA13D69";
name = "26 Nov 24 at 19:04";
shapes = (
{
closed = 1;
nodes = (
(385,-240,ls),
(509,-240,o),
(578,-189,o),
(578,-98,cs),
(578,-7,o),
(509,44,o),
(385,44,cs),
(183,44,ls),
(127,44,o),
(107,75,o),
(131,125,cs),
(162,188,l),
(132,218,l),
(95,143,ls),
(56,63,o),
(95,0,o),
(183,0,cs),
(385,0,ls),
(484,0,o),
(528,-30,o),
(528,-98,cs),
(528,-166,o),
(484,-196,o),
(385,-196,cs),
(172,-196,l),
(172,-240,l)
);
},
{
closed = 1;
nodes = (
(382,148,o),
(476,236,o),
(476,349,cs),
(476,462,o),
(382,550,o),
(262,550,cs),
(142,550,o),
(48,462,o),
(48,349,cs),
(48,236,o),
(142,148,o),
(262,148,cs)
);
},
{
closed = 1;
nodes = (
(167,193,o),
(100,257,o),
(100,348,cs),
(100,439,o),
(167,503,o),
(262,503,cs),
(357,503,o),
(424,439,o),
(424,348,cs),
(424,257,o),
(357,193,o),
(262,193,cs)
);
},
{
closed = 1;
nodes = (
(538,506,l),
(538,550,l),
(262,550,l),
(262,506,l)
);
}
);
width = 558;
},
{
associatedMasterId = "7F4E18E3-41A5-4521-AA8A-AE39B7B68B38";
guides = (
{
angle = 90;
pos = (695,657);
}
);
layerId = "AFC60AB9-A2AB-4A3A-A15E-3426292BFE3D";
name = "26 Nov 24 at 19:08";
shapes = (
{
closed = 1;
nodes = (
(403,-240,ls),
(571,-240,o),
(676,-163,o),
(676,-41,cs),
(676,81,o),
(571,158,o),
(403,158,cs),
(247,158,ls),
(175,158,o),
(148,175,o),
(166,210,cs),
(195,266,l),
(120,283,l),
(78,229,ls),
(-36,82,o),
(41,-21,o),
(265,-21,cs),
(407,-21,ls),
(435,-21,o),
(450,-30,o),
(450,-45,cs),
(450,-60,o),
(435,-69,o),
(407,-69,cs),
(146,-69,l),
(146,-240,l)
);
},
{
closed = 1;
nodes = (
(466,194,o),
(572,263,o),
(572,374,cs),
(572,501,o),
(466,580,o),
(298,580,cs),
(130,580,o),
(24,501,o),
(24,374,cs),
(24,263,o),
(130,194,o),
(298,194,cs)
);
},
{
closed = 1;
nodes = (
(267,308,o),
(249,328,o),
(249,364,cs),
(249,406,o),
(270,430,o),
(298,430,cs),
(326,430,o),
(347,406,o),
(347,364,cs),
(347,328,o),
(329,308,o),
(298,308,cs)
);
},
{
closed = 1;
nodes = (
(654,475,l),
(654,580,l),
(299,580,l),
(299,475,l)
);
}
);
width = 666;
},
{
associatedMasterId = m01;
guides = (
{
angle = 90;
pos = (48,349);
},
{
angle = 90;
pos = (-16,463);
}
);
layerId = "DE4ABC4E-FF6C-4D88-A1E7-814E5694390D";
name = "26 Nov 24 at 19:28";
shapes = (
{
closed = 1;
nodes = (
(365,-240,ls),
(489,-240,o),
(558,-189,o),
(558,-98,cs),
(558,-7,o),
(489,44,o),
(365,44,cs),
(183,44,ls),
(127,44,o),
(107,75,o),
(131,125,cs),
(162,188,l),
(132,218,l),
(95,143,ls),
(56,63,o),
(95,0,o),
(183,0,cs),
(365,0,ls),
(464,0,o),
(508,-30,o),
(508,-98,cs),
(508,-166,o),
(464,-196,o),
(365,-196,cs),
(172,-196,l),
(172,-240,l)
);
},
{
closed = 1;
nodes = (
(382,148,o),
(476,236,o),
(476,349,cs),
(476,462,o),
(382,550,o),
(262,550,cs),
(142,550,o),
(48,462,o),
(48,349,cs),
(48,236,o),
(142,148,o),
(262,148,cs)
);
},
{
closed = 1;
nodes = (
(167,193,o),
(100,257,o),
(100,348,cs),
(100,439,o),
(167,503,o),
(262,503,cs),
(357,503,o),
(424,439,o),
(424,348,cs),
(424,257,o),
(357,193,o),
(262,193,cs)
);
},
{
closed = 1;
nodes = (
(475,624,l),
(484,544,o),
(417,505,o),
(351,533,c),
(351,497,l),
(421,472,o),
(545,516,o),
(527,624,c)
);
}
);
width = 560;
},
{
anchors = (
{
name = bottom;
pos = (279,-240);
},
{
name = top;
pos = (287,550);
}
);
associatedMasterId = m01;
guides = (
{
angle = 90;
pos = (63,349);
},
{
angle = 90;
pos = (-1,463);
}
);
layerId = "D25ADC63-63BB-4E53-9273-FF323FB5B12D";
name = "29 Nov 24 at 12:05";
shapes = (
{
closed = 1;
nodes = (
(360,-240,ls),
(484,-240,o),
(553,-189,o),
(553,-98,cs),
(553,-7,o),
(484,44,o),
(360,44,cs),
(158,44,ls),
(99,44,o),
(80,73,o),
(106,125,cs),
(152,217,l),
(136,248,l),
(70,143,ls),
(19,63,o),
(58,0,o),
(158,0,cs),
(360,0,ls),
(456,0,o),
(503,-32,o),
(503,-98,cs),
(503,-164,o),
(456,-196,o),
(360,-196,cs),
(187,-196,l),
(187,-240,l)
);
},
{
closed = 1;
nodes = (
(416,143,o),
(506,230,o),
(506,354,cs),
(506,478,o),
(416,565,o),
(287,565,cs),
(158,565,o),
(68,478,o),
(68,354,cs),
(68,230,o),
(158,143,o),
(287,143,cs)
);
},
{
closed = 1;
nodes = (
(189,188,o),
(120,256,o),
(120,353,cs),
(120,450,o),
(189,518,o),
(287,518,cs),
(385,518,o),
(454,450,o),
(454,353,cs),
(454,256,o),
(385,188,o),
(287,188,cs)
);
},
{
closed = 1;
nodes = (
(501,659,l),
(510,579,o),
(443,521,o),
(377,549,c),
(377,512,l),
(447,487,o),
(571,551,o),
(553,659,c)
);
}
);
width = 558;
},
{
anchors = (
{
name = bottom;
pos = (291,-240);
},
{
name = top;
pos = (299,550);
}
);
associatedMasterId = m01;
guides = (
{
angle = 90;
pos = (75,349);
},
{
angle = 90;
pos = (11,463);
},
{
pos = (518,354);
}
);
layerId = "C41D4BA3-2F68-4B24-A323-68F4FC7FBAC7";
name = "5 Dec 24 at 10:29";
shapes = (
{
closed = 1;
nodes = (
(372,-240,ls),
(496,-240,o),
(565,-189,o),
(565,-98,cs),
(565,-7,o),
(496,44,o),
(372,44,cs),
(170,44,ls),
(111,44,o),
(92,73,o),
(118,125,cs),
(164,217,l),
(148,248,l),
(82,143,ls),
(31,63,o),
(70,0,o),
(170,0,cs),
(372,0,ls),
(468,0,o),
(515,-32,o),
(515,-98,cs),
(515,-164,o),
(468,-196,o),
(372,-196,cs),
(199,-196,l),
(199,-240,l)
);
},
{
closed = 1;
nodes = (
(428,143,o),
(518,230,o),
(518,354,cs),
(518,478,o),
(428,565,o),
(299,565,cs),
(170,565,o),
(80,478,o),
(80,354,cs),
(80,230,o),
(170,143,o),
(299,143,cs)
);
},
{
closed = 1;
nodes = (
(201,189,o),
(132,257,o),
(132,354,cs),
(132,451,o),
(201,519,o),
(299,519,cs),
(397,519,o),
(466,451,o),
(466,354,cs),
(466,257,o),
(397,189,o),
(299,189,cs)
);
},
{
closed = 1;
nodes = (
(513,659,l),
(522,579,o),
(455,521,o),
(389,549,c),
(389,512,l),
(459,487,o),
(583,551,o),
(565,659,c)
);
}
);
width = 570;
}
);
metricLeft = "=o";
unicode = 103;
},
{
color = 8;
glyphname = h;
lastChange = "2024-12-04 12:14:18 +0000";
layers = (
{
layerId = m01;
shapes = (
{
closed = 1;
nodes = (
(565,0,l),
(565,365,ls),
(565,488,o),
(482,566,o),
(351,566,cs),
(204,566,o),
(101,452,o),
(101,290,c),
(132,290,l),
(132,425,o),
(227,520,o),
(351,520,cs),
(452,520,o),
(515,460,o),
(515,365,cs),
(515,0,l)
);
},
{
closed = 1;
nodes = (
(132,0,l),
(132,407,l),
(132,760,l),
(82,760,l),
(82,0,l)
);
}
);
width = 647;
},
{
layerId = "7F4E18E3-41A5-4521-AA8A-AE39B7B68B38";
shapes = (
{
closed = 1;
nodes = (
(657,0,l),
(657,356,ls),
(657,503,o),
(572,596,o),
(437,596,cs),
(295,596,o),
(216,488,o),
(216,295,c),
(261,295,l),
(261,379,o),
(300,421,o),
(362,421,cs),
(408,421,o),
(437,392,o),
(437,346,cs),
(437,0,l)
);
},
{
closed = 1;
nodes = (
(261,0,l),
(261,492,l),
(261,760,l),
(41,760,l),
(41,0,l)
);
}
);
width = 698;
},
{
associatedMasterId = "7F4E18E3-41A5-4521-AA8A-AE39B7B68B38";
layerId = "B4DF36B2-44F7-462D-BD82-106E4DC41EF8";
name = "21 Nov 24 at 08:01";
shapes = (
{
closed = 1;
nodes = (
(643,0,l),
(643,274,l),
(643,485,o),
(582,566,o),
(422,566,cs),
(360,566,o),
(295,534,o),
(255,482,c),
(229,482,l),
(229,324,l),
(255,324,l),
(255,365,o),
(284,391,o),
(329,391,cs),
(397,391,o),
(423,356,o),
(423,265,cs),
(423,0,l)
);
},
{
closed = 1;
nodes = (
(255,0,l),
(255,482,l),
(255,770,l),
(35,770,l),
(35,0,l)
);
}
);
width = 678;
},
{
associatedMasterId = m01;
layerId = "6F6EBD13-E979-4F13-A842-2222FC868088";
name = "25 Nov 24 at 09:34";
shapes = (
{
closed = 1;
nodes = (
(513,0,l),
(513,328,l),
(513,443,o),
(434,516,o),
(308,516,cs),
(228,516,o),
(155,474,o),
(120,407,c),
(94,407,l),
(94,275,l),
(120,275,l),
(120,389,o),
(198,470,o),
(308,470,cs),
(403,470,o),
(463,415,o),
(463,328,cs),
(463,0,l)
);
},
{
closed = 1;
nodes = (
(120,0,l),
(120,407,l),
(120,780,l),
(70,780,l),
(70,0,l)
);
}
);
width = 583;
},
{
associatedMasterId = m01;
layerId = "6C4DC4C4-E97E-4801-8F46-FE88135EF75C";
name = "25 Nov 24 at 09:51";
shapes = (
{
closed = 1;
nodes = (
(528,0,l),
(528,378,l),
(528,493,o),
(445,566,o),
(313,566,cs),
(233,566,o),
(153,521,o),
(120,457,c),
(94,457,l),
(94,325,l),
(120,325,l),
(120,439,o),
(200,520,o),
(313,520,cs),
(414,520,o),
(478,465,o),
(478,378,cs),
(478,0,l)
);
},
{
closed = 1;
nodes = (
(120,0,l),
(120,407,l),
(120,800,l),
(70,800,l),
(70,0,l)
);
}
);
width = 598;
},
{
associatedMasterId = "7F4E18E3-41A5-4521-AA8A-AE39B7B68B38";
layerId = "4DCA8702-BB9C-4177-B72C-EF64187683D8";
name = "25 Nov 24 at 10:35";
shapes = (
{
closed = 1;
nodes = (
(636,0,l),
(636,274,l),
(636,493,o),
(583,566,o),
(422,566,cs),
(360,566,o),
(295,534,o),
(255,482,c),
(229,482,l),
(229,324,l),
(255,324,l),
(255,365,o),
(284,391,o),
(329,391,cs),
(392,391,o),
(416,356,o),
(416,265,cs),
(416,0,l)
);
},
{
closed = 1;
nodes = (
(255,0,l),
(255,482,l),
(255,780,l),
(35,780,l),
(35,0,l)
);
}
);
width = 671;
},
{
associatedMasterId = "7F4E18E3-41A5-4521-AA8A-AE39B7B68B38";
layerId = "5690E7B0-6D09-4BAA-A3C8-D2FCD23C69FC";
name = "1 Dec 24 at 14:13";
shapes = (
{
closed = 1;
nodes = (
(651,0,l),
(651,356,ls),
(651,503,o),
(566,596,o),
(431,596,cs),
(289,596,o),
(210,488,o),
(210,295,c),
(255,295,l),
(255,379,o),
(294,431,o),
(356,431,cs),
(402,431,o),
(431,402,o),
(431,356,cs),
(431,0,l)
);
},
{
closed = 1;
nodes = (
(255,0,l),
(255,492,l),
(255,760,l),
(35,760,l),
(35,0,l)
);
}
);
width = 686;
}
);
metricLeft = "=n";
metricRight = "=n";
unicode = 104;
},
{
glyphname = hbar;
lastChange = "2024-12-05 04:58:11 +0000";
layers = (
{
layerId = m01;
shapes = (
{
ref = h;
},
{
closed = 1;
nodes = (
(366,665,l),
(12,665,l),
(12,621,l),
(366,621,l)
);
}
);
width = 647;
},
{
layerId = "7F4E18E3-41A5-4521-AA8A-AE39B7B68B38";
shapes = (
{
ref = h;
},
{
closed = 1;
nodes = (
(400,727,l),
(-30,727,l),
(-30,617,l),
(400,617,l)
);
}
);
width = 698;
}
);
metricLeft = "=h@100";
metricRight = "=h";
unicode = 295;
},
{
glyphname = idotless;
lastChange = "2024-12-04 12:14:23 +0000";
layers = (
{
anchors = (
{
name = bottom;
pos = (107,0);
},
{
name = ogonek;
pos = (132,0);
},
{
name = top;
pos = (107,550);
}
);
layerId = m01;
shapes = (
{
closed = 1;
nodes = (
(132,0,l),
(132,550,l),
(82,550,l),
(82,0,l)
);
}
);
width = 214;
},
{
anchors = (
{
name = bottom;
pos = (151,0);
},
{
name = ogonek;
pos = (261,0);
},
{
name = top;
pos = (151,580);
}
);
layerId = "7F4E18E3-41A5-4521-AA8A-AE39B7B68B38";
shapes = (
{
closed = 1;
nodes = (
(261,0,l),
(261,580,l),
(41,580,l),
(41,0,l)
);
}
);
width = 302;
}
);
metricLeft = "=n";
metricRight = "=|n";
unicode = 305;
},
{
glyphname = jdotless;
lastChange = "2024-12-04 12:14:23 +0000";
layers = (
{
anchors = (
{
name = bottom;
pos = (107,-240);
},
{
name = top;
pos = (107,550);
}
);
layerId = m01;
shapes = (
{
closed = 1;
nodes = (
(18,-240,ls),
(100,-240,o),
(132,-215,o),
(132,-148,cs),
(132,550,l),
(82,550,l),
(82,-147,ls),
(82,-183,o),
(66,-195,o),
(17,-195,cs),
(-24,-195,l),
(-24,-240,l)
);
}
);
width = 214;
},
{
anchors = (
{
name = bottom;
pos = (151,-240);
},
{
name = top;
pos = (151,580);
}
);
layerId = "7F4E18E3-41A5-4521-AA8A-AE39B7B68B38";
shapes = (
{
closed = 1;
nodes = (
(31,-240,ls),
(203,-240,o),
(261,-194,o),
(261,-58,cs),
(261,580,l),
(41,580,l),
(41,-53,ls),
(41,-86,o),
(23,-105,o),
(-9,-105,cs),
(-26,-105,l),
(-26,-240,l)
);
}
);
width = 302;
},
{
anchors = (
{
name = bottom;
pos = (95,-240);
},
{
name = top;
pos = (95,550);
}
);
associatedMasterId = m01;
layerId = "222B83D0-D4E8-461D-ACB5-5C2A4C81CAFE";
name = "29 Nov 24 at 11:57";
shapes = (
{
closed = 1;
nodes = (
(68,-210,o),
(120,-152,o),
(120,-39,cs),
(120,550,l),
(70,550,l),
(70,-39,ls),
(70,-125,o),
(37,-163,o),
(-38,-165,c),
(-38,-213,l)
);
}
);
width = 190;
},
{
anchors = (
{
name = bottom;
pos = (145,-240);
},
{
name = top;
pos = (145,580);
}
);
associatedMasterId = "7F4E18E3-41A5-4521-AA8A-AE39B7B68B38";
layerId = "ED8AB536-7B26-4D85-8FCC-BD5B3B263093";
name = "29 Nov 24 at 11:57";
shapes = (
{
closed = 1;
nodes = (
(169,-227,o),
(255,-150,o),
(255,20,cs),
(255,580,l),
(35,580,l),
(35,20,ls),
(35,-52,o),
(20,-81,o),
(-26,-98,c),
(-26,-234,l)
);
}
);
width = 290;
}
);
metricLeft = "=n@200";
metricRight = "=|n";
unicode = 567;
},
{
color = 8;
glyphname = k;
lastChange = "2024-12-04 12:14:23 +0000";
layers = (
{
anchors = (
{
name = bottom;
pos = (291,0);
},
{
name = top;
pos = (291,760);
}
);
layerId = m01;
shapes = (
{
closed = 1;
nodes = (
(500,550,l),
(437,550,l),
(96,233,l),
(97,177,l)
);
},
{
closed = 1;
nodes = (
(132,0,l),
(132,760,l),
(82,760,l),
(82,0,l)
);
},
{
closed = 1;
nodes = (
(241,331,l),
(508,0,l),
(570,0,l),
(281,358,l)
);
}
);
width = 576;
},
{
anchors = (
{
name = bottom;
pos = (348,0);
},
{
name = top;
pos = (370,760);
}
);
layerId = "7F4E18E3-41A5-4521-AA8A-AE39B7B68B38";
shapes = (
{
closed = 1;
nodes = (
(693,580,l),
(428,580,l),
(129,297,l),
(257,177,l)
);
},
{
closed = 1;
nodes = (
(261,0,l),
(261,760,l),
(41,760,l),
(41,0,l)
);
},
{
closed = 1;
nodes = (
(201,331,l),
(457,0,l),
(733,0,l),
(390,425,l)
);
}
);
width = 736;
}
);
metricLeft = "=h";
metricRight = "=V";
unicode = 107;
},
{
color = 8;
glyphname = l;
lastChange = "2024-12-04 12:14:23 +0000";
layers = (
{
anchors = (
{
name = bottom;
pos = (107,0);
},
{
name = center;
pos = (107,275);
},
{
name = top;
pos = (107,760);
},
{
name = topright;
pos = (132,760);
}
);
layerId = m01;
shapes = (
{
closed = 1;
nodes = (
(132,0,l),
(132,407,l),
(132,760,l),
(82,760,l),
(82,0,l)
);
}
);
width = 214;
},
{
anchors = (
{
name = bottom;
pos = (151,0);
},
{
name = center;
pos = (151,290);
},
{
name = top;
pos = (151,760);
},
{
name = topright;
pos = (261,760);
}
);
layerId = "7F4E18E3-41A5-4521-AA8A-AE39B7B68B38";
shapes = (
{
closed = 1;
nodes = (
(261,0,l),
(261,492,l),
(261,760,l),
(41,760,l),
(41,0,l)
);
}
);
width = 302;
}
);
metricLeft = "=n";
metricRight = "=n";
unicode = 108;
},
{
glyphname = lslash;
lastChange = "2024-12-05 06:58:34 +0000";
layers = (
{
layerId = m01;
shapes = (
{
closed = 1;
nodes = (
(205,465,l),
(205,517,l),
(9,394,l),
(9,342,l)
);
},
{
ref = l;
}
);
width = 214;
},
{
layerId = "7F4E18E3-41A5-4521-AA8A-AE39B7B68B38";
shapes = (
{
closed = 1;
nodes = (
(342,462,l),
(342,599,l),
(-40,378,l),
(-40,241,l)
);
},
{
ref = l;
}
);
width = 302;
}
);
metricLeft = "=l@100";
metricRight = "=l@100";
unicode = 322;
},
